solid MyChip
facet normal 0 -5e-09 0
	outer loop
		vertex 0.0037 0.00479375 -2.5e-05
		vertex 0.0038 0.00479375 -2.5e-05
		vertex 0.0038 0.00479375 2.5e-05
	endloop
endfacet
facet normal 0 -5e-09 0
	outer loop
		vertex 0.0037 0.00479375 -2.5e-05
		vertex 0.0038 0.00479375 2.5e-05
		vertex 0.0037 0.00479375 2.5e-05
	endloop
endfacet
facet normal 0 5e-09 0
	outer loop
		vertex 0.0038 0.0055375 -2.5e-05
		vertex 0.0037 0.0055375 -2.5e-05
		vertex 0.0037 0.0055375 2.5e-05
	endloop
endfacet
facet normal 0 5e-09 -0
	outer loop
		vertex 0.0038 0.0055375 -2.5e-05
		vertex 0.0037 0.0055375 2.5e-05
		vertex 0.0038 0.0055375 2.5e-05
	endloop
endfacet
facet normal 5e-09 0 0
	outer loop
		vertex 0.00393125 0.00495 -2.5e-05
		vertex 0.00393125 0.00505 -2.5e-05
		vertex 0.00393125 0.00505 2.5e-05
	endloop
endfacet
facet normal 5e-09 0 0
	outer loop
		vertex 0.00393125 0.00495 -2.5e-05
		vertex 0.00393125 0.00505 2.5e-05
		vertex 0.00393125 0.00495 2.5e-05
	endloop
endfacet
facet normal -5e-09 0 0
	outer loop
		vertex 0.003409375 0.00505 -2.5e-05
		vertex 0.003409375 0.00495 -2.5e-05
		vertex 0.003409375 0.00495 2.5e-05
	endloop
endfacet
facet normal -5e-09 0 0
	outer loop
		vertex 0.003409375 0.00505 -2.5e-05
		vertex 0.003409375 0.00495 2.5e-05
		vertex 0.003409375 0.00505 2.5e-05
	endloop
endfacet
facet normal 7.8125e-09 0 0
	outer loop
		vertex 0.0038 0.00479375 -2.5e-05
		vertex 0.0038 0.00495 -2.5e-05
		vertex 0.0038 0.00495 2.5e-05
	endloop
endfacet
facet normal 7.8125e-09 0 0
	outer loop
		vertex 0.0038 0.00479375 -2.5e-05
		vertex 0.0038 0.00495 2.5e-05
		vertex 0.0038 0.00479375 2.5e-05
	endloop
endfacet
facet normal -7.8125e-09 0 0
	outer loop
		vertex 0.0037 0.00495 -2.5e-05
		vertex 0.0037 0.00479375 -2.5e-05
		vertex 0.0037 0.00479375 2.5e-05
	endloop
endfacet
facet normal -7.8125e-09 0 0
	outer loop
		vertex 0.0037 0.00495 -2.5e-05
		vertex 0.0037 0.00479375 2.5e-05
		vertex 0.0037 0.00495 2.5e-05
	endloop
endfacet
facet normal 0 0 -1.5625e-08
	outer loop
		vertex 0.0037 0.00479375 -2.5e-05
		vertex 0.0038 0.00495 -2.5e-05
		vertex 0.0038 0.00479375 -2.5e-05
	endloop
endfacet
facet normal 0 0 -1.5625e-08
	outer loop
		vertex 0.0037 0.00479375 -2.5e-05
		vertex 0.0037 0.00495 -2.5e-05
		vertex 0.0038 0.00495 -2.5e-05
	endloop
endfacet
facet normal 0 0 1.5625e-08
	outer loop
		vertex 0.0037 0.00479375 2.5e-05
		vertex 0.0038 0.00479375 2.5e-05
		vertex 0.0038 0.00495 2.5e-05
	endloop
endfacet
facet normal 0 0 1.5625e-08
	outer loop
		vertex 0.0037 0.00479375 2.5e-05
		vertex 0.0038 0.00495 2.5e-05
		vertex 0.0037 0.00495 2.5e-05
	endloop
endfacet
facet normal -2.4375e-08 0 0
	outer loop
		vertex 0.0037 0.0055375 -2.5e-05
		vertex 0.0037 0.00505 -2.5e-05
		vertex 0.0037 0.00505 2.5e-05
	endloop
endfacet
facet normal -2.4375e-08 0 0
	outer loop
		vertex 0.0037 0.0055375 -2.5e-05
		vertex 0.0037 0.00505 2.5e-05
		vertex 0.0037 0.0055375 2.5e-05
	endloop
endfacet
facet normal 2.4375e-08 0 0
	outer loop
		vertex 0.0038 0.00505 -2.5e-05
		vertex 0.0038 0.0055375 -2.5e-05
		vertex 0.0038 0.0055375 2.5e-05
	endloop
endfacet
facet normal 2.4375e-08 0 0
	outer loop
		vertex 0.0038 0.00505 -2.5e-05
		vertex 0.0038 0.0055375 2.5e-05
		vertex 0.0038 0.00505 2.5e-05
	endloop
endfacet
facet normal -0 0 -4.875e-08
	outer loop
		vertex 0.0038 0.0055375 -2.5e-05
		vertex 0.0037 0.00505 -2.5e-05
		vertex 0.0037 0.0055375 -2.5e-05
	endloop
endfacet
facet normal 0 -0 -4.875e-08
	outer loop
		vertex 0.0038 0.0055375 -2.5e-05
		vertex 0.0038 0.00505 -2.5e-05
		vertex 0.0037 0.00505 -2.5e-05
	endloop
endfacet
facet normal 0 0 4.875e-08
	outer loop
		vertex 0.0038 0.0055375 2.5e-05
		vertex 0.0037 0.0055375 2.5e-05
		vertex 0.0037 0.00505 2.5e-05
	endloop
endfacet
facet normal 0 0 4.875e-08
	outer loop
		vertex 0.0038 0.0055375 2.5e-05
		vertex 0.0037 0.00505 2.5e-05
		vertex 0.0038 0.00505 2.5e-05
	endloop
endfacet
facet normal 0 6.5625e-09 0
	outer loop
		vertex 0.00393125 0.00505 -2.5e-05
		vertex 0.0038 0.00505 -2.5e-05
		vertex 0.0038 0.00505 2.5e-05
	endloop
endfacet
facet normal 0 6.5625e-09 -0
	outer loop
		vertex 0.00393125 0.00505 -2.5e-05
		vertex 0.0038 0.00505 2.5e-05
		vertex 0.00393125 0.00505 2.5e-05
	endloop
endfacet
facet normal 0 -6.5625e-09 0
	outer loop
		vertex 0.0038 0.00495 -2.5e-05
		vertex 0.00393125 0.00495 -2.5e-05
		vertex 0.00393125 0.00495 2.5e-05
	endloop
endfacet
facet normal 0 -6.5625e-09 0
	outer loop
		vertex 0.0038 0.00495 -2.5e-05
		vertex 0.00393125 0.00495 2.5e-05
		vertex 0.0038 0.00495 2.5e-05
	endloop
endfacet
facet normal 0 0 -1.3125e-08
	outer loop
		vertex 0.00393125 0.00495 -2.5e-05
		vertex 0.0038 0.00505 -2.5e-05
		vertex 0.00393125 0.00505 -2.5e-05
	endloop
endfacet
facet normal 0 0 -1.3125e-08
	outer loop
		vertex 0.00393125 0.00495 -2.5e-05
		vertex 0.0038 0.00495 -2.5e-05
		vertex 0.0038 0.00505 -2.5e-05
	endloop
endfacet
facet normal 0 -0 1.3125e-08
	outer loop
		vertex 0.00393125 0.00495 2.5e-05
		vertex 0.00393125 0.00505 2.5e-05
		vertex 0.0038 0.00505 2.5e-05
	endloop
endfacet
facet normal 0 0 1.3125e-08
	outer loop
		vertex 0.00393125 0.00495 2.5e-05
		vertex 0.0038 0.00505 2.5e-05
		vertex 0.0038 0.00495 2.5e-05
	endloop
endfacet
facet normal 0 -1.453125e-08 0
	outer loop
		vertex 0.003409375 0.00495 -2.5e-05
		vertex 0.0037 0.00495 -2.5e-05
		vertex 0.0037 0.00495 2.5e-05
	endloop
endfacet
facet normal 0 -1.453125e-08 0
	outer loop
		vertex 0.003409375 0.00495 -2.5e-05
		vertex 0.0037 0.00495 2.5e-05
		vertex 0.003409375 0.00495 2.5e-05
	endloop
endfacet
facet normal 0 1.453125e-08 0
	outer loop
		vertex 0.0037 0.00505 -2.5e-05
		vertex 0.003409375 0.00505 -2.5e-05
		vertex 0.003409375 0.00505 2.5e-05
	endloop
endfacet
facet normal 0 1.453125e-08 -0
	outer loop
		vertex 0.0037 0.00505 -2.5e-05
		vertex 0.003409375 0.00505 2.5e-05
		vertex 0.0037 0.00505 2.5e-05
	endloop
endfacet
facet normal 0 0 -2.90625e-08
	outer loop
		vertex 0.003409375 0.00505 -2.5e-05
		vertex 0.0037 0.00495 -2.5e-05
		vertex 0.003409375 0.00495 -2.5e-05
	endloop
endfacet
facet normal 0 0 -2.90625e-08
	outer loop
		vertex 0.003409375 0.00505 -2.5e-05
		vertex 0.0037 0.00505 -2.5e-05
		vertex 0.0037 0.00495 -2.5e-05
	endloop
endfacet
facet normal 0 0 2.90625e-08
	outer loop
		vertex 0.003409375 0.00505 2.5e-05
		vertex 0.003409375 0.00495 2.5e-05
		vertex 0.0037 0.00495 2.5e-05
	endloop
endfacet
facet normal -0 0 2.90625e-08
	outer loop
		vertex 0.003409375 0.00505 2.5e-05
		vertex 0.0037 0.00495 2.5e-05
		vertex 0.0037 0.00505 2.5e-05
	endloop
endfacet
facet normal 0 -0 5e-09
	outer loop
		vertex 0.00375 0.005 2.5e-05
		vertex 0.0038 0.00505 2.5e-05
		vertex 0.0037 0.00505 2.5e-05
	endloop
endfacet
facet normal 0 0 -5e-09
	outer loop
		vertex 0.00375 0.005 -2.5e-05
		vertex 0.0037 0.00505 -2.5e-05
		vertex 0.0038 0.00505 -2.5e-05
	endloop
endfacet
facet normal 0 0 5e-09
	outer loop
		vertex 0.00375 0.005 2.5e-05
		vertex 0.0037 0.00505 2.5e-05
		vertex 0.0037 0.00495 2.5e-05
	endloop
endfacet
facet normal -0 0 -5e-09
	outer loop
		vertex 0.00375 0.005 -2.5e-05
		vertex 0.0037 0.00495 -2.5e-05
		vertex 0.0037 0.00505 -2.5e-05
	endloop
endfacet
facet normal 0 0 5e-09
	outer loop
		vertex 0.00375 0.005 2.5e-05
		vertex 0.0037 0.00495 2.5e-05
		vertex 0.0038 0.00495 2.5e-05
	endloop
endfacet
facet normal 0 -0 -5e-09
	outer loop
		vertex 0.00375 0.005 -2.5e-05
		vertex 0.0038 0.00495 -2.5e-05
		vertex 0.0037 0.00495 -2.5e-05
	endloop
endfacet
facet normal -0 0 5e-09
	outer loop
		vertex 0.00375 0.005 2.5e-05
		vertex 0.0038 0.00495 2.5e-05
		vertex 0.0038 0.00505 2.5e-05
	endloop
endfacet
facet normal 0 0 -5e-09
	outer loop
		vertex 0.00375 0.005 -2.5e-05
		vertex 0.0038 0.00505 -2.5e-05
		vertex 0.0038 0.00495 -2.5e-05
	endloop
endfacet
endsolid MyChip