solid MyChip
facet normal 0 -5e-09 0
	outer loop
		vertex 0.0037 0.00475 -2.5e-05
		vertex 0.0038 0.00475 -2.5e-05
		vertex 0.0038 0.00475 2.5e-05
	endloop
endfacet
facet normal 0 -5e-09 0
	outer loop
		vertex 0.0037 0.00475 -2.5e-05
		vertex 0.0038 0.00475 2.5e-05
		vertex 0.0037 0.00475 2.5e-05
	endloop
endfacet
facet normal 0 5e-09 0
	outer loop
		vertex 0.0038 0.00525 -2.5e-05
		vertex 0.0037 0.00525 -2.5e-05
		vertex 0.0037 0.00525 2.5e-05
	endloop
endfacet
facet normal 0 5e-09 -0
	outer loop
		vertex 0.0038 0.00525 -2.5e-05
		vertex 0.0037 0.00525 2.5e-05
		vertex 0.0038 0.00525 2.5e-05
	endloop
endfacet
facet normal 5e-09 0 0
	outer loop
		vertex 0.004 0.00495 -2.5e-05
		vertex 0.004 0.00505 -2.5e-05
		vertex 0.004 0.00505 2.5e-05
	endloop
endfacet
facet normal 5e-09 0 0
	outer loop
		vertex 0.004 0.00495 -2.5e-05
		vertex 0.004 0.00505 2.5e-05
		vertex 0.004 0.00495 2.5e-05
	endloop
endfacet
facet normal -5e-09 0 0
	outer loop
		vertex 0.0035 0.00505 -2.5e-05
		vertex 0.0035 0.00495 -2.5e-05
		vertex 0.0035 0.00495 2.5e-05
	endloop
endfacet
facet normal -5e-09 0 0
	outer loop
		vertex 0.0035 0.00505 -2.5e-05
		vertex 0.0035 0.00495 2.5e-05
		vertex 0.0035 0.00505 2.5e-05
	endloop
endfacet
facet normal 1e-08 0 0
	outer loop
		vertex 0.0038 0.00475 -2.5e-05
		vertex 0.0038 0.00495 -2.5e-05
		vertex 0.0038 0.00495 2.5e-05
	endloop
endfacet
facet normal 1e-08 0 0
	outer loop
		vertex 0.0038 0.00475 -2.5e-05
		vertex 0.0038 0.00495 2.5e-05
		vertex 0.0038 0.00475 2.5e-05
	endloop
endfacet
facet normal -1e-08 0 0
	outer loop
		vertex 0.0037 0.00495 -2.5e-05
		vertex 0.0037 0.00475 -2.5e-05
		vertex 0.0037 0.00475 2.5e-05
	endloop
endfacet
facet normal -1e-08 0 0
	outer loop
		vertex 0.0037 0.00495 -2.5e-05
		vertex 0.0037 0.00475 2.5e-05
		vertex 0.0037 0.00495 2.5e-05
	endloop
endfacet
facet normal 0 0 -2e-08
	outer loop
		vertex 0.0037 0.00475 -2.5e-05
		vertex 0.0038 0.00495 -2.5e-05
		vertex 0.0038 0.00475 -2.5e-05
	endloop
endfacet
facet normal 0 0 -2e-08
	outer loop
		vertex 0.0037 0.00475 -2.5e-05
		vertex 0.0037 0.00495 -2.5e-05
		vertex 0.0038 0.00495 -2.5e-05
	endloop
endfacet
facet normal 0 0 2e-08
	outer loop
		vertex 0.0037 0.00475 2.5e-05
		vertex 0.0038 0.00475 2.5e-05
		vertex 0.0038 0.00495 2.5e-05
	endloop
endfacet
facet normal 0 0 2e-08
	outer loop
		vertex 0.0037 0.00475 2.5e-05
		vertex 0.0038 0.00495 2.5e-05
		vertex 0.0037 0.00495 2.5e-05
	endloop
endfacet
facet normal -1e-08 0 0
	outer loop
		vertex 0.0037 0.00525 -2.5e-05
		vertex 0.0037 0.00505 -2.5e-05
		vertex 0.0037 0.00505 2.5e-05
	endloop
endfacet
facet normal -1e-08 0 0
	outer loop
		vertex 0.0037 0.00525 -2.5e-05
		vertex 0.0037 0.00505 2.5e-05
		vertex 0.0037 0.00525 2.5e-05
	endloop
endfacet
facet normal 1e-08 0 0
	outer loop
		vertex 0.0038 0.00505 -2.5e-05
		vertex 0.0038 0.00525 -2.5e-05
		vertex 0.0038 0.00525 2.5e-05
	endloop
endfacet
facet normal 1e-08 0 0
	outer loop
		vertex 0.0038 0.00505 -2.5e-05
		vertex 0.0038 0.00525 2.5e-05
		vertex 0.0038 0.00505 2.5e-05
	endloop
endfacet
facet normal -0 0 -2e-08
	outer loop
		vertex 0.0038 0.00525 -2.5e-05
		vertex 0.0037 0.00505 -2.5e-05
		vertex 0.0037 0.00525 -2.5e-05
	endloop
endfacet
facet normal 0 -0 -2e-08
	outer loop
		vertex 0.0038 0.00525 -2.5e-05
		vertex 0.0038 0.00505 -2.5e-05
		vertex 0.0037 0.00505 -2.5e-05
	endloop
endfacet
facet normal 0 0 2e-08
	outer loop
		vertex 0.0038 0.00525 2.5e-05
		vertex 0.0037 0.00525 2.5e-05
		vertex 0.0037 0.00505 2.5e-05
	endloop
endfacet
facet normal 0 0 2e-08
	outer loop
		vertex 0.0038 0.00525 2.5e-05
		vertex 0.0037 0.00505 2.5e-05
		vertex 0.0038 0.00505 2.5e-05
	endloop
endfacet
facet normal 0 1e-08 0
	outer loop
		vertex 0.004 0.00505 -2.5e-05
		vertex 0.0038 0.00505 -2.5e-05
		vertex 0.0038 0.00505 2.5e-05
	endloop
endfacet
facet normal 0 1e-08 -0
	outer loop
		vertex 0.004 0.00505 -2.5e-05
		vertex 0.0038 0.00505 2.5e-05
		vertex 0.004 0.00505 2.5e-05
	endloop
endfacet
facet normal 0 -1e-08 0
	outer loop
		vertex 0.0038 0.00495 -2.5e-05
		vertex 0.004 0.00495 -2.5e-05
		vertex 0.004 0.00495 2.5e-05
	endloop
endfacet
facet normal 0 -1e-08 0
	outer loop
		vertex 0.0038 0.00495 -2.5e-05
		vertex 0.004 0.00495 2.5e-05
		vertex 0.0038 0.00495 2.5e-05
	endloop
endfacet
facet normal 0 0 -2e-08
	outer loop
		vertex 0.004 0.00495 -2.5e-05
		vertex 0.0038 0.00505 -2.5e-05
		vertex 0.004 0.00505 -2.5e-05
	endloop
endfacet
facet normal 0 0 -2e-08
	outer loop
		vertex 0.004 0.00495 -2.5e-05
		vertex 0.0038 0.00495 -2.5e-05
		vertex 0.0038 0.00505 -2.5e-05
	endloop
endfacet
facet normal 0 -0 2e-08
	outer loop
		vertex 0.004 0.00495 2.5e-05
		vertex 0.004 0.00505 2.5e-05
		vertex 0.0038 0.00505 2.5e-05
	endloop
endfacet
facet normal 0 0 2e-08
	outer loop
		vertex 0.004 0.00495 2.5e-05
		vertex 0.0038 0.00505 2.5e-05
		vertex 0.0038 0.00495 2.5e-05
	endloop
endfacet
facet normal 0 -1e-08 0
	outer loop
		vertex 0.0035 0.00495 -2.5e-05
		vertex 0.0037 0.00495 -2.5e-05
		vertex 0.0037 0.00495 2.5e-05
	endloop
endfacet
facet normal 0 -1e-08 0
	outer loop
		vertex 0.0035 0.00495 -2.5e-05
		vertex 0.0037 0.00495 2.5e-05
		vertex 0.0035 0.00495 2.5e-05
	endloop
endfacet
facet normal 0 1e-08 0
	outer loop
		vertex 0.0037 0.00505 -2.5e-05
		vertex 0.0035 0.00505 -2.5e-05
		vertex 0.0035 0.00505 2.5e-05
	endloop
endfacet
facet normal 0 1e-08 -0
	outer loop
		vertex 0.0037 0.00505 -2.5e-05
		vertex 0.0035 0.00505 2.5e-05
		vertex 0.0037 0.00505 2.5e-05
	endloop
endfacet
facet normal 0 0 -2e-08
	outer loop
		vertex 0.0035 0.00505 -2.5e-05
		vertex 0.0037 0.00495 -2.5e-05
		vertex 0.0035 0.00495 -2.5e-05
	endloop
endfacet
facet normal 0 0 -2e-08
	outer loop
		vertex 0.0035 0.00505 -2.5e-05
		vertex 0.0037 0.00505 -2.5e-05
		vertex 0.0037 0.00495 -2.5e-05
	endloop
endfacet
facet normal 0 0 2e-08
	outer loop
		vertex 0.0035 0.00505 2.5e-05
		vertex 0.0035 0.00495 2.5e-05
		vertex 0.0037 0.00495 2.5e-05
	endloop
endfacet
facet normal -0 0 2e-08
	outer loop
		vertex 0.0035 0.00505 2.5e-05
		vertex 0.0037 0.00495 2.5e-05
		vertex 0.0037 0.00505 2.5e-05
	endloop
endfacet
facet normal 0 -0 5e-09
	outer loop
		vertex 0.00375 0.005 2.5e-05
		vertex 0.0038 0.00505 2.5e-05
		vertex 0.0037 0.00505 2.5e-05
	endloop
endfacet
facet normal 0 0 -5e-09
	outer loop
		vertex 0.00375 0.005 -2.5e-05
		vertex 0.0037 0.00505 -2.5e-05
		vertex 0.0038 0.00505 -2.5e-05
	endloop
endfacet
facet normal 0 0 5e-09
	outer loop
		vertex 0.00375 0.005 2.5e-05
		vertex 0.0037 0.00505 2.5e-05
		vertex 0.0037 0.00495 2.5e-05
	endloop
endfacet
facet normal -0 0 -5e-09
	outer loop
		vertex 0.00375 0.005 -2.5e-05
		vertex 0.0037 0.00495 -2.5e-05
		vertex 0.0037 0.00505 -2.5e-05
	endloop
endfacet
facet normal 0 0 5e-09
	outer loop
		vertex 0.00375 0.005 2.5e-05
		vertex 0.0037 0.00495 2.5e-05
		vertex 0.0038 0.00495 2.5e-05
	endloop
endfacet
facet normal 0 -0 -5e-09
	outer loop
		vertex 0.00375 0.005 -2.5e-05
		vertex 0.0038 0.00495 -2.5e-05
		vertex 0.0037 0.00495 -2.5e-05
	endloop
endfacet
facet normal -0 0 5e-09
	outer loop
		vertex 0.00375 0.005 2.5e-05
		vertex 0.0038 0.00495 2.5e-05
		vertex 0.0038 0.00505 2.5e-05
	endloop
endfacet
facet normal 0 0 -5e-09
	outer loop
		vertex 0.00375 0.005 -2.5e-05
		vertex 0.0038 0.00505 -2.5e-05
		vertex 0.0038 0.00495 -2.5e-05
	endloop
endfacet
endsolid MyChip