solid MyChip
facet normal 0 -5e-09 0
	outer loop
		vertex 0.0037 0.004625 -2.5e-05
		vertex 0.0038 0.004625 -2.5e-05
		vertex 0.0038 0.004625 2.5e-05
	endloop
endfacet
facet normal 0 -5e-09 0
	outer loop
		vertex 0.0037 0.004625 -2.5e-05
		vertex 0.0038 0.004625 2.5e-05
		vertex 0.0037 0.004625 2.5e-05
	endloop
endfacet
facet normal 0 5e-09 0
	outer loop
		vertex 0.0038 0.005265625 -2.5e-05
		vertex 0.0037 0.005265625 -2.5e-05
		vertex 0.0037 0.005265625 2.5e-05
	endloop
endfacet
facet normal 0 5e-09 -0
	outer loop
		vertex 0.0038 0.005265625 -2.5e-05
		vertex 0.0037 0.005265625 2.5e-05
		vertex 0.0038 0.005265625 2.5e-05
	endloop
endfacet
facet normal 5e-09 0 0
	outer loop
		vertex 0.003996875 0.00495 -2.5e-05
		vertex 0.003996875 0.00505 -2.5e-05
		vertex 0.003996875 0.00505 2.5e-05
	endloop
endfacet
facet normal 5e-09 0 0
	outer loop
		vertex 0.003996875 0.00495 -2.5e-05
		vertex 0.003996875 0.00505 2.5e-05
		vertex 0.003996875 0.00495 2.5e-05
	endloop
endfacet
facet normal -5e-09 0 0
	outer loop
		vertex 0.00326875 0.00505 -2.5e-05
		vertex 0.00326875 0.00495 -2.5e-05
		vertex 0.00326875 0.00495 2.5e-05
	endloop
endfacet
facet normal -5e-09 0 0
	outer loop
		vertex 0.00326875 0.00505 -2.5e-05
		vertex 0.00326875 0.00495 2.5e-05
		vertex 0.00326875 0.00505 2.5e-05
	endloop
endfacet
facet normal 1.625e-08 0 0
	outer loop
		vertex 0.0038 0.004625 -2.5e-05
		vertex 0.0038 0.00495 -2.5e-05
		vertex 0.0038 0.00495 2.5e-05
	endloop
endfacet
facet normal 1.625e-08 0 0
	outer loop
		vertex 0.0038 0.004625 -2.5e-05
		vertex 0.0038 0.00495 2.5e-05
		vertex 0.0038 0.004625 2.5e-05
	endloop
endfacet
facet normal -1.625e-08 0 0
	outer loop
		vertex 0.0037 0.00495 -2.5e-05
		vertex 0.0037 0.004625 -2.5e-05
		vertex 0.0037 0.004625 2.5e-05
	endloop
endfacet
facet normal -1.625e-08 0 0
	outer loop
		vertex 0.0037 0.00495 -2.5e-05
		vertex 0.0037 0.004625 2.5e-05
		vertex 0.0037 0.00495 2.5e-05
	endloop
endfacet
facet normal 0 0 -3.25e-08
	outer loop
		vertex 0.0037 0.004625 -2.5e-05
		vertex 0.0038 0.00495 -2.5e-05
		vertex 0.0038 0.004625 -2.5e-05
	endloop
endfacet
facet normal 0 0 -3.25e-08
	outer loop
		vertex 0.0037 0.004625 -2.5e-05
		vertex 0.0037 0.00495 -2.5e-05
		vertex 0.0038 0.00495 -2.5e-05
	endloop
endfacet
facet normal 0 0 3.25e-08
	outer loop
		vertex 0.0037 0.004625 2.5e-05
		vertex 0.0038 0.004625 2.5e-05
		vertex 0.0038 0.00495 2.5e-05
	endloop
endfacet
facet normal 0 0 3.25e-08
	outer loop
		vertex 0.0037 0.004625 2.5e-05
		vertex 0.0038 0.00495 2.5e-05
		vertex 0.0037 0.00495 2.5e-05
	endloop
endfacet
facet normal -1.078125e-08 0 0
	outer loop
		vertex 0.0037 0.005265625 -2.5e-05
		vertex 0.0037 0.00505 -2.5e-05
		vertex 0.0037 0.00505 2.5e-05
	endloop
endfacet
facet normal -1.078125e-08 0 0
	outer loop
		vertex 0.0037 0.005265625 -2.5e-05
		vertex 0.0037 0.00505 2.5e-05
		vertex 0.0037 0.005265625 2.5e-05
	endloop
endfacet
facet normal 1.078125e-08 0 0
	outer loop
		vertex 0.0038 0.00505 -2.5e-05
		vertex 0.0038 0.005265625 -2.5e-05
		vertex 0.0038 0.005265625 2.5e-05
	endloop
endfacet
facet normal 1.078125e-08 0 0
	outer loop
		vertex 0.0038 0.00505 -2.5e-05
		vertex 0.0038 0.005265625 2.5e-05
		vertex 0.0038 0.00505 2.5e-05
	endloop
endfacet
facet normal -0 0 -2.15625e-08
	outer loop
		vertex 0.0038 0.005265625 -2.5e-05
		vertex 0.0037 0.00505 -2.5e-05
		vertex 0.0037 0.005265625 -2.5e-05
	endloop
endfacet
facet normal 0 -0 -2.15625e-08
	outer loop
		vertex 0.0038 0.005265625 -2.5e-05
		vertex 0.0038 0.00505 -2.5e-05
		vertex 0.0037 0.00505 -2.5e-05
	endloop
endfacet
facet normal 0 0 2.15625e-08
	outer loop
		vertex 0.0038 0.005265625 2.5e-05
		vertex 0.0037 0.005265625 2.5e-05
		vertex 0.0037 0.00505 2.5e-05
	endloop
endfacet
facet normal 0 0 2.15625e-08
	outer loop
		vertex 0.0038 0.005265625 2.5e-05
		vertex 0.0037 0.00505 2.5e-05
		vertex 0.0038 0.00505 2.5e-05
	endloop
endfacet
facet normal 0 9.84375e-09 0
	outer loop
		vertex 0.003996875 0.00505 -2.5e-05
		vertex 0.0038 0.00505 -2.5e-05
		vertex 0.0038 0.00505 2.5e-05
	endloop
endfacet
facet normal 0 9.84375e-09 -0
	outer loop
		vertex 0.003996875 0.00505 -2.5e-05
		vertex 0.0038 0.00505 2.5e-05
		vertex 0.003996875 0.00505 2.5e-05
	endloop
endfacet
facet normal 0 -9.84375e-09 0
	outer loop
		vertex 0.0038 0.00495 -2.5e-05
		vertex 0.003996875 0.00495 -2.5e-05
		vertex 0.003996875 0.00495 2.5e-05
	endloop
endfacet
facet normal 0 -9.84375e-09 0
	outer loop
		vertex 0.0038 0.00495 -2.5e-05
		vertex 0.003996875 0.00495 2.5e-05
		vertex 0.0038 0.00495 2.5e-05
	endloop
endfacet
facet normal 0 0 -1.96875e-08
	outer loop
		vertex 0.003996875 0.00495 -2.5e-05
		vertex 0.0038 0.00505 -2.5e-05
		vertex 0.003996875 0.00505 -2.5e-05
	endloop
endfacet
facet normal 0 0 -1.96875e-08
	outer loop
		vertex 0.003996875 0.00495 -2.5e-05
		vertex 0.0038 0.00495 -2.5e-05
		vertex 0.0038 0.00505 -2.5e-05
	endloop
endfacet
facet normal 0 -0 1.96875e-08
	outer loop
		vertex 0.003996875 0.00495 2.5e-05
		vertex 0.003996875 0.00505 2.5e-05
		vertex 0.0038 0.00505 2.5e-05
	endloop
endfacet
facet normal 0 0 1.96875e-08
	outer loop
		vertex 0.003996875 0.00495 2.5e-05
		vertex 0.0038 0.00505 2.5e-05
		vertex 0.0038 0.00495 2.5e-05
	endloop
endfacet
facet normal 0 -2.15625e-08 0
	outer loop
		vertex 0.00326875 0.00495 -2.5e-05
		vertex 0.0037 0.00495 -2.5e-05
		vertex 0.0037 0.00495 2.5e-05
	endloop
endfacet
facet normal 0 -2.15625e-08 0
	outer loop
		vertex 0.00326875 0.00495 -2.5e-05
		vertex 0.0037 0.00495 2.5e-05
		vertex 0.00326875 0.00495 2.5e-05
	endloop
endfacet
facet normal 0 2.15625e-08 0
	outer loop
		vertex 0.0037 0.00505 -2.5e-05
		vertex 0.00326875 0.00505 -2.5e-05
		vertex 0.00326875 0.00505 2.5e-05
	endloop
endfacet
facet normal 0 2.15625e-08 -0
	outer loop
		vertex 0.0037 0.00505 -2.5e-05
		vertex 0.00326875 0.00505 2.5e-05
		vertex 0.0037 0.00505 2.5e-05
	endloop
endfacet
facet normal 0 0 -4.3125e-08
	outer loop
		vertex 0.00326875 0.00505 -2.5e-05
		vertex 0.0037 0.00495 -2.5e-05
		vertex 0.00326875 0.00495 -2.5e-05
	endloop
endfacet
facet normal 0 0 -4.3125e-08
	outer loop
		vertex 0.00326875 0.00505 -2.5e-05
		vertex 0.0037 0.00505 -2.5e-05
		vertex 0.0037 0.00495 -2.5e-05
	endloop
endfacet
facet normal 0 0 4.3125e-08
	outer loop
		vertex 0.00326875 0.00505 2.5e-05
		vertex 0.00326875 0.00495 2.5e-05
		vertex 0.0037 0.00495 2.5e-05
	endloop
endfacet
facet normal -0 0 4.3125e-08
	outer loop
		vertex 0.00326875 0.00505 2.5e-05
		vertex 0.0037 0.00495 2.5e-05
		vertex 0.0037 0.00505 2.5e-05
	endloop
endfacet
facet normal 0 -0 5e-09
	outer loop
		vertex 0.00375 0.005 2.5e-05
		vertex 0.0038 0.00505 2.5e-05
		vertex 0.0037 0.00505 2.5e-05
	endloop
endfacet
facet normal 0 0 -5e-09
	outer loop
		vertex 0.00375 0.005 -2.5e-05
		vertex 0.0037 0.00505 -2.5e-05
		vertex 0.0038 0.00505 -2.5e-05
	endloop
endfacet
facet normal 0 0 5e-09
	outer loop
		vertex 0.00375 0.005 2.5e-05
		vertex 0.0037 0.00505 2.5e-05
		vertex 0.0037 0.00495 2.5e-05
	endloop
endfacet
facet normal -0 0 -5e-09
	outer loop
		vertex 0.00375 0.005 -2.5e-05
		vertex 0.0037 0.00495 -2.5e-05
		vertex 0.0037 0.00505 -2.5e-05
	endloop
endfacet
facet normal 0 0 5e-09
	outer loop
		vertex 0.00375 0.005 2.5e-05
		vertex 0.0037 0.00495 2.5e-05
		vertex 0.0038 0.00495 2.5e-05
	endloop
endfacet
facet normal 0 -0 -5e-09
	outer loop
		vertex 0.00375 0.005 -2.5e-05
		vertex 0.0038 0.00495 -2.5e-05
		vertex 0.0037 0.00495 -2.5e-05
	endloop
endfacet
facet normal -0 0 5e-09
	outer loop
		vertex 0.00375 0.005 2.5e-05
		vertex 0.0038 0.00495 2.5e-05
		vertex 0.0038 0.00505 2.5e-05
	endloop
endfacet
facet normal 0 0 -5e-09
	outer loop
		vertex 0.00375 0.005 -2.5e-05
		vertex 0.0038 0.00505 -2.5e-05
		vertex 0.0038 0.00495 -2.5e-05
	endloop
endfacet
endsolid MyChip