solid Visualization Toolkit generated SLA File
 facet normal 0 0 1
  outer loop
   vertex 0.0002201163733843714 0.00018591435218695551 9.9999997473787516e-05
   vertex 0.00031408565700985491 0.0002201163733843714 9.9999997473787516e-05
   vertex 0.00018591435218695551 0.0002798836212605238 9.9999997473787516e-05
  endloop
 endfacet
 facet normal 0 0 1
  outer loop
   vertex 0.00031408565700985491 0.0002201163733843714 9.9999997473787516e-05
   vertex 0.0002798836212605238 0.00031408565700985491 9.9999997473787516e-05
   vertex 0.00018591435218695551 0.0002798836212605238 9.9999997473787516e-05
  endloop
 endfacet
 facet normal 0 0 -1
  outer loop
   vertex 0.0002201163733843714 0.00018591435218695551 0
   vertex 0.00018591435218695551 0.0002798836212605238 0
   vertex 0.00031408565700985491 0.0002201163733843714 0
  endloop
 endfacet
 facet normal 0 -0 -1
  outer loop
   vertex 0.00018591435218695551 0.0002798836212605238 0
   vertex 0.0002798836212605238 0.00031408565700985491 0
   vertex 0.00031408565700985491 0.0002201163733843714 0
  endloop
 endfacet
 facet normal 0 0 1
  outer loop
   vertex 3.2177838875213638e-05 0.00011751032434403896 9.9999997473787516e-05
   vertex 0.00012614710431080312 0.00015171234554145485 9.9999997473787516e-05
   vertex -2.0241832316969521e-06 0.00021147960796952248 9.9999997473787516e-05
  endloop
 endfacet
 facet normal 0 0 1
  outer loop
   vertex 0.00012614710431080312 0.00015171234554145485 9.9999997473787516e-05
   vertex 9.1945083113387227e-05 0.00024568161461502314 9.9999997473787516e-05
   vertex -2.0241832316969521e-06 0.00021147960796952248 9.9999997473787516e-05
  endloop
 endfacet
 facet normal 0 0 -1
  outer loop
   vertex 3.2177838875213638e-05 0.00011751032434403896 0
   vertex -2.0241832316969521e-06 0.00021147960796952248 0
   vertex 0.00012614710431080312 0.00015171234554145485 0
  endloop
 endfacet
 facet normal 0 -0 -1
  outer loop
   vertex -2.0241832316969521e-06 0.00021147960796952248 0
   vertex 9.1945083113387227e-05 0.00024568161461502314 0
   vertex 0.00012614710431080312 0.00015171234554145485 0
  endloop
 endfacet
 facet normal -0.93969262100472561 -0.34202014272447329 -0
  outer loop
   vertex 3.2177838875213638e-05 0.00011751032434403896 0
   vertex 3.2177838875213638e-05 0.00011751032434403896 9.9999997473787516e-05
   vertex -2.0241832316969521e-06 0.00021147960796952248 0
  endloop
 endfacet
 facet normal -0.93969262100472561 -0.34202014272447329 -0
  outer loop
   vertex 3.2177838875213638e-05 0.00011751032434403896 9.9999997473787516e-05
   vertex -2.0241832316969521e-06 0.00021147960796952248 9.9999997473787516e-05
   vertex -2.0241832316969521e-06 0.00021147960796952248 0
  endloop
 endfacet
 facet normal -0.34202006173492044 0.93969265048250805 0
  outer loop
   vertex -2.0241832316969521e-06 0.00021147960796952248 0
   vertex -2.0241832316969521e-06 0.00021147960796952248 9.9999997473787516e-05
   vertex 9.1945083113387227e-05 0.00024568161461502314 0
  endloop
 endfacet
 facet normal -0.34202006173492044 0.93969265048250805 0
  outer loop
   vertex -2.0241832316969521e-06 0.00021147960796952248 9.9999997473787516e-05
   vertex 9.1945083113387227e-05 0.00024568161461502314 9.9999997473787516e-05
   vertex 9.1945083113387227e-05 0.00024568161461502314 0
  endloop
 endfacet
 facet normal 0.34202019315462218 -0.93969260264965115 0
  outer loop
   vertex 3.2177838875213638e-05 0.00011751032434403896 0
   vertex 0.00012614710431080312 0.00015171234554145485 0
   vertex 3.2177838875213638e-05 0.00011751032434403896 9.9999997473787516e-05
  endloop
 endfacet
 facet normal 0.34202019315462218 -0.93969260264965115 0
  outer loop
   vertex 0.00012614710431080312 0.00015171234554145485 0
   vertex 0.00012614710431080312 0.00015171234554145485 9.9999997473787516e-05
   vertex 3.2177838875213638e-05 0.00011751032434403896 9.9999997473787516e-05
  endloop
 endfacet
 facet normal 0 0 1
  outer loop
   vertex 0.00015171234554145485 0.00037385287578217685 9.9999997473787516e-05
   vertex 0.00024568161461502314 0.00040805491153150797 9.9999997473787516e-05
   vertex 0.00011751032434403896 0.00046782215940766037 9.9999997473787516e-05
  endloop
 endfacet
 facet normal 0 0 1
  outer loop
   vertex 0.00024568161461502314 0.00040805491153150797 9.9999997473787516e-05
   vertex 0.00021147960796952248 0.00050202419515699148 9.9999997473787516e-05
   vertex 0.00011751032434403896 0.00046782215940766037 9.9999997473787516e-05
  endloop
 endfacet
 facet normal 0 0 -1
  outer loop
   vertex 0.00015171234554145485 0.00037385287578217685 0
   vertex 0.00011751032434403896 0.00046782215940766037 0
   vertex 0.00024568161461502314 0.00040805491153150797 0
  endloop
 endfacet
 facet normal 0 -0 -1
  outer loop
   vertex 0.00011751032434403896 0.00046782215940766037 0
   vertex 0.00021147960796952248 0.00050202419515699148 0
   vertex 0.00024568161461502314 0.00040805491153150797 0
  endloop
 endfacet
 facet normal -0.93969262392778463 -0.34202013469343479 -0
  outer loop
   vertex 0.00015171234554145485 0.00037385287578217685 0
   vertex 0.00015171234554145485 0.00037385287578217685 9.9999997473787516e-05
   vertex 0.00011751032434403896 0.00046782215940766037 0
  endloop
 endfacet
 facet normal -0.93969262392778463 -0.34202013469343479 -0
  outer loop
   vertex 0.00015171234554145485 0.00037385287578217685 9.9999997473787516e-05
   vertex 0.00011751032434403896 0.00046782215940766037 9.9999997473787516e-05
   vertex 0.00011751032434403896 0.00046782215940766037 0
  endloop
 endfacet
 facet normal -0.34202026319004214 0.9396925771588357 0
  outer loop
   vertex 0.00011751032434403896 0.00046782215940766037 0
   vertex 0.00011751032434403896 0.00046782215940766037 9.9999997473787516e-05
   vertex 0.00021147960796952248 0.00050202419515699148 0
  endloop
 endfacet
 facet normal -0.34202026319004214 0.9396925771588357 0
  outer loop
   vertex 0.00011751032434403896 0.00046782215940766037 9.9999997473787516e-05
   vertex 0.00021147960796952248 0.00050202419515699148 9.9999997473787516e-05
   vertex 0.00021147960796952248 0.00050202419515699148 0
  endloop
 endfacet
 facet normal 0.93969267069672058 0.34202000619680822 0
  outer loop
   vertex 0.00024568161461502314 0.00040805491153150797 0
   vertex 0.00021147960796952248 0.00050202419515699148 0
   vertex 0.00024568161461502314 0.00040805491153150797 9.9999997473787516e-05
  endloop
 endfacet
 facet normal 0.93969267069672058 0.34202000619680822 0
  outer loop
   vertex 0.00021147960796952248 0.00050202419515699148 0
   vertex 0.00021147960796952248 0.00050202419515699148 9.9999997473787516e-05
   vertex 0.00024568161461502314 0.00040805491153150797 9.9999997473787516e-05
  endloop
 endfacet
 facet normal 0 0 1
  outer loop
   vertex 0.00040805491153150797 0.00025431838002987206 9.9999997473787516e-05
   vertex 0.00050202419515699148 0.00028852041577920318 9.9999997473787516e-05
   vertex 0.00037385287578217685 0.00034828766365535557 9.9999997473787516e-05
  endloop
 endfacet
 facet normal 0 0 1
  outer loop
   vertex 0.00050202419515699148 0.00028852041577920318 9.9999997473787516e-05
   vertex 0.00046782215940766037 0.00038248969940468669 9.9999997473787516e-05
   vertex 0.00037385287578217685 0.00034828766365535557 9.9999997473787516e-05
  endloop
 endfacet
 facet normal 0 0 -1
  outer loop
   vertex 0.00040805491153150797 0.00025431838002987206 0
   vertex 0.00037385287578217685 0.00034828766365535557 0
   vertex 0.00050202419515699148 0.00028852041577920318 0
  endloop
 endfacet
 facet normal 0 -0 -1
  outer loop
   vertex 0.00037385287578217685 0.00034828766365535557 0
   vertex 0.00046782215940766037 0.00038248969940468669 0
   vertex 0.00050202419515699148 0.00028852041577920318 0
  endloop
 endfacet
 facet normal -0.34202026319004214 0.9396925771588357 0
  outer loop
   vertex 0.00037385287578217685 0.00034828766365535557 0
   vertex 0.00037385287578217685 0.00034828766365535557 9.9999997473787516e-05
   vertex 0.00046782215940766037 0.00038248969940468669 0
  endloop
 endfacet
 facet normal -0.34202026319004214 0.9396925771588357 0
  outer loop
   vertex 0.00037385287578217685 0.00034828766365535557 9.9999997473787516e-05
   vertex 0.00046782215940766037 0.00038248969940468669 9.9999997473787516e-05
   vertex 0.00046782215940766037 0.00038248969940468669 0
  endloop
 endfacet
 facet normal 0.9396925771588357 0.34202026319004214 0
  outer loop
   vertex 0.00050202419515699148 0.00028852041577920318 0
   vertex 0.00046782215940766037 0.00038248969940468669 0
   vertex 0.00050202419515699148 0.00028852041577920318 9.9999997473787516e-05
  endloop
 endfacet
 facet normal 0.9396925771588357 0.34202026319004214 0
  outer loop
   vertex 0.00046782215940766037 0.00038248969940468669 0
   vertex 0.00046782215940766037 0.00038248969940468669 9.9999997473787516e-05
   vertex 0.00050202419515699148 0.00028852041577920318 9.9999997473787516e-05
  endloop
 endfacet
 facet normal 0.34202026319004214 -0.9396925771588357 0
  outer loop
   vertex 0.00040805491153150797 0.00025431838002987206 0
   vertex 0.00050202419515699148 0.00028852041577920318 0
   vertex 0.00040805491153150797 0.00025431838002987206 9.9999997473787516e-05
  endloop
 endfacet
 facet normal 0.34202026319004214 -0.9396925771588357 0
  outer loop
   vertex 0.00050202419515699148 0.00028852041577920318 0
   vertex 0.00050202419515699148 0.00028852041577920318 9.9999997473787516e-05
   vertex 0.00040805491153150797 0.00025431838002987206 9.9999997473787516e-05
  endloop
 endfacet
 facet normal 0 0 1
  outer loop
   vertex 0.00028852041577920318 -2.0241832316969521e-06 9.9999997473787516e-05
   vertex 0.00038248969940468669 3.2177853427128866e-05 9.9999997473787516e-05
   vertex 0.00025431838002987206 9.1945083113387227e-05 9.9999997473787516e-05
  endloop
 endfacet
 facet normal 0 0 1
  outer loop
   vertex 0.00038248969940468669 3.2177853427128866e-05 9.9999997473787516e-05
   vertex 0.00034828766365535557 0.00012614710431080312 9.9999997473787516e-05
   vertex 0.00025431838002987206 9.1945083113387227e-05 9.9999997473787516e-05
  endloop
 endfacet
 facet normal 0 0 -1
  outer loop
   vertex 0.00028852041577920318 -2.0241832316969521e-06 0
   vertex 0.00025431838002987206 9.1945083113387227e-05 0
   vertex 0.00038248969940468669 3.2177853427128866e-05 0
  endloop
 endfacet
 facet normal 0 -0 -1
  outer loop
   vertex 0.00025431838002987206 9.1945083113387227e-05 0
   vertex 0.00034828766365535557 0.00012614710431080312 0
   vertex 0.00038248969940468669 3.2177853427128866e-05 0
  endloop
 endfacet
 facet normal -0.93969255694459497 -0.34202031872818506 -0
  outer loop
   vertex 0.00028852041577920318 -2.0241832316969521e-06 0
   vertex 0.00028852041577920318 -2.0241832316969521e-06 9.9999997473787516e-05
   vertex 0.00025431838002987206 9.1945083113387227e-05 0
  endloop
 endfacet
 facet normal -0.93969255694459497 -0.34202031872818506 -0
  outer loop
   vertex 0.00028852041577920318 -2.0241832316969521e-06 9.9999997473787516e-05
   vertex 0.00025431838002987206 9.1945083113387227e-05 9.9999997473787516e-05
   vertex 0.00025431838002987206 9.1945083113387227e-05 0
  endloop
 endfacet
 facet normal 0.93969253885816062 0.34202036842022188 0
  outer loop
   vertex 0.00038248969940468669 3.2177853427128866e-05 0
   vertex 0.00034828766365535557 0.00012614710431080312 0
   vertex 0.00038248969940468669 3.2177853427128866e-05 9.9999997473787516e-05
  endloop
 endfacet
 facet normal 0.93969253885816062 0.34202036842022188 0
  outer loop
   vertex 0.00034828766365535557 0.00012614710431080312 0
   vertex 0.00034828766365535557 0.00012614710431080312 9.9999997473787516e-05
   vertex 0.00038248969940468669 3.2177853427128866e-05 9.9999997473787516e-05
  endloop
 endfacet
 facet normal 0.34202027122107942 -0.9396925742357759 0
  outer loop
   vertex 0.00028852041577920318 -2.0241832316969521e-06 0
   vertex 0.00038248969940468669 3.2177853427128866e-05 0
   vertex 0.00028852041577920318 -2.0241832316969521e-06 9.9999997473787516e-05
  endloop
 endfacet
 facet normal 0.34202027122107942 -0.9396925742357759 0
  outer loop
   vertex 0.00038248969940468669 3.2177853427128866e-05 0
   vertex 0.00038248969940468669 3.2177853427128866e-05 9.9999997473787516e-05
   vertex 0.00028852041577920318 -2.0241832316969521e-06 9.9999997473787516e-05
  endloop
 endfacet
 facet normal 0 0 1
  outer loop
   vertex 0.00012614710431080312 0.00015171234554145485 9.9999997473787516e-05
   vertex 0.0002201163733843714 0.00018591435218695551 9.9999997473787516e-05
   vertex 9.1945083113387227e-05 0.00024568161461502314 9.9999997473787516e-05
  endloop
 endfacet
 facet normal 0 0 1
  outer loop
   vertex 0.0002201163733843714 0.00018591435218695551 9.9999997473787516e-05
   vertex 0.00018591435218695551 0.0002798836212605238 9.9999997473787516e-05
   vertex 9.1945083113387227e-05 0.00024568161461502314 9.9999997473787516e-05
  endloop
 endfacet
 facet normal 0 0 -1
  outer loop
   vertex 0.00012614710431080312 0.00015171234554145485 0
   vertex 9.1945083113387227e-05 0.00024568161461502314 0
   vertex 0.0002201163733843714 0.00018591435218695551 0
  endloop
 endfacet
 facet normal 0 -0 -1
  outer loop
   vertex 9.1945083113387227e-05 0.00024568161461502314 0
   vertex 0.00018591435218695551 0.0002798836212605238 0
   vertex 0.0002201163733843714 0.00018591435218695551 0
  endloop
 endfacet
 facet normal -0.34202005296574367 0.9396926536742265 0
  outer loop
   vertex 9.1945083113387227e-05 0.00024568161461502314 0
   vertex 9.1945083113387227e-05 0.00024568161461502314 9.9999997473787516e-05
   vertex 0.00018591435218695551 0.0002798836212605238 0
  endloop
 endfacet
 facet normal -0.34202005296574367 0.9396926536742265 0
  outer loop
   vertex 9.1945083113387227e-05 0.00024568161461502314 9.9999997473787516e-05
   vertex 0.00018591435218695551 0.0002798836212605238 9.9999997473787516e-05
   vertex 0.00018591435218695551 0.0002798836212605238 0
  endloop
 endfacet
 facet normal 0.34202005296574367 -0.9396926536742265 0
  outer loop
   vertex 0.00012614710431080312 0.00015171234554145485 0
   vertex 0.0002201163733843714 0.00018591435218695551 0
   vertex 0.00012614710431080312 0.00015171234554145485 9.9999997473787516e-05
  endloop
 endfacet
 facet normal 0.34202005296574367 -0.9396926536742265 0
  outer loop
   vertex 0.0002201163733843714 0.00018591435218695551 0
   vertex 0.0002201163733843714 0.00018591435218695551 9.9999997473787516e-05
   vertex 0.00012614710431080312 0.00015171234554145485 9.9999997473787516e-05
  endloop
 endfacet
 facet normal 0 0 1
  outer loop
   vertex 0.00018591435218695551 0.0002798836212605238 9.9999997473787516e-05
   vertex 0.0002798836212605238 0.00031408565700985491 9.9999997473787516e-05
   vertex 0.00015171234554145485 0.00037385287578217685 9.9999997473787516e-05
  endloop
 endfacet
 facet normal 0 0 1
  outer loop
   vertex 0.0002798836212605238 0.00031408565700985491 9.9999997473787516e-05
   vertex 0.00024568161461502314 0.00040805491153150797 9.9999997473787516e-05
   vertex 0.00015171234554145485 0.00037385287578217685 9.9999997473787516e-05
  endloop
 endfacet
 facet normal 0 0 -1
  outer loop
   vertex 0.00018591435218695551 0.0002798836212605238 0
   vertex 0.00015171234554145485 0.00037385287578217685 0
   vertex 0.0002798836212605238 0.00031408565700985491 0
  endloop
 endfacet
 facet normal 0 -0 -1
  outer loop
   vertex 0.00015171234554145485 0.00037385287578217685 0
   vertex 0.00024568161461502314 0.00040805491153150797 0
   vertex 0.0002798836212605238 0.00031408565700985491 0
  endloop
 endfacet
 facet normal -0.93969263665172564 -0.34202009973469116 -0
  outer loop
   vertex 0.00018591435218695551 0.0002798836212605238 0
   vertex 0.00018591435218695551 0.0002798836212605238 9.9999997473787516e-05
   vertex 0.00015171234554145485 0.00037385287578217685 0
  endloop
 endfacet
 facet normal -0.93969263665172564 -0.34202009973469116 -0
  outer loop
   vertex 0.00018591435218695551 0.0002798836212605238 9.9999997473787516e-05
   vertex 0.00015171234554145485 0.00037385287578217685 9.9999997473787516e-05
   vertex 0.00015171234554145485 0.00037385287578217685 0
  endloop
 endfacet
 facet normal 0.93969263665172564 0.34202009973469116 0
  outer loop
   vertex 0.0002798836212605238 0.00031408565700985491 0
   vertex 0.00024568161461502314 0.00040805491153150797 0
   vertex 0.0002798836212605238 0.00031408565700985491 9.9999997473787516e-05
  endloop
 endfacet
 facet normal 0.93969263665172564 0.34202009973469116 0
  outer loop
   vertex 0.00024568161461502314 0.00040805491153150797 0
   vertex 0.00024568161461502314 0.00040805491153150797 9.9999997473787516e-05
   vertex 0.0002798836212605238 0.00031408565700985491 9.9999997473787516e-05
  endloop
 endfacet
 facet normal 0 0 1
  outer loop
   vertex 0.00031408565700985491 0.0002201163733843714 9.9999997473787516e-05
   vertex 0.00040805491153150797 0.00025431838002987206 9.9999997473787516e-05
   vertex 0.0002798836212605238 0.00031408565700985491 9.9999997473787516e-05
  endloop
 endfacet
 facet normal 0 0 1
  outer loop
   vertex 0.00040805491153150797 0.00025431838002987206 9.9999997473787516e-05
   vertex 0.00037385287578217685 0.00034828766365535557 9.9999997473787516e-05
   vertex 0.0002798836212605238 0.00031408565700985491 9.9999997473787516e-05
  endloop
 endfacet
 facet normal 0 0 -1
  outer loop
   vertex 0.00031408565700985491 0.0002201163733843714 0
   vertex 0.0002798836212605238 0.00031408565700985491 0
   vertex 0.00040805491153150797 0.00025431838002987206 0
  endloop
 endfacet
 facet normal 0 -0 -1
  outer loop
   vertex 0.0002798836212605238 0.00031408565700985491 0
   vertex 0.00037385287578217685 0.00034828766365535557 0
   vertex 0.00040805491153150797 0.00025431838002987206 0
  endloop
 endfacet
 facet normal -0.34202009973469116 0.93969263665172564 0
  outer loop
   vertex 0.0002798836212605238 0.00031408565700985491 0
   vertex 0.0002798836212605238 0.00031408565700985491 9.9999997473787516e-05
   vertex 0.00037385287578217685 0.00034828766365535557 0
  endloop
 endfacet
 facet normal -0.34202009973469116 0.93969263665172564 0
  outer loop
   vertex 0.0002798836212605238 0.00031408565700985491 9.9999997473787516e-05
   vertex 0.00037385287578217685 0.00034828766365535557 9.9999997473787516e-05
   vertex 0.00037385287578217685 0.00034828766365535557 0
  endloop
 endfacet
 facet normal 0.34202009973469116 -0.93969263665172564 0
  outer loop
   vertex 0.00031408565700985491 0.0002201163733843714 0
   vertex 0.00040805491153150797 0.00025431838002987206 0
   vertex 0.00031408565700985491 0.0002201163733843714 9.9999997473787516e-05
  endloop
 endfacet
 facet normal 0.34202009973469116 -0.93969263665172564 0
  outer loop
   vertex 0.00040805491153150797 0.00025431838002987206 0
   vertex 0.00040805491153150797 0.00025431838002987206 9.9999997473787516e-05
   vertex 0.00031408565700985491 0.0002201163733843714 9.9999997473787516e-05
  endloop
 endfacet
 facet normal 0 0 1
  outer loop
   vertex 0.00025431838002987206 9.1945083113387227e-05 9.9999997473787516e-05
   vertex 0.00034828766365535557 0.00012614710431080312 9.9999997473787516e-05
   vertex 0.0002201163733843714 0.00018591435218695551 9.9999997473787516e-05
  endloop
 endfacet
 facet normal 0 0 1
  outer loop
   vertex 0.00034828766365535557 0.00012614710431080312 9.9999997473787516e-05
   vertex 0.00031408565700985491 0.0002201163733843714 9.9999997473787516e-05
   vertex 0.0002201163733843714 0.00018591435218695551 9.9999997473787516e-05
  endloop
 endfacet
 facet normal 0 0 -1
  outer loop
   vertex 0.00025431838002987206 9.1945083113387227e-05 0
   vertex 0.0002201163733843714 0.00018591435218695551 0
   vertex 0.00034828766365535557 0.00012614710431080312 0
  endloop
 endfacet
 facet normal 0 -0 -1
  outer loop
   vertex 0.0002201163733843714 0.00018591435218695551 0
   vertex 0.00031408565700985491 0.0002201163733843714 0
   vertex 0.00034828766365535557 0.00012614710431080312 0
  endloop
 endfacet
 facet normal -0.9396926536742265 -0.34202005296574367 -0
  outer loop
   vertex 0.00025431838002987206 9.1945083113387227e-05 0
   vertex 0.00025431838002987206 9.1945083113387227e-05 9.9999997473787516e-05
   vertex 0.0002201163733843714 0.00018591435218695551 0
  endloop
 endfacet
 facet normal -0.9396926536742265 -0.34202005296574367 -0
  outer loop
   vertex 0.00025431838002987206 9.1945083113387227e-05 9.9999997473787516e-05
   vertex 0.0002201163733843714 0.00018591435218695551 9.9999997473787516e-05
   vertex 0.0002201163733843714 0.00018591435218695551 0
  endloop
 endfacet
 facet normal 0.9396926536742265 0.34202005296574367 0
  outer loop
   vertex 0.00034828766365535557 0.00012614710431080312 0
   vertex 0.00031408565700985491 0.0002201163733843714 0
   vertex 0.00034828766365535557 0.00012614710431080312 9.9999997473787516e-05
  endloop
 endfacet
 facet normal 0.9396926536742265 0.34202005296574367 0
  outer loop
   vertex 0.00031408565700985491 0.0002201163733843714 0
   vertex 0.00031408565700985491 0.0002201163733843714 9.9999997473787516e-05
   vertex 0.00034828766365535557 0.00012614710431080312 9.9999997473787516e-05
  endloop
 endfacet
endsolid
