solid Visualization Toolkit generated SLA File
 facet normal 0 0 1
  outer loop
   vertex 0.00025000001187436283 0.00017928931629285216 9.9999997473787516e-05
   vertex 0.00032071067835204303 0.00025000001187436283 9.9999997473787516e-05
   vertex 0.00017928931629285216 0.00025000001187436283 9.9999997473787516e-05
  endloop
 endfacet
 facet normal 0 0 1
  outer loop
   vertex 0.00032071067835204303 0.00025000001187436283 9.9999997473787516e-05
   vertex 0.00025000001187436283 0.00032071070745587349 9.9999997473787516e-05
   vertex 0.00017928931629285216 0.00025000001187436283 9.9999997473787516e-05
  endloop
 endfacet
 facet normal 0 0 -1
  outer loop
   vertex 0.00025000001187436283 0.00017928931629285216 0
   vertex 0.00017928931629285216 0.00025000001187436283 0
   vertex 0.00032071067835204303 0.00025000001187436283 0
  endloop
 endfacet
 facet normal 0 -0 -1
  outer loop
   vertex 0.00017928931629285216 0.00025000001187436283 0
   vertex 0.00025000001187436283 0.00032071070745587349 0
   vertex 0.00032071067835204303 0.00025000001187436283 0
  endloop
 endfacet
 facet normal 0 0 1
  outer loop
   vertex 0.00010857863526325673 3.7867957871640101e-05 9.9999997473787516e-05
   vertex 0.00017928931629285216 0.00010857863526325673 9.9999997473787516e-05
   vertex 3.7867943319724873e-05 0.00010857863526325673 9.9999997473787516e-05
  endloop
 endfacet
 facet normal 0 0 1
  outer loop
   vertex 0.00017928931629285216 0.00010857863526325673 9.9999997473787516e-05
   vertex 0.0001085786207113415 0.00017928933084476739 9.9999997473787516e-05
   vertex 3.7867943319724873e-05 0.00010857863526325673 9.9999997473787516e-05
  endloop
 endfacet
 facet normal 0 0 -1
  outer loop
   vertex 0.00010857863526325673 3.7867957871640101e-05 0
   vertex 3.7867943319724873e-05 0.00010857863526325673 0
   vertex 0.00017928931629285216 0.00010857863526325673 0
  endloop
 endfacet
 facet normal 0 -0 -1
  outer loop
   vertex 3.7867943319724873e-05 0.00010857863526325673 0
   vertex 0.0001085786207113415 0.00017928933084476739 0
   vertex 0.00017928931629285216 0.00010857863526325673 0
  endloop
 endfacet
 facet normal -0.70710670842697443 -0.70710685394611317 -0
  outer loop
   vertex 0.00010857863526325673 3.7867957871640101e-05 0
   vertex 0.00010857863526325673 3.7867957871640101e-05 9.9999997473787516e-05
   vertex 3.7867943319724873e-05 0.00010857863526325673 0
  endloop
 endfacet
 facet normal -0.70710670842697443 -0.70710685394611317 -0
  outer loop
   vertex 0.00010857863526325673 3.7867957871640101e-05 9.9999997473787516e-05
   vertex 3.7867943319724873e-05 0.00010857863526325673 9.9999997473787516e-05
   vertex 3.7867943319724873e-05 0.00010857863526325673 0
  endloop
 endfacet
 facet normal -0.7071068721360011 0.70710669023708217 0
  outer loop
   vertex 3.7867943319724873e-05 0.00010857863526325673 0
   vertex 3.7867943319724873e-05 0.00010857863526325673 9.9999997473787516e-05
   vertex 0.0001085786207113415 0.00017928933084476739 0
  endloop
 endfacet
 facet normal -0.7071068721360011 0.70710669023708217 0
  outer loop
   vertex 3.7867943319724873e-05 0.00010857863526325673 9.9999997473787516e-05
   vertex 0.0001085786207113415 0.00017928933084476739 9.9999997473787516e-05
   vertex 0.0001085786207113415 0.00017928933084476739 0
  endloop
 endfacet
 facet normal 0.70710676299665354 -0.70710679937644105 0
  outer loop
   vertex 0.00010857863526325673 3.7867957871640101e-05 0
   vertex 0.00017928931629285216 0.00010857863526325673 0
   vertex 0.00010857863526325673 3.7867957871640101e-05 9.9999997473787516e-05
  endloop
 endfacet
 facet normal 0.70710676299665354 -0.70710679937644105 0
  outer loop
   vertex 0.00017928931629285216 0.00010857863526325673 0
   vertex 0.00017928931629285216 0.00010857863526325673 9.9999997473787516e-05
   vertex 0.00010857863526325673 3.7867957871640101e-05 9.9999997473787516e-05
  endloop
 endfacet
 facet normal 0 0 1
  outer loop
   vertex 0.00010857863526325673 0.00032071067835204303 9.9999997473787516e-05
   vertex 0.00017928933084476739 0.0003914213739335537 9.9999997473787516e-05
   vertex 3.7867957871640101e-05 0.0003914213739335537 9.9999997473787516e-05
  endloop
 endfacet
 facet normal 0 0 1
  outer loop
   vertex 0.00017928933084476739 0.0003914213739335537 9.9999997473787516e-05
   vertex 0.00010857863526325673 0.00046213206951506436 9.9999997473787516e-05
   vertex 3.7867957871640101e-05 0.0003914213739335537 9.9999997473787516e-05
  endloop
 endfacet
 facet normal 0 0 -1
  outer loop
   vertex 0.00010857863526325673 0.00032071067835204303 0
   vertex 3.7867957871640101e-05 0.0003914213739335537 0
   vertex 0.00017928933084476739 0.0003914213739335537 0
  endloop
 endfacet
 facet normal 0 -0 -1
  outer loop
   vertex 3.7867957871640101e-05 0.0003914213739335537 0
   vertex 0.00010857863526325673 0.00046213206951506436 0
   vertex 0.00017928933084476739 0.0003914213739335537 0
  endloop
 endfacet
 facet normal -0.7071068721360011 -0.70710669023708217 -0
  outer loop
   vertex 0.00010857863526325673 0.00032071067835204303 0
   vertex 0.00010857863526325673 0.00032071067835204303 9.9999997473787516e-05
   vertex 3.7867957871640101e-05 0.0003914213739335537 0
  endloop
 endfacet
 facet normal -0.7071068721360011 -0.70710669023708217 -0
  outer loop
   vertex 0.00010857863526325673 0.00032071067835204303 9.9999997473787516e-05
   vertex 3.7867957871640101e-05 0.0003914213739335537 9.9999997473787516e-05
   vertex 3.7867957871640101e-05 0.0003914213739335537 0
  endloop
 endfacet
 facet normal -0.7071068721360011 0.70710669023708217 0
  outer loop
   vertex 3.7867957871640101e-05 0.0003914213739335537 0
   vertex 3.7867957871640101e-05 0.0003914213739335537 9.9999997473787516e-05
   vertex 0.00010857863526325673 0.00046213206951506436 0
  endloop
 endfacet
 facet normal -0.7071068721360011 0.70710669023708217 0
  outer loop
   vertex 3.7867957871640101e-05 0.0003914213739335537 9.9999997473787516e-05
   vertex 0.00010857863526325673 0.00046213206951506436 9.9999997473787516e-05
   vertex 0.00010857863526325673 0.00046213206951506436 0
  endloop
 endfacet
 facet normal 0.70710678118654757 0.70710678118654757 0
  outer loop
   vertex 0.00017928933084476739 0.0003914213739335537 0
   vertex 0.00010857863526325673 0.00046213206951506436 0
   vertex 0.00017928933084476739 0.0003914213739335537 9.9999997473787516e-05
  endloop
 endfacet
 facet normal 0.70710678118654757 0.70710678118654757 0
  outer loop
   vertex 0.00010857863526325673 0.00046213206951506436 0
   vertex 0.00010857863526325673 0.00046213206951506436 9.9999997473787516e-05
   vertex 0.00017928933084476739 0.0003914213739335537 9.9999997473787516e-05
  endloop
 endfacet
 facet normal 0 0 1
  outer loop
   vertex 0.0003914213739335537 0.00032071067835204303 9.9999997473787516e-05
   vertex 0.0004621320404112339 0.0003914213739335537 9.9999997473787516e-05
   vertex 0.00032071067835204303 0.0003914213739335537 9.9999997473787516e-05
  endloop
 endfacet
 facet normal 0 0 1
  outer loop
   vertex 0.0004621320404112339 0.0003914213739335537 9.9999997473787516e-05
   vertex 0.0003914213739335537 0.00046213206951506436 9.9999997473787516e-05
   vertex 0.00032071067835204303 0.0003914213739335537 9.9999997473787516e-05
  endloop
 endfacet
 facet normal 0 0 -1
  outer loop
   vertex 0.0003914213739335537 0.00032071067835204303 0
   vertex 0.00032071067835204303 0.0003914213739335537 0
   vertex 0.0004621320404112339 0.0003914213739335537 0
  endloop
 endfacet
 facet normal 0 -0 -1
  outer loop
   vertex 0.00032071067835204303 0.0003914213739335537 0
   vertex 0.0003914213739335537 0.00046213206951506436 0
   vertex 0.0004621320404112339 0.0003914213739335537 0
  endloop
 endfacet
 facet normal -0.70710678118654757 0.70710678118654757 0
  outer loop
   vertex 0.00032071067835204303 0.0003914213739335537 0
   vertex 0.00032071067835204303 0.0003914213739335537 9.9999997473787516e-05
   vertex 0.0003914213739335537 0.00046213206951506436 0
  endloop
 endfacet
 facet normal -0.70710678118654757 0.70710678118654757 0
  outer loop
   vertex 0.00032071067835204303 0.0003914213739335537 9.9999997473787516e-05
   vertex 0.0003914213739335537 0.00046213206951506436 9.9999997473787516e-05
   vertex 0.0003914213739335537 0.00046213206951506436 0
  endloop
 endfacet
 facet normal 0.70710692670567876 0.70710663566738619 0
  outer loop
   vertex 0.0004621320404112339 0.0003914213739335537 0
   vertex 0.0003914213739335537 0.00046213206951506436 0
   vertex 0.0004621320404112339 0.0003914213739335537 9.9999997473787516e-05
  endloop
 endfacet
 facet normal 0.70710692670567876 0.70710663566738619 0
  outer loop
   vertex 0.0003914213739335537 0.00046213206951506436 0
   vertex 0.0003914213739335537 0.00046213206951506436 9.9999997473787516e-05
   vertex 0.0004621320404112339 0.0003914213739335537 9.9999997473787516e-05
  endloop
 endfacet
 facet normal 0.70710692670567876 -0.70710663566738619 0
  outer loop
   vertex 0.0003914213739335537 0.00032071067835204303 0
   vertex 0.0004621320404112339 0.0003914213739335537 0
   vertex 0.0003914213739335537 0.00032071067835204303 9.9999997473787516e-05
  endloop
 endfacet
 facet normal 0.70710692670567876 -0.70710663566738619 0
  outer loop
   vertex 0.0004621320404112339 0.0003914213739335537 0
   vertex 0.0004621320404112339 0.0003914213739335537 9.9999997473787516e-05
   vertex 0.0003914213739335537 0.00032071067835204303 9.9999997473787516e-05
  endloop
 endfacet
 facet normal 0 0 1
  outer loop
   vertex 0.0003914213739335537 3.7867957871640101e-05 9.9999997473787516e-05
   vertex 0.00046213206951506436 0.00010857863526325673 9.9999997473787516e-05
   vertex 0.00032071067835204303 0.00010857863526325673 9.9999997473787516e-05
  endloop
 endfacet
 facet normal 0 0 1
  outer loop
   vertex 0.00046213206951506436 0.00010857863526325673 9.9999997473787516e-05
   vertex 0.0003914213739335537 0.00017928933084476739 9.9999997473787516e-05
   vertex 0.00032071067835204303 0.00010857863526325673 9.9999997473787516e-05
  endloop
 endfacet
 facet normal 0 0 -1
  outer loop
   vertex 0.0003914213739335537 3.7867957871640101e-05 0
   vertex 0.00032071067835204303 0.00010857863526325673 0
   vertex 0.00046213206951506436 0.00010857863526325673 0
  endloop
 endfacet
 facet normal 0 -0 -1
  outer loop
   vertex 0.00032071067835204303 0.00010857863526325673 0
   vertex 0.0003914213739335537 0.00017928933084476739 0
   vertex 0.00046213206951506436 0.00010857863526325673 0
  endloop
 endfacet
 facet normal -0.70710669023708217 -0.7071068721360011 -0
  outer loop
   vertex 0.0003914213739335537 3.7867957871640101e-05 0
   vertex 0.0003914213739335537 3.7867957871640101e-05 9.9999997473787516e-05
   vertex 0.00032071067835204303 0.00010857863526325673 0
  endloop
 endfacet
 facet normal -0.70710669023708217 -0.7071068721360011 -0
  outer loop
   vertex 0.0003914213739335537 3.7867957871640101e-05 9.9999997473787516e-05
   vertex 0.00032071067835204303 0.00010857863526325673 9.9999997473787516e-05
   vertex 0.00032071067835204303 0.00010857863526325673 0
  endloop
 endfacet
 facet normal 0.70710678118654757 0.70710678118654757 0
  outer loop
   vertex 0.00046213206951506436 0.00010857863526325673 0
   vertex 0.0003914213739335537 0.00017928933084476739 0
   vertex 0.00046213206951506436 0.00010857863526325673 9.9999997473787516e-05
  endloop
 endfacet
 facet normal 0.70710678118654757 0.70710678118654757 0
  outer loop
   vertex 0.0003914213739335537 0.00017928933084476739 0
   vertex 0.0003914213739335537 0.00017928933084476739 9.9999997473787516e-05
   vertex 0.00046213206951506436 0.00010857863526325673 9.9999997473787516e-05
  endloop
 endfacet
 facet normal 0.70710669023708217 -0.7071068721360011 0
  outer loop
   vertex 0.0003914213739335537 3.7867957871640101e-05 0
   vertex 0.00046213206951506436 0.00010857863526325673 0
   vertex 0.0003914213739335537 3.7867957871640101e-05 9.9999997473787516e-05
  endloop
 endfacet
 facet normal 0.70710669023708217 -0.7071068721360011 0
  outer loop
   vertex 0.00046213206951506436 0.00010857863526325673 0
   vertex 0.00046213206951506436 0.00010857863526325673 9.9999997473787516e-05
   vertex 0.0003914213739335537 3.7867957871640101e-05 9.9999997473787516e-05
  endloop
 endfacet
 facet normal 0 0 1
  outer loop
   vertex 0.00017928931629285216 0.00010857863526325673 9.9999997473787516e-05
   vertex 0.00025000001187436283 0.00017928931629285216 9.9999997473787516e-05
   vertex 0.0001085786207113415 0.00017928933084476739 9.9999997473787516e-05
  endloop
 endfacet
 facet normal 0 0 1
  outer loop
   vertex 0.00025000001187436283 0.00017928931629285216 9.9999997473787516e-05
   vertex 0.00017928931629285216 0.00025000001187436283 9.9999997473787516e-05
   vertex 0.0001085786207113415 0.00017928933084476739 9.9999997473787516e-05
  endloop
 endfacet
 facet normal 0 0 -1
  outer loop
   vertex 0.00017928931629285216 0.00010857863526325673 0
   vertex 0.0001085786207113415 0.00017928933084476739 0
   vertex 0.00025000001187436283 0.00017928931629285216 0
  endloop
 endfacet
 facet normal 0 -0 -1
  outer loop
   vertex 0.0001085786207113415 0.00017928933084476739 0
   vertex 0.00017928931629285216 0.00025000001187436283 0
   vertex 0.00025000001187436283 0.00017928931629285216 0
  endloop
 endfacet
 facet normal -0.70710670842697809 0.70710685394610939 0
  outer loop
   vertex 0.0001085786207113415 0.00017928933084476739 0
   vertex 0.0001085786207113415 0.00017928933084476739 9.9999997473787516e-05
   vertex 0.00017928931629285216 0.00025000001187436283 0
  endloop
 endfacet
 facet normal -0.70710670842697809 0.70710685394610939 0
  outer loop
   vertex 0.0001085786207113415 0.00017928933084476739 9.9999997473787516e-05
   vertex 0.00017928931629285216 0.00025000001187436283 9.9999997473787516e-05
   vertex 0.00017928931629285216 0.00025000001187436283 0
  endloop
 endfacet
 facet normal 0.70710670842697809 -0.70710685394610939 0
  outer loop
   vertex 0.00017928931629285216 0.00010857863526325673 0
   vertex 0.00025000001187436283 0.00017928931629285216 0
   vertex 0.00017928931629285216 0.00010857863526325673 9.9999997473787516e-05
  endloop
 endfacet
 facet normal 0.70710670842697809 -0.70710685394610939 0
  outer loop
   vertex 0.00025000001187436283 0.00017928931629285216 0
   vertex 0.00025000001187436283 0.00017928931629285216 9.9999997473787516e-05
   vertex 0.00017928931629285216 0.00010857863526325673 9.9999997473787516e-05
  endloop
 endfacet
 facet normal 0 0 1
  outer loop
   vertex 0.00017928931629285216 0.00025000001187436283 9.9999997473787516e-05
   vertex 0.00025000001187436283 0.00032071070745587349 9.9999997473787516e-05
   vertex 0.00010857863526325673 0.00032071067835204303 9.9999997473787516e-05
  endloop
 endfacet
 facet normal 0 0 1
  outer loop
   vertex 0.00025000001187436283 0.00032071070745587349 9.9999997473787516e-05
   vertex 0.00017928933084476739 0.0003914213739335537 9.9999997473787516e-05
   vertex 0.00010857863526325673 0.00032071067835204303 9.9999997473787516e-05
  endloop
 endfacet
 facet normal 0 0 -1
  outer loop
   vertex 0.00017928931629285216 0.00025000001187436283 0
   vertex 0.00010857863526325673 0.00032071067835204303 0
   vertex 0.00025000001187436283 0.00032071070745587349 0
  endloop
 endfacet
 facet normal 0 -0 -1
  outer loop
   vertex 0.00010857863526325673 0.00032071067835204303 0
   vertex 0.00017928933084476739 0.0003914213739335537 0
   vertex 0.00025000001187436283 0.00032071070745587349 0
  endloop
 endfacet
 facet normal -0.7071067084269631 -0.70710685394612438 -0
  outer loop
   vertex 0.00017928931629285216 0.00025000001187436283 0
   vertex 0.00017928931629285216 0.00025000001187436283 9.9999997473787516e-05
   vertex 0.00010857863526325673 0.00032071067835204303 0
  endloop
 endfacet
 facet normal -0.7071067084269631 -0.70710685394612438 -0
  outer loop
   vertex 0.00017928931629285216 0.00025000001187436283 9.9999997473787516e-05
   vertex 0.00010857863526325673 0.00032071067835204303 9.9999997473787516e-05
   vertex 0.00010857863526325673 0.00032071067835204303 0
  endloop
 endfacet
 facet normal 0.7071067084269631 0.70710685394612438 0
  outer loop
   vertex 0.00025000001187436283 0.00032071070745587349 0
   vertex 0.00017928933084476739 0.0003914213739335537 0
   vertex 0.00025000001187436283 0.00032071070745587349 9.9999997473787516e-05
  endloop
 endfacet
 facet normal 0.7071067084269631 0.70710685394612438 0
  outer loop
   vertex 0.00017928933084476739 0.0003914213739335537 0
   vertex 0.00017928933084476739 0.0003914213739335537 9.9999997473787516e-05
   vertex 0.00025000001187436283 0.00032071070745587349 9.9999997473787516e-05
  endloop
 endfacet
 facet normal 0 0 1
  outer loop
   vertex 0.00032071067835204303 0.00025000001187436283 9.9999997473787516e-05
   vertex 0.0003914213739335537 0.00032071067835204303 9.9999997473787516e-05
   vertex 0.00025000001187436283 0.00032071070745587349 9.9999997473787516e-05
  endloop
 endfacet
 facet normal 0 0 1
  outer loop
   vertex 0.0003914213739335537 0.00032071067835204303 9.9999997473787516e-05
   vertex 0.00032071067835204303 0.0003914213739335537 9.9999997473787516e-05
   vertex 0.00025000001187436283 0.00032071070745587349 9.9999997473787516e-05
  endloop
 endfacet
 facet normal 0 0 -1
  outer loop
   vertex 0.00032071067835204303 0.00025000001187436283 0
   vertex 0.00025000001187436283 0.00032071070745587349 0
   vertex 0.0003914213739335537 0.00032071067835204303 0
  endloop
 endfacet
 facet normal 0 -0 -1
  outer loop
   vertex 0.00025000001187436283 0.00032071070745587349 0
   vertex 0.00032071067835204303 0.0003914213739335537 0
   vertex 0.0003914213739335537 0.00032071067835204303 0
  endloop
 endfacet
 facet normal -0.70710678118654757 0.70710678118654757 0
  outer loop
   vertex 0.00025000001187436283 0.00032071070745587349 0
   vertex 0.00025000001187436283 0.00032071070745587349 9.9999997473787516e-05
   vertex 0.00032071067835204303 0.0003914213739335537 0
  endloop
 endfacet
 facet normal -0.70710678118654757 0.70710678118654757 0
  outer loop
   vertex 0.00025000001187436283 0.00032071070745587349 9.9999997473787516e-05
   vertex 0.00032071067835204303 0.0003914213739335537 9.9999997473787516e-05
   vertex 0.00032071067835204303 0.0003914213739335537 0
  endloop
 endfacet
 facet normal 0.70710663566738619 -0.70710692670567876 0
  outer loop
   vertex 0.00032071067835204303 0.00025000001187436283 0
   vertex 0.0003914213739335537 0.00032071067835204303 0
   vertex 0.00032071067835204303 0.00025000001187436283 9.9999997473787516e-05
  endloop
 endfacet
 facet normal 0.70710663566738619 -0.70710692670567876 0
  outer loop
   vertex 0.0003914213739335537 0.00032071067835204303 0
   vertex 0.0003914213739335537 0.00032071067835204303 9.9999997473787516e-05
   vertex 0.00032071067835204303 0.00025000001187436283 9.9999997473787516e-05
  endloop
 endfacet
 facet normal 0 0 1
  outer loop
   vertex 0.00032071067835204303 0.00010857863526325673 9.9999997473787516e-05
   vertex 0.0003914213739335537 0.00017928933084476739 9.9999997473787516e-05
   vertex 0.00025000001187436283 0.00017928931629285216 9.9999997473787516e-05
  endloop
 endfacet
 facet normal 0 0 1
  outer loop
   vertex 0.0003914213739335537 0.00017928933084476739 9.9999997473787516e-05
   vertex 0.00032071067835204303 0.00025000001187436283 9.9999997473787516e-05
   vertex 0.00025000001187436283 0.00017928931629285216 9.9999997473787516e-05
  endloop
 endfacet
 facet normal 0 0 -1
  outer loop
   vertex 0.00032071067835204303 0.00010857863526325673 0
   vertex 0.00025000001187436283 0.00017928931629285216 0
   vertex 0.0003914213739335537 0.00017928933084476739 0
  endloop
 endfacet
 facet normal 0 -0 -1
  outer loop
   vertex 0.00025000001187436283 0.00017928931629285216 0
   vertex 0.00032071067835204303 0.00025000001187436283 0
   vertex 0.0003914213739335537 0.00017928933084476739 0
  endloop
 endfacet
 facet normal -0.70710685394612438 -0.7071067084269631 -0
  outer loop
   vertex 0.00032071067835204303 0.00010857863526325673 0
   vertex 0.00032071067835204303 0.00010857863526325673 9.9999997473787516e-05
   vertex 0.00025000001187436283 0.00017928931629285216 0
  endloop
 endfacet
 facet normal -0.70710685394612438 -0.7071067084269631 -0
  outer loop
   vertex 0.00032071067835204303 0.00010857863526325673 9.9999997473787516e-05
   vertex 0.00025000001187436283 0.00017928931629285216 9.9999997473787516e-05
   vertex 0.00025000001187436283 0.00017928931629285216 0
  endloop
 endfacet
 facet normal 0.70710670842697809 0.70710685394610939 0
  outer loop
   vertex 0.0003914213739335537 0.00017928933084476739 0
   vertex 0.00032071067835204303 0.00025000001187436283 0
   vertex 0.0003914213739335537 0.00017928933084476739 9.9999997473787516e-05
  endloop
 endfacet
 facet normal 0.70710670842697809 0.70710685394610939 0
  outer loop
   vertex 0.00032071067835204303 0.00025000001187436283 0
   vertex 0.00032071067835204303 0.00025000001187436283 9.9999997473787516e-05
   vertex 0.0003914213739335537 0.00017928933084476739 9.9999997473787516e-05
  endloop
 endfacet
endsolid
