solid Visualization Toolkit generated SLA File
 facet normal 0 0 1
  outer loop
   vertex 0.00023169872292783111 0.00018169872055295855 9.9999997473787516e-05
   vertex 0.00031830128864385188 0.00023169873747974634 9.9999997473787516e-05
   vertex 0.00018169872055295855 0.00026830128626897931 9.9999997473787516e-05
  endloop
 endfacet
 facet normal 0 0 1
  outer loop
   vertex 0.00031830128864385188 0.00023169873747974634 9.9999997473787516e-05
   vertex 0.00026830128626897931 0.00031830128864385188 9.9999997473787516e-05
   vertex 0.00018169872055295855 0.00026830128626897931 9.9999997473787516e-05
  endloop
 endfacet
 facet normal 0 0 -1
  outer loop
   vertex 0.00023169872292783111 0.00018169872055295855 0
   vertex 0.00018169872055295855 0.00026830128626897931 0
   vertex 0.00031830128864385188 0.00023169873747974634 0
  endloop
 endfacet
 facet normal 0 -0 -1
  outer loop
   vertex 0.00018169872055295855 0.00026830128626897931 0
   vertex 0.00026830128626897931 0.00031830128864385188 0
   vertex 0.00031830128864385188 0.00023169873747974634 0
  endloop
 endfacet
 facet normal 0 0 1
  outer loop
   vertex 5.849363878951408e-05 8.1698715803213418e-05 9.9999997473787516e-05
   vertex 0.00014509618631564081 0.00013169871817808598 9.9999997473787516e-05
   vertex 8.4936355051468126e-06 0.00016830128151923418 9.9999997473787516e-05
  endloop
 endfacet
 facet normal 0 0 1
  outer loop
   vertex 0.00014509618631564081 0.00013169871817808598 9.9999997473787516e-05
   vertex 9.5096169388853014e-05 0.00021830128389410675 9.9999997473787516e-05
   vertex 8.4936355051468126e-06 0.00016830128151923418 9.9999997473787516e-05
  endloop
 endfacet
 facet normal 0 0 -1
  outer loop
   vertex 5.849363878951408e-05 8.1698715803213418e-05 0
   vertex 8.4936355051468126e-06 0.00016830128151923418 0
   vertex 0.00014509618631564081 0.00013169871817808598 0
  endloop
 endfacet
 facet normal 0 -0 -1
  outer loop
   vertex 8.4936355051468126e-06 0.00016830128151923418 0
   vertex 9.5096169388853014e-05 0.00021830128389410675 0
   vertex 0.00014509618631564081 0.00013169871817808598 0
  endloop
 endfacet
 facet normal -0.86602545290663768 -0.49999991491784584 -0
  outer loop
   vertex 5.849363878951408e-05 8.1698715803213418e-05 0
   vertex 5.849363878951408e-05 8.1698715803213418e-05 9.9999997473787516e-05
   vertex 8.4936355051468126e-06 0.00016830128151923418 0
  endloop
 endfacet
 facet normal -0.86602545290663768 -0.49999991491784584 -0
  outer loop
   vertex 5.849363878951408e-05 8.1698715803213418e-05 9.9999997473787516e-05
   vertex 8.4936355051468126e-06 0.00016830128151923418 9.9999997473787516e-05
   vertex 8.4936355051468126e-06 0.00016830128151923418 0
  endloop
 endfacet
 facet normal -0.50000004593458458 0.86602537726409223 0
  outer loop
   vertex 8.4936355051468126e-06 0.00016830128151923418 0
   vertex 8.4936355051468126e-06 0.00016830128151923418 9.9999997473787516e-05
   vertex 9.5096169388853014e-05 0.00021830128389410675 0
  endloop
 endfacet
 facet normal -0.50000004593458458 0.86602537726409223 0
  outer loop
   vertex 8.4936355051468126e-06 0.00016830128151923418 9.9999997473787516e-05
   vertex 9.5096169388853014e-05 0.00021830128389410675 9.9999997473787516e-05
   vertex 9.5096169388853014e-05 0.00021830128389410675 0
  endloop
 endfacet
 facet normal 0.49999998686117042 -0.86602541137014521 0
  outer loop
   vertex 5.849363878951408e-05 8.1698715803213418e-05 0
   vertex 0.00014509618631564081 0.00013169871817808598 0
   vertex 5.849363878951408e-05 8.1698715803213418e-05 9.9999997473787516e-05
  endloop
 endfacet
 facet normal 0.49999998686117042 -0.86602541137014521 0
  outer loop
   vertex 0.00014509618631564081 0.00013169871817808598 0
   vertex 0.00014509618631564081 0.00013169871817808598 9.9999997473787516e-05
   vertex 5.849363878951408e-05 8.1698715803213418e-05 9.9999997473787516e-05
  endloop
 endfacet
 facet normal 0 0 1
  outer loop
   vertex 0.00013169873273000121 0.00035490380832925439 9.9999997473787516e-05
   vertex 0.00021830128389410675 0.00040490381070412695 9.9999997473787516e-05
   vertex 8.1698715803213418e-05 0.00044150635949335992 9.9999997473787516e-05
  endloop
 endfacet
 facet normal 0 0 1
  outer loop
   vertex 0.00021830128389410675 0.00040490381070412695 9.9999997473787516e-05
   vertex 0.00016830128151923418 0.00049150636186823249 9.9999997473787516e-05
   vertex 8.1698715803213418e-05 0.00044150635949335992 9.9999997473787516e-05
  endloop
 endfacet
 facet normal 0 0 -1
  outer loop
   vertex 0.00013169873273000121 0.00035490380832925439 0
   vertex 8.1698715803213418e-05 0.00044150635949335992 0
   vertex 0.00021830128389410675 0.00040490381070412695 0
  endloop
 endfacet
 facet normal 0 -0 -1
  outer loop
   vertex 8.1698715803213418e-05 0.00044150635949335992 0
   vertex 0.00016830128151923418 0.00049150636186823249 0
   vertex 0.00021830128389410675 0.00040490381070412695 0
  endloop
 endfacet
 facet normal -0.86602535745345621 -0.500000080247607 -0
  outer loop
   vertex 0.00013169873273000121 0.00035490380832925439 0
   vertex 0.00013169873273000121 0.00035490380832925439 9.9999997473787516e-05
   vertex 8.1698715803213418e-05 0.00044150635949335992 0
  endloop
 endfacet
 facet normal -0.86602535745345621 -0.500000080247607 -0
  outer loop
   vertex 0.00013169873273000121 0.00035490380832925439 9.9999997473787516e-05
   vertex 8.1698715803213418e-05 0.00044150635949335992 9.9999997473787516e-05
   vertex 8.1698715803213418e-05 0.00044150635949335992 0
  endloop
 endfacet
 facet normal -0.49999990809663636 0.86602545684486387 0
  outer loop
   vertex 8.1698715803213418e-05 0.00044150635949335992 0
   vertex 8.1698715803213418e-05 0.00044150635949335992 9.9999997473787516e-05
   vertex 0.00016830128151923418 0.00049150636186823249 0
  endloop
 endfacet
 facet normal -0.49999990809663636 0.86602545684486387 0
  outer loop
   vertex 8.1698715803213418e-05 0.00044150635949335992 9.9999997473787516e-05
   vertex 0.00016830128151923418 0.00049150636186823249 9.9999997473787516e-05
   vertex 0.00016830128151923418 0.00049150636186823249 0
  endloop
 endfacet
 facet normal 0.86602542046509079 0.49999997110826205 0
  outer loop
   vertex 0.00021830128389410675 0.00040490381070412695 0
   vertex 0.00016830128151923418 0.00049150636186823249 0
   vertex 0.00021830128389410675 0.00040490381070412695 9.9999997473787516e-05
  endloop
 endfacet
 facet normal 0.86602542046509079 0.49999997110826205 0
  outer loop
   vertex 0.00016830128151923418 0.00049150636186823249 0
   vertex 0.00016830128151923418 0.00049150636186823249 9.9999997473787516e-05
   vertex 0.00021830128389410675 0.00040490381070412695 9.9999997473787516e-05
  endloop
 endfacet
 facet normal 0 0 1
  outer loop
   vertex 0.00040490381070412695 0.00028169871075078845 9.9999997473787516e-05
   vertex 0.00049150636186823249 0.00033169874222949147 9.9999997473787516e-05
   vertex 0.00035490380832925439 0.00036830129101872444 9.9999997473787516e-05
  endloop
 endfacet
 facet normal 0 0 1
  outer loop
   vertex 0.00049150636186823249 0.00033169874222949147 9.9999997473787516e-05
   vertex 0.00044150635949335992 0.00041830129339359701 9.9999997473787516e-05
   vertex 0.00035490380832925439 0.00036830129101872444 9.9999997473787516e-05
  endloop
 endfacet
 facet normal 0 0 -1
  outer loop
   vertex 0.00040490381070412695 0.00028169871075078845 0
   vertex 0.00035490380832925439 0.00036830129101872444 0
   vertex 0.00049150636186823249 0.00033169874222949147 0
  endloop
 endfacet
 facet normal 0 -0 -1
  outer loop
   vertex 0.00035490380832925439 0.00036830129101872444 0
   vertex 0.00044150635949335992 0.00041830129339359701 0
   vertex 0.00049150636186823249 0.00033169874222949147 0
  endloop
 endfacet
 facet normal -0.49999997110826205 0.86602542046509079 0
  outer loop
   vertex 0.00035490380832925439 0.00036830129101872444 0
   vertex 0.00035490380832925439 0.00036830129101872444 9.9999997473787516e-05
   vertex 0.00044150635949335992 0.00041830129339359701 0
  endloop
 endfacet
 facet normal -0.49999997110826205 0.86602542046509079 0
  outer loop
   vertex 0.00035490380832925439 0.00036830129101872444 9.9999997473787516e-05
   vertex 0.00044150635949335992 0.00041830129339359701 9.9999997473787516e-05
   vertex 0.00044150635949335992 0.00041830129339359701 0
  endloop
 endfacet
 facet normal 0.86602542046509079 0.49999997110826205 0
  outer loop
   vertex 0.00049150636186823249 0.00033169874222949147 0
   vertex 0.00044150635949335992 0.00041830129339359701 0
   vertex 0.00049150636186823249 0.00033169874222949147 9.9999997473787516e-05
  endloop
 endfacet
 facet normal 0.86602542046509079 0.49999997110826205 0
  outer loop
   vertex 0.00044150635949335992 0.00041830129339359701 0
   vertex 0.00044150635949335992 0.00041830129339359701 9.9999997473787516e-05
   vertex 0.00049150636186823249 0.00033169874222949147 9.9999997473787516e-05
  endloop
 endfacet
 facet normal 0.50000018938692814 -0.86602529444181697 0
  outer loop
   vertex 0.00040490381070412695 0.00028169871075078845 0
   vertex 0.00049150636186823249 0.00033169874222949147 0
   vertex 0.00040490381070412695 0.00028169871075078845 9.9999997473787516e-05
  endloop
 endfacet
 facet normal 0.50000018938692814 -0.86602529444181697 0
  outer loop
   vertex 0.00049150636186823249 0.00033169874222949147 0
   vertex 0.00049150636186823249 0.00033169874222949147 9.9999997473787516e-05
   vertex 0.00040490381070412695 0.00028169871075078845 9.9999997473787516e-05
  endloop
 endfacet
 facet normal 0 0 1
  outer loop
   vertex 0.00033169874222949147 8.4936355051468126e-06 9.9999997473787516e-05
   vertex 0.00041830129339359701 5.8493653341429308e-05 9.9999997473787516e-05
   vertex 0.00028169873985461891 9.5096183940768242e-05 9.9999997473787516e-05
  endloop
 endfacet
 facet normal 0 0 1
  outer loop
   vertex 0.00041830129339359701 5.8493653341429308e-05 9.9999997473787516e-05
   vertex 0.00036830129101872444 0.00014509618631564081 9.9999997473787516e-05
   vertex 0.00028169873985461891 9.5096183940768242e-05 9.9999997473787516e-05
  endloop
 endfacet
 facet normal 0 0 -1
  outer loop
   vertex 0.00033169874222949147 8.4936355051468126e-06 0
   vertex 0.00028169873985461891 9.5096183940768242e-05 0
   vertex 0.00041830129339359701 5.8493653341429308e-05 0
  endloop
 endfacet
 facet normal 0 -0 -1
  outer loop
   vertex 0.00028169873985461891 9.5096183940768242e-05 0
   vertex 0.00036830129101872444 0.00014509618631564081 0
   vertex 0.00041830129339359701 5.8493653341429308e-05 0
  endloop
 endfacet
 facet normal -0.86602541364388164 -0.49999998292294323 -0
  outer loop
   vertex 0.00033169874222949147 8.4936355051468126e-06 0
   vertex 0.00033169874222949147 8.4936355051468126e-06 9.9999997473787516e-05
   vertex 0.00028169873985461891 9.5096183940768242e-05 0
  endloop
 endfacet
 facet normal -0.86602541364388164 -0.49999998292294323 -0
  outer loop
   vertex 0.00033169874222949147 8.4936355051468126e-06 9.9999997473787516e-05
   vertex 0.00028169873985461891 9.5096183940768242e-05 9.9999997473787516e-05
   vertex 0.00028169873985461891 9.5096183940768242e-05 0
  endloop
 endfacet
 facet normal 0.86602537499035492 0.50000004987281266 0
  outer loop
   vertex 0.00041830129339359701 5.8493653341429308e-05 0
   vertex 0.00036830129101872444 0.00014509618631564081 0
   vertex 0.00041830129339359701 5.8493653341429308e-05 9.9999997473787516e-05
  endloop
 endfacet
 facet normal 0.86602537499035492 0.50000004987281266 0
  outer loop
   vertex 0.00036830129101872444 0.00014509618631564081 0
   vertex 0.00036830129101872444 0.00014509618631564081 9.9999997473787516e-05
   vertex 0.00041830129339359701 5.8493653341429308e-05 9.9999997473787516e-05
  endloop
 endfacet
 facet normal 0.50000008706881527 -0.8660253535152288 0
  outer loop
   vertex 0.00033169874222949147 8.4936355051468126e-06 0
   vertex 0.00041830129339359701 5.8493653341429308e-05 0
   vertex 0.00033169874222949147 8.4936355051468126e-06 9.9999997473787516e-05
  endloop
 endfacet
 facet normal 0.50000008706881527 -0.8660253535152288 0
  outer loop
   vertex 0.00041830129339359701 5.8493653341429308e-05 0
   vertex 0.00041830129339359701 5.8493653341429308e-05 9.9999997473787516e-05
   vertex 0.00033169874222949147 8.4936355051468126e-06 9.9999997473787516e-05
  endloop
 endfacet
 facet normal 0 0 1
  outer loop
   vertex 0.00014509618631564081 0.00013169871817808598 9.9999997473787516e-05
   vertex 0.00023169872292783111 0.00018169872055295855 9.9999997473787516e-05
   vertex 9.5096169388853014e-05 0.00021830128389410675 9.9999997473787516e-05
  endloop
 endfacet
 facet normal 0 0 1
  outer loop
   vertex 0.00023169872292783111 0.00018169872055295855 9.9999997473787516e-05
   vertex 0.00018169872055295855 0.00026830128626897931 9.9999997473787516e-05
   vertex 9.5096169388853014e-05 0.00021830128389410675 9.9999997473787516e-05
  endloop
 endfacet
 facet normal 0 0 -1
  outer loop
   vertex 0.00014509618631564081 0.00013169871817808598 0
   vertex 9.5096169388853014e-05 0.00021830128389410675 0
   vertex 0.00023169872292783111 0.00018169872055295855 0
  endloop
 endfacet
 facet normal 0 -0 -1
  outer loop
   vertex 9.5096169388853014e-05 0.00021830128389410675 0
   vertex 0.00018169872055295855 0.00026830128626897931 0
   vertex 0.00023169872292783111 0.00018169872055295855 0
  endloop
 endfacet
 facet normal -0.49999997110826205 0.86602542046509079 0
  outer loop
   vertex 9.5096169388853014e-05 0.00021830128389410675 0
   vertex 9.5096169388853014e-05 0.00021830128389410675 9.9999997473787516e-05
   vertex 0.00018169872055295855 0.00026830128626897931 0
  endloop
 endfacet
 facet normal -0.49999997110826205 0.86602542046509079 0
  outer loop
   vertex 9.5096169388853014e-05 0.00021830128389410675 9.9999997473787516e-05
   vertex 0.00018169872055295855 0.00026830128626897931 9.9999997473787516e-05
   vertex 0.00018169872055295855 0.00026830128626897931 0
  endloop
 endfacet
 facet normal 0.50000003411990079 -0.86602538408530383 0
  outer loop
   vertex 0.00014509618631564081 0.00013169871817808598 0
   vertex 0.00023169872292783111 0.00018169872055295855 0
   vertex 0.00014509618631564081 0.00013169871817808598 9.9999997473787516e-05
  endloop
 endfacet
 facet normal 0.50000003411990079 -0.86602538408530383 0
  outer loop
   vertex 0.00023169872292783111 0.00018169872055295855 0
   vertex 0.00023169872292783111 0.00018169872055295855 9.9999997473787516e-05
   vertex 0.00014509618631564081 0.00013169871817808598 9.9999997473787516e-05
  endloop
 endfacet
 facet normal 0 0 1
  outer loop
   vertex 0.00018169872055295855 0.00026830128626897931 9.9999997473787516e-05
   vertex 0.00026830128626897931 0.00031830128864385188 9.9999997473787516e-05
   vertex 0.00013169873273000121 0.00035490380832925439 9.9999997473787516e-05
  endloop
 endfacet
 facet normal 0 0 1
  outer loop
   vertex 0.00026830128626897931 0.00031830128864385188 9.9999997473787516e-05
   vertex 0.00021830128389410675 0.00040490381070412695 9.9999997473787516e-05
   vertex 0.00013169873273000121 0.00035490380832925439 9.9999997473787516e-05
  endloop
 endfacet
 facet normal 0 0 -1
  outer loop
   vertex 0.00018169872055295855 0.00026830128626897931 0
   vertex 0.00013169873273000121 0.00035490380832925439 0
   vertex 0.00026830128626897931 0.00031830128864385188 0
  endloop
 endfacet
 facet normal 0 -0 -1
  outer loop
   vertex 0.00013169873273000121 0.00035490380832925439 0
   vertex 0.00021830128389410675 0.00040490381070412695 0
   vertex 0.00026830128626897931 0.00031830128864385188 0
  endloop
 endfacet
 facet normal -0.86602541071715955 -0.49999998799217493 -0
  outer loop
   vertex 0.00018169872055295855 0.00026830128626897931 0
   vertex 0.00018169872055295855 0.00026830128626897931 9.9999997473787516e-05
   vertex 0.00013169873273000121 0.00035490380832925439 0
  endloop
 endfacet
 facet normal -0.86602541071715955 -0.49999998799217493 -0
  outer loop
   vertex 0.00018169872055295855 0.00026830128626897931 9.9999997473787516e-05
   vertex 0.00013169873273000121 0.00035490380832925439 9.9999997473787516e-05
   vertex 0.00013169873273000121 0.00035490380832925439 0
  endloop
 endfacet
 facet normal 0.86602534770550321 0.50000009713155302 0
  outer loop
   vertex 0.00026830128626897931 0.00031830128864385188 0
   vertex 0.00021830128389410675 0.00040490381070412695 0
   vertex 0.00026830128626897931 0.00031830128864385188 9.9999997473787516e-05
  endloop
 endfacet
 facet normal 0.86602534770550321 0.50000009713155302 0
  outer loop
   vertex 0.00021830128389410675 0.00040490381070412695 0
   vertex 0.00021830128389410675 0.00040490381070412695 9.9999997473787516e-05
   vertex 0.00026830128626897931 0.00031830128864385188 9.9999997473787516e-05
  endloop
 endfacet
 facet normal 0 0 1
  outer loop
   vertex 0.00031830128864385188 0.00023169873747974634 9.9999997473787516e-05
   vertex 0.00040490381070412695 0.00028169871075078845 9.9999997473787516e-05
   vertex 0.00026830128626897931 0.00031830128864385188 9.9999997473787516e-05
  endloop
 endfacet
 facet normal 0 0 1
  outer loop
   vertex 0.00040490381070412695 0.00028169871075078845 9.9999997473787516e-05
   vertex 0.00035490380832925439 0.00036830129101872444 9.9999997473787516e-05
   vertex 0.00026830128626897931 0.00031830128864385188 9.9999997473787516e-05
  endloop
 endfacet
 facet normal 0 0 -1
  outer loop
   vertex 0.00031830128864385188 0.00023169873747974634 0
   vertex 0.00026830128626897931 0.00031830128864385188 0
   vertex 0.00040490381070412695 0.00028169871075078845 0
  endloop
 endfacet
 facet normal 0 -0 -1
  outer loop
   vertex 0.00026830128626897931 0.00031830128864385188 0
   vertex 0.00035490380832925439 0.00036830129101872444 0
   vertex 0.00040490381070412695 0.00028169871075078845 0
  endloop
 endfacet
 facet normal -0.50000009713155302 0.86602534770550321 0
  outer loop
   vertex 0.00026830128626897931 0.00031830128864385188 0
   vertex 0.00026830128626897931 0.00031830128864385188 9.9999997473787516e-05
   vertex 0.00035490380832925439 0.00036830129101872444 0
  endloop
 endfacet
 facet normal -0.50000009713155302 0.86602534770550321 0
  outer loop
   vertex 0.00026830128626897931 0.00031830128864385188 9.9999997473787516e-05
   vertex 0.00035490380832925439 0.00036830129101872444 9.9999997473787516e-05
   vertex 0.00035490380832925439 0.00036830129101872444 0
  endloop
 endfacet
 facet normal 0.49999987885277314 -0.86602547372881145 0
  outer loop
   vertex 0.00031830128864385188 0.00023169873747974634 0
   vertex 0.00040490381070412695 0.00028169871075078845 0
   vertex 0.00031830128864385188 0.00023169873747974634 9.9999997473787516e-05
  endloop
 endfacet
 facet normal 0.49999987885277314 -0.86602547372881145 0
  outer loop
   vertex 0.00040490381070412695 0.00028169871075078845 0
   vertex 0.00040490381070412695 0.00028169871075078845 9.9999997473787516e-05
   vertex 0.00031830128864385188 0.00023169873747974634 9.9999997473787516e-05
  endloop
 endfacet
 facet normal 0 0 1
  outer loop
   vertex 0.00028169873985461891 9.5096183940768242e-05 9.9999997473787516e-05
   vertex 0.00036830129101872444 0.00014509618631564081 9.9999997473787516e-05
   vertex 0.00023169872292783111 0.00018169872055295855 9.9999997473787516e-05
  endloop
 endfacet
 facet normal 0 0 1
  outer loop
   vertex 0.00036830129101872444 0.00014509618631564081 9.9999997473787516e-05
   vertex 0.00031830128864385188 0.00023169873747974634 9.9999997473787516e-05
   vertex 0.00023169872292783111 0.00018169872055295855 9.9999997473787516e-05
  endloop
 endfacet
 facet normal 0 0 -1
  outer loop
   vertex 0.00028169873985461891 9.5096183940768242e-05 0
   vertex 0.00023169872292783111 0.00018169872055295855 0
   vertex 0.00036830129101872444 0.00014509618631564081 0
  endloop
 endfacet
 facet normal 0 -0 -1
  outer loop
   vertex 0.00023169872292783111 0.00018169872055295855 0
   vertex 0.00031830128864385188 0.00023169873747974634 0
   vertex 0.00036830129101872444 0.00014509618631564081 0
  endloop
 endfacet
 facet normal -0.86602532107365604 -0.50000014325925046 -0
  outer loop
   vertex 0.00028169873985461891 9.5096183940768242e-05 0
   vertex 0.00028169873985461891 9.5096183940768242e-05 9.9999997473787516e-05
   vertex 0.00023169872292783111 0.00018169872055295855 0
  endloop
 endfacet
 facet normal -0.86602532107365604 -0.50000014325925046 -0
  outer loop
   vertex 0.00028169873985461891 9.5096183940768242e-05 9.9999997473787516e-05
   vertex 0.00023169872292783111 0.00018169872055295855 9.9999997473787516e-05
   vertex 0.00023169872292783111 0.00018169872055295855 0
  endloop
 endfacet
 facet normal 0.86602542046509079 0.49999997110826205 0
  outer loop
   vertex 0.00036830129101872444 0.00014509618631564081 0
   vertex 0.00031830128864385188 0.00023169873747974634 0
   vertex 0.00036830129101872444 0.00014509618631564081 9.9999997473787516e-05
  endloop
 endfacet
 facet normal 0.86602542046509079 0.49999997110826205 0
  outer loop
   vertex 0.00031830128864385188 0.00023169873747974634 0
   vertex 0.00031830128864385188 0.00023169873747974634 9.9999997473787516e-05
   vertex 0.00036830129101872444 0.00014509618631564081 9.9999997473787516e-05
  endloop
 endfacet
endsolid
