solid
facet normal 0.000000e+00 0.000000e+00 1.000000e+00
    outer loop
    vertex 2.000000e-04 2.000000e-04 1.000000e-04
    vertex 3.000000e-04 2.000000e-04 1.000000e-04
    vertex 2.000000e-04 3.000000e-04 1.000000e-04
    endloop
endfacet
facet normal 0.000000e+00 0.000000e+00 1.000000e+00
    outer loop
    vertex 3.000000e-04 2.000000e-04 1.000000e-04
    vertex 3.000000e-04 3.000000e-04 1.000000e-04
    vertex 2.000000e-04 3.000000e-04 1.000000e-04
    endloop
endfacet
facet normal 0.000000e+00 0.000000e+00 -1.000000e+00
    outer loop
    vertex 2.000000e-04 2.000000e-04 0.000000e+00
    vertex 2.000000e-04 3.000000e-04 0.000000e+00
    vertex 3.000000e-04 2.000000e-04 0.000000e+00
    endloop
endfacet
facet normal 0.000000e+00 0.000000e+00 -1.000000e+00
    outer loop
    vertex 2.000000e-04 3.000000e-04 0.000000e+00
    vertex 3.000000e-04 3.000000e-04 0.000000e+00
    vertex 3.000000e-04 2.000000e-04 0.000000e+00
    endloop
endfacet
facet normal 0.000000e+00 0.000000e+00 1.000000e+00
    outer loop
    vertex 0.000000e+00 2.000000e-04 1.000000e-04
    vertex 1.000000e-04 2.000000e-04 1.000000e-04
    vertex 0.000000e+00 3.000000e-04 1.000000e-04
    endloop
endfacet
facet normal 0.000000e+00 0.000000e+00 1.000000e+00
    outer loop
    vertex 1.000000e-04 2.000000e-04 1.000000e-04
    vertex 1.000000e-04 3.000000e-04 1.000000e-04
    vertex 0.000000e+00 3.000000e-04 1.000000e-04
    endloop
endfacet
facet normal 0.000000e+00 0.000000e+00 -1.000000e+00
    outer loop
    vertex 0.000000e+00 2.000000e-04 0.000000e+00
    vertex 0.000000e+00 3.000000e-04 0.000000e+00
    vertex 1.000000e-04 2.000000e-04 0.000000e+00
    endloop
endfacet
facet normal 0.000000e+00 0.000000e+00 -1.000000e+00
    outer loop
    vertex 0.000000e+00 3.000000e-04 0.000000e+00
    vertex 1.000000e-04 3.000000e-04 0.000000e+00
    vertex 1.000000e-04 2.000000e-04 0.000000e+00
    endloop
endfacet
facet normal -1.000000e+00 0.000000e+00 0.000000e+00
    outer loop
    vertex 0.000000e+00 2.000000e-04 0.000000e+00
    vertex 0.000000e+00 2.000000e-04 1.000000e-04
    vertex 0.000000e+00 3.000000e-04 0.000000e+00
    endloop
endfacet
facet normal -1.000000e+00 0.000000e+00 0.000000e+00
    outer loop
    vertex 0.000000e+00 2.000000e-04 1.000000e-04
    vertex 0.000000e+00 3.000000e-04 1.000000e-04
    vertex 0.000000e+00 3.000000e-04 0.000000e+00
    endloop
endfacet
facet normal 0.000000e+00 1.000000e+00 0.000000e+00
    outer loop
    vertex 0.000000e+00 3.000000e-04 0.000000e+00
    vertex 0.000000e+00 3.000000e-04 1.000000e-04
    vertex 1.000000e-04 3.000000e-04 0.000000e+00
    endloop
endfacet
facet normal 0.000000e+00 1.000000e+00 0.000000e+00
    outer loop
    vertex 0.000000e+00 3.000000e-04 1.000000e-04
    vertex 1.000000e-04 3.000000e-04 1.000000e-04
    vertex 1.000000e-04 3.000000e-04 0.000000e+00
    endloop
endfacet
facet normal 0.000000e+00 -1.000000e+00 0.000000e+00
    outer loop
    vertex 0.000000e+00 2.000000e-04 0.000000e+00
    vertex 1.000000e-04 2.000000e-04 0.000000e+00
    vertex 0.000000e+00 2.000000e-04 1.000000e-04
    endloop
endfacet
facet normal 0.000000e+00 -1.000000e+00 0.000000e+00
    outer loop
    vertex 1.000000e-04 2.000000e-04 0.000000e+00
    vertex 1.000000e-04 2.000000e-04 1.000000e-04
    vertex 0.000000e+00 2.000000e-04 1.000000e-04
    endloop
endfacet
facet normal 0.000000e+00 0.000000e+00 1.000000e+00
    outer loop
    vertex 2.000000e-04 4.000000e-04 1.000000e-04
    vertex 3.000000e-04 4.000000e-04 1.000000e-04
    vertex 2.000000e-04 5.000000e-04 1.000000e-04
    endloop
endfacet
facet normal 0.000000e+00 0.000000e+00 1.000000e+00
    outer loop
    vertex 3.000000e-04 4.000000e-04 1.000000e-04
    vertex 3.000000e-04 5.000000e-04 1.000000e-04
    vertex 2.000000e-04 5.000000e-04 1.000000e-04
    endloop
endfacet
facet normal 0.000000e+00 0.000000e+00 -1.000000e+00
    outer loop
    vertex 2.000000e-04 4.000000e-04 0.000000e+00
    vertex 2.000000e-04 5.000000e-04 0.000000e+00
    vertex 3.000000e-04 4.000000e-04 0.000000e+00
    endloop
endfacet
facet normal 0.000000e+00 0.000000e+00 -1.000000e+00
    outer loop
    vertex 2.000000e-04 5.000000e-04 0.000000e+00
    vertex 3.000000e-04 5.000000e-04 0.000000e+00
    vertex 3.000000e-04 4.000000e-04 0.000000e+00
    endloop
endfacet
facet normal -1.000000e+00 0.000000e+00 0.000000e+00
    outer loop
    vertex 2.000000e-04 4.000000e-04 0.000000e+00
    vertex 2.000000e-04 4.000000e-04 1.000000e-04
    vertex 2.000000e-04 5.000000e-04 0.000000e+00
    endloop
endfacet
facet normal -1.000000e+00 0.000000e+00 0.000000e+00
    outer loop
    vertex 2.000000e-04 4.000000e-04 1.000000e-04
    vertex 2.000000e-04 5.000000e-04 1.000000e-04
    vertex 2.000000e-04 5.000000e-04 0.000000e+00
    endloop
endfacet
facet normal 0.000000e+00 1.000000e+00 0.000000e+00
    outer loop
    vertex 2.000000e-04 5.000000e-04 0.000000e+00
    vertex 2.000000e-04 5.000000e-04 1.000000e-04
    vertex 3.000000e-04 5.000000e-04 0.000000e+00
    endloop
endfacet
facet normal 0.000000e+00 1.000000e+00 0.000000e+00
    outer loop
    vertex 2.000000e-04 5.000000e-04 1.000000e-04
    vertex 3.000000e-04 5.000000e-04 1.000000e-04
    vertex 3.000000e-04 5.000000e-04 0.000000e+00
    endloop
endfacet
facet normal 1.000000e+00 0.000000e+00 0.000000e+00
    outer loop
    vertex 3.000000e-04 4.000000e-04 0.000000e+00
    vertex 3.000000e-04 5.000000e-04 0.000000e+00
    vertex 3.000000e-04 4.000000e-04 1.000000e-04
    endloop
endfacet
facet normal 1.000000e+00 0.000000e+00 0.000000e+00
    outer loop
    vertex 3.000000e-04 5.000000e-04 0.000000e+00
    vertex 3.000000e-04 5.000000e-04 1.000000e-04
    vertex 3.000000e-04 4.000000e-04 1.000000e-04
    endloop
endfacet
facet normal 0.000000e+00 0.000000e+00 1.000000e+00
    outer loop
    vertex 4.000000e-04 2.000000e-04 1.000000e-04
    vertex 5.000000e-04 2.000000e-04 1.000000e-04
    vertex 4.000000e-04 3.000000e-04 1.000000e-04
    endloop
endfacet
facet normal 0.000000e+00 0.000000e+00 1.000000e+00
    outer loop
    vertex 5.000000e-04 2.000000e-04 1.000000e-04
    vertex 5.000000e-04 3.000000e-04 1.000000e-04
    vertex 4.000000e-04 3.000000e-04 1.000000e-04
    endloop
endfacet
facet normal 0.000000e+00 0.000000e+00 -1.000000e+00
    outer loop
    vertex 4.000000e-04 2.000000e-04 0.000000e+00
    vertex 4.000000e-04 3.000000e-04 0.000000e+00
    vertex 5.000000e-04 2.000000e-04 0.000000e+00
    endloop
endfacet
facet normal 0.000000e+00 0.000000e+00 -1.000000e+00
    outer loop
    vertex 4.000000e-04 3.000000e-04 0.000000e+00
    vertex 5.000000e-04 3.000000e-04 0.000000e+00
    vertex 5.000000e-04 2.000000e-04 0.000000e+00
    endloop
endfacet
facet normal 0.000000e+00 1.000000e+00 0.000000e+00
    outer loop
    vertex 4.000000e-04 3.000000e-04 0.000000e+00
    vertex 4.000000e-04 3.000000e-04 1.000000e-04
    vertex 5.000000e-04 3.000000e-04 0.000000e+00
    endloop
endfacet
facet normal 0.000000e+00 1.000000e+00 0.000000e+00
    outer loop
    vertex 4.000000e-04 3.000000e-04 1.000000e-04
    vertex 5.000000e-04 3.000000e-04 1.000000e-04
    vertex 5.000000e-04 3.000000e-04 0.000000e+00
    endloop
endfacet
facet normal 1.000000e+00 0.000000e+00 0.000000e+00
    outer loop
    vertex 5.000000e-04 2.000000e-04 0.000000e+00
    vertex 5.000000e-04 3.000000e-04 0.000000e+00
    vertex 5.000000e-04 2.000000e-04 1.000000e-04
    endloop
endfacet
facet normal 1.000000e+00 0.000000e+00 0.000000e+00
    outer loop
    vertex 5.000000e-04 3.000000e-04 0.000000e+00
    vertex 5.000000e-04 3.000000e-04 1.000000e-04
    vertex 5.000000e-04 2.000000e-04 1.000000e-04
    endloop
endfacet
facet normal 0.000000e+00 -1.000000e+00 0.000000e+00
    outer loop
    vertex 4.000000e-04 2.000000e-04 0.000000e+00
    vertex 5.000000e-04 2.000000e-04 0.000000e+00
    vertex 4.000000e-04 2.000000e-04 1.000000e-04
    endloop
endfacet
facet normal 0.000000e+00 -1.000000e+00 0.000000e+00
    outer loop
    vertex 5.000000e-04 2.000000e-04 0.000000e+00
    vertex 5.000000e-04 2.000000e-04 1.000000e-04
    vertex 4.000000e-04 2.000000e-04 1.000000e-04
    endloop
endfacet
facet normal 0.000000e+00 0.000000e+00 1.000000e+00
    outer loop
    vertex 2.000000e-04 0.000000e+00 1.000000e-04
    vertex 3.000000e-04 0.000000e+00 1.000000e-04
    vertex 2.000000e-04 1.000000e-04 1.000000e-04
    endloop
endfacet
facet normal 0.000000e+00 0.000000e+00 1.000000e+00
    outer loop
    vertex 3.000000e-04 0.000000e+00 1.000000e-04
    vertex 3.000000e-04 1.000000e-04 1.000000e-04
    vertex 2.000000e-04 1.000000e-04 1.000000e-04
    endloop
endfacet
facet normal 0.000000e+00 0.000000e+00 -1.000000e+00
    outer loop
    vertex 2.000000e-04 0.000000e+00 0.000000e+00
    vertex 2.000000e-04 1.000000e-04 0.000000e+00
    vertex 3.000000e-04 0.000000e+00 0.000000e+00
    endloop
endfacet
facet normal 0.000000e+00 0.000000e+00 -1.000000e+00
    outer loop
    vertex 2.000000e-04 1.000000e-04 0.000000e+00
    vertex 3.000000e-04 1.000000e-04 0.000000e+00
    vertex 3.000000e-04 0.000000e+00 0.000000e+00
    endloop
endfacet
facet normal -1.000000e+00 0.000000e+00 0.000000e+00
    outer loop
    vertex 2.000000e-04 0.000000e+00 0.000000e+00
    vertex 2.000000e-04 0.000000e+00 1.000000e-04
    vertex 2.000000e-04 1.000000e-04 0.000000e+00
    endloop
endfacet
facet normal -1.000000e+00 0.000000e+00 0.000000e+00
    outer loop
    vertex 2.000000e-04 0.000000e+00 1.000000e-04
    vertex 2.000000e-04 1.000000e-04 1.000000e-04
    vertex 2.000000e-04 1.000000e-04 0.000000e+00
    endloop
endfacet
facet normal 1.000000e+00 0.000000e+00 0.000000e+00
    outer loop
    vertex 3.000000e-04 0.000000e+00 0.000000e+00
    vertex 3.000000e-04 1.000000e-04 0.000000e+00
    vertex 3.000000e-04 0.000000e+00 1.000000e-04
    endloop
endfacet
facet normal 1.000000e+00 0.000000e+00 0.000000e+00
    outer loop
    vertex 3.000000e-04 1.000000e-04 0.000000e+00
    vertex 3.000000e-04 1.000000e-04 1.000000e-04
    vertex 3.000000e-04 0.000000e+00 1.000000e-04
    endloop
endfacet
facet normal 0.000000e+00 -1.000000e+00 0.000000e+00
    outer loop
    vertex 2.000000e-04 0.000000e+00 0.000000e+00
    vertex 3.000000e-04 0.000000e+00 0.000000e+00
    vertex 2.000000e-04 0.000000e+00 1.000000e-04
    endloop
endfacet
facet normal 0.000000e+00 -1.000000e+00 0.000000e+00
    outer loop
    vertex 3.000000e-04 0.000000e+00 0.000000e+00
    vertex 3.000000e-04 0.000000e+00 1.000000e-04
    vertex 2.000000e-04 0.000000e+00 1.000000e-04
    endloop
endfacet
facet normal 0.000000e+00 0.000000e+00 1.000000e+00
    outer loop
    vertex 1.000000e-04 2.000000e-04 1.000000e-04
    vertex 2.000000e-04 2.000000e-04 1.000000e-04
    vertex 1.000000e-04 3.000000e-04 1.000000e-04
    endloop
endfacet
facet normal 0.000000e+00 0.000000e+00 1.000000e+00
    outer loop
    vertex 2.000000e-04 2.000000e-04 1.000000e-04
    vertex 2.000000e-04 3.000000e-04 1.000000e-04
    vertex 1.000000e-04 3.000000e-04 1.000000e-04
    endloop
endfacet
facet normal 0.000000e+00 0.000000e+00 -1.000000e+00
    outer loop
    vertex 1.000000e-04 2.000000e-04 0.000000e+00
    vertex 1.000000e-04 3.000000e-04 0.000000e+00
    vertex 2.000000e-04 2.000000e-04 0.000000e+00
    endloop
endfacet
facet normal 0.000000e+00 0.000000e+00 -1.000000e+00
    outer loop
    vertex 1.000000e-04 3.000000e-04 0.000000e+00
    vertex 2.000000e-04 3.000000e-04 0.000000e+00
    vertex 2.000000e-04 2.000000e-04 0.000000e+00
    endloop
endfacet
facet normal 0.000000e+00 1.000000e+00 0.000000e+00
    outer loop
    vertex 1.000000e-04 3.000000e-04 0.000000e+00
    vertex 1.000000e-04 3.000000e-04 1.000000e-04
    vertex 2.000000e-04 3.000000e-04 0.000000e+00
    endloop
endfacet
facet normal 0.000000e+00 1.000000e+00 0.000000e+00
    outer loop
    vertex 1.000000e-04 3.000000e-04 1.000000e-04
    vertex 2.000000e-04 3.000000e-04 1.000000e-04
    vertex 2.000000e-04 3.000000e-04 0.000000e+00
    endloop
endfacet
facet normal 0.000000e+00 -1.000000e+00 0.000000e+00
    outer loop
    vertex 1.000000e-04 2.000000e-04 0.000000e+00
    vertex 2.000000e-04 2.000000e-04 0.000000e+00
    vertex 1.000000e-04 2.000000e-04 1.000000e-04
    endloop
endfacet
facet normal 0.000000e+00 -1.000000e+00 0.000000e+00
    outer loop
    vertex 2.000000e-04 2.000000e-04 0.000000e+00
    vertex 2.000000e-04 2.000000e-04 1.000000e-04
    vertex 1.000000e-04 2.000000e-04 1.000000e-04
    endloop
endfacet
facet normal 0.000000e+00 0.000000e+00 1.000000e+00
    outer loop
    vertex 2.000000e-04 3.000000e-04 1.000000e-04
    vertex 3.000000e-04 3.000000e-04 1.000000e-04
    vertex 2.000000e-04 4.000000e-04 1.000000e-04
    endloop
endfacet
facet normal 0.000000e+00 0.000000e+00 1.000000e+00
    outer loop
    vertex 3.000000e-04 3.000000e-04 1.000000e-04
    vertex 3.000000e-04 4.000000e-04 1.000000e-04
    vertex 2.000000e-04 4.000000e-04 1.000000e-04
    endloop
endfacet
facet normal 0.000000e+00 0.000000e+00 -1.000000e+00
    outer loop
    vertex 2.000000e-04 3.000000e-04 0.000000e+00
    vertex 2.000000e-04 4.000000e-04 0.000000e+00
    vertex 3.000000e-04 3.000000e-04 0.000000e+00
    endloop
endfacet
facet normal 0.000000e+00 0.000000e+00 -1.000000e+00
    outer loop
    vertex 2.000000e-04 4.000000e-04 0.000000e+00
    vertex 3.000000e-04 4.000000e-04 0.000000e+00
    vertex 3.000000e-04 3.000000e-04 0.000000e+00
    endloop
endfacet
facet normal -1.000000e+00 0.000000e+00 0.000000e+00
    outer loop
    vertex 2.000000e-04 3.000000e-04 0.000000e+00
    vertex 2.000000e-04 3.000000e-04 1.000000e-04
    vertex 2.000000e-04 4.000000e-04 0.000000e+00
    endloop
endfacet
facet normal -1.000000e+00 0.000000e+00 0.000000e+00
    outer loop
    vertex 2.000000e-04 3.000000e-04 1.000000e-04
    vertex 2.000000e-04 4.000000e-04 1.000000e-04
    vertex 2.000000e-04 4.000000e-04 0.000000e+00
    endloop
endfacet
facet normal 1.000000e+00 0.000000e+00 0.000000e+00
    outer loop
    vertex 3.000000e-04 3.000000e-04 0.000000e+00
    vertex 3.000000e-04 4.000000e-04 0.000000e+00
    vertex 3.000000e-04 3.000000e-04 1.000000e-04
    endloop
endfacet
facet normal 1.000000e+00 0.000000e+00 0.000000e+00
    outer loop
    vertex 3.000000e-04 4.000000e-04 0.000000e+00
    vertex 3.000000e-04 4.000000e-04 1.000000e-04
    vertex 3.000000e-04 3.000000e-04 1.000000e-04
    endloop
endfacet
facet normal 0.000000e+00 0.000000e+00 1.000000e+00
    outer loop
    vertex 3.000000e-04 2.000000e-04 1.000000e-04
    vertex 4.000000e-04 2.000000e-04 1.000000e-04
    vertex 3.000000e-04 3.000000e-04 1.000000e-04
    endloop
endfacet
facet normal 0.000000e+00 0.000000e+00 1.000000e+00
    outer loop
    vertex 4.000000e-04 2.000000e-04 1.000000e-04
    vertex 4.000000e-04 3.000000e-04 1.000000e-04
    vertex 3.000000e-04 3.000000e-04 1.000000e-04
    endloop
endfacet
facet normal 0.000000e+00 0.000000e+00 -1.000000e+00
    outer loop
    vertex 3.000000e-04 2.000000e-04 0.000000e+00
    vertex 3.000000e-04 3.000000e-04 0.000000e+00
    vertex 4.000000e-04 2.000000e-04 0.000000e+00
    endloop
endfacet
facet normal 0.000000e+00 0.000000e+00 -1.000000e+00
    outer loop
    vertex 3.000000e-04 3.000000e-04 0.000000e+00
    vertex 4.000000e-04 3.000000e-04 0.000000e+00
    vertex 4.000000e-04 2.000000e-04 0.000000e+00
    endloop
endfacet
facet normal 0.000000e+00 1.000000e+00 0.000000e+00
    outer loop
    vertex 3.000000e-04 3.000000e-04 0.000000e+00
    vertex 3.000000e-04 3.000000e-04 1.000000e-04
    vertex 4.000000e-04 3.000000e-04 0.000000e+00
    endloop
endfacet
facet normal 0.000000e+00 1.000000e+00 0.000000e+00
    outer loop
    vertex 3.000000e-04 3.000000e-04 1.000000e-04
    vertex 4.000000e-04 3.000000e-04 1.000000e-04
    vertex 4.000000e-04 3.000000e-04 0.000000e+00
    endloop
endfacet
facet normal 0.000000e+00 -1.000000e+00 0.000000e+00
    outer loop
    vertex 3.000000e-04 2.000000e-04 0.000000e+00
    vertex 4.000000e-04 2.000000e-04 0.000000e+00
    vertex 3.000000e-04 2.000000e-04 1.000000e-04
    endloop
endfacet
facet normal 0.000000e+00 -1.000000e+00 0.000000e+00
    outer loop
    vertex 4.000000e-04 2.000000e-04 0.000000e+00
    vertex 4.000000e-04 2.000000e-04 1.000000e-04
    vertex 3.000000e-04 2.000000e-04 1.000000e-04
    endloop
endfacet
facet normal 0.000000e+00 0.000000e+00 1.000000e+00
    outer loop
    vertex 2.000000e-04 1.000000e-04 1.000000e-04
    vertex 3.000000e-04 1.000000e-04 1.000000e-04
    vertex 2.000000e-04 2.000000e-04 1.000000e-04
    endloop
endfacet
facet normal 0.000000e+00 0.000000e+00 1.000000e+00
    outer loop
    vertex 3.000000e-04 1.000000e-04 1.000000e-04
    vertex 3.000000e-04 2.000000e-04 1.000000e-04
    vertex 2.000000e-04 2.000000e-04 1.000000e-04
    endloop
endfacet
facet normal 0.000000e+00 0.000000e+00 -1.000000e+00
    outer loop
    vertex 2.000000e-04 1.000000e-04 0.000000e+00
    vertex 2.000000e-04 2.000000e-04 0.000000e+00
    vertex 3.000000e-04 1.000000e-04 0.000000e+00
    endloop
endfacet
facet normal 0.000000e+00 0.000000e+00 -1.000000e+00
    outer loop
    vertex 2.000000e-04 2.000000e-04 0.000000e+00
    vertex 3.000000e-04 2.000000e-04 0.000000e+00
    vertex 3.000000e-04 1.000000e-04 0.000000e+00
    endloop
endfacet
facet normal -1.000000e+00 0.000000e+00 0.000000e+00
    outer loop
    vertex 2.000000e-04 1.000000e-04 0.000000e+00
    vertex 2.000000e-04 1.000000e-04 1.000000e-04
    vertex 2.000000e-04 2.000000e-04 0.000000e+00
    endloop
endfacet
facet normal -1.000000e+00 0.000000e+00 0.000000e+00
    outer loop
    vertex 2.000000e-04 1.000000e-04 1.000000e-04
    vertex 2.000000e-04 2.000000e-04 1.000000e-04
    vertex 2.000000e-04 2.000000e-04 0.000000e+00
    endloop
endfacet
facet normal 1.000000e+00 0.000000e+00 0.000000e+00
    outer loop
    vertex 3.000000e-04 1.000000e-04 0.000000e+00
    vertex 3.000000e-04 2.000000e-04 0.000000e+00
    vertex 3.000000e-04 1.000000e-04 1.000000e-04
    endloop
endfacet
facet normal 1.000000e+00 0.000000e+00 0.000000e+00
    outer loop
    vertex 3.000000e-04 2.000000e-04 0.000000e+00
    vertex 3.000000e-04 2.000000e-04 1.000000e-04
    vertex 3.000000e-04 1.000000e-04 1.000000e-04
    endloop
endfacet
endsolid