solid Visualization Toolkit generated SLA File
 facet normal 0 0 1
  outer loop
   vertex 0.00020944201969541609 0.00019207719014957547 9.9999997473787516e-05
   vertex 0.00030792280449531972 0.00020944201969541609 9.9999997473787516e-05
   vertex 0.00019207719014957547 0.00029055800405330956 9.9999997473787516e-05
  endloop
 endfacet
 facet normal 0 0 1
  outer loop
   vertex 0.00030792280449531972 0.00020944201969541609 9.9999997473787516e-05
   vertex 0.0002905579749494791 0.00030792280449531972 9.9999997473787516e-05
   vertex 0.00019207719014957547 0.00029055800405330956 9.9999997473787516e-05
  endloop
 endfacet
 facet normal 0 0 -1
  outer loop
   vertex 0.00020944201969541609 0.00019207719014957547 1.2631062645471203e-12
   vertex 0.00019207719014957547 0.00029055800405330956 1.2631062645471203e-12
   vertex 0.00030792280449531972 0.00020944201969541609 1.2631062645471203e-12
  endloop
 endfacet
 facet normal 0 -0 -1
  outer loop
   vertex 0.00019207719014957547 0.00029055800405330956 1.2631062645471203e-12
   vertex 0.0002905579749494791 0.00030792280449531972 1.2631062645471203e-12
   vertex 0.00030792280449531972 0.00020944201969541609 1.2631062645471203e-12
  endloop
 endfacet
 facet normal 0 0 1
  outer loop
   vertex 1.2480452824092936e-05 0.00015734756016172469 9.9999997473787516e-05
   vertex 0.00011096123489551246 0.00017471237515565008 9.9999997473787516e-05
   vertex -4.8843621698324569e-06 0.00025582834496162832 9.9999997473787516e-05
  endloop
 endfacet
 facet normal 0 0 1
  outer loop
   vertex 0.00011096123489551246 0.00017471237515565008 9.9999997473787516e-05
   vertex 9.3596419901587069e-05 0.00027319317450746894 9.9999997473787516e-05
   vertex -4.8843621698324569e-06 0.00025582834496162832 9.9999997473787516e-05
  endloop
 endfacet
 facet normal 0 0 -1
  outer loop
   vertex 1.2480452824092936e-05 0.00015734756016172469 1.2631062645471203e-12
   vertex -4.8843621698324569e-06 0.00025582834496162832 1.2631062645471203e-12
   vertex 0.00011096123489551246 0.00017471237515565008 1.2631062645471203e-12
  endloop
 endfacet
 facet normal 0 -0 -1
  outer loop
   vertex -4.8843621698324569e-06 0.00025582834496162832 1.2631062645471203e-12
   vertex 9.3596419901587069e-05 0.00027319317450746894 1.2631062645471203e-12
   vertex 0.00011096123489551246 0.00017471237515565008 1.2631062645471203e-12
  endloop
 endfacet
 facet normal -0.9848077606181217 -0.17364813453164504 -0
  outer loop
   vertex 1.2480452824092936e-05 0.00015734756016172469 1.2631062645471203e-12
   vertex 1.2480452824092936e-05 0.00015734756016172469 9.9999997473787516e-05
   vertex -4.8843621698324569e-06 0.00025582834496162832 1.2631062645471203e-12
  endloop
 endfacet
 facet normal -0.9848077606181217 -0.17364813453164504 -0
  outer loop
   vertex 1.2480452824092936e-05 0.00015734756016172469 9.9999997473787516e-05
   vertex -4.8843621698324569e-06 0.00025582834496162832 9.9999997473787516e-05
   vertex -4.8843621698324569e-06 0.00025582834496162832 1.2631062645471203e-12
  endloop
 endfacet
 facet normal -0.17364828032882706 0.98480773491014029 0
  outer loop
   vertex -4.8843621698324569e-06 0.00025582834496162832 1.2631062645471203e-12
   vertex -4.8843621698324569e-06 0.00025582834496162832 9.9999997473787516e-05
   vertex 9.3596419901587069e-05 0.00027319317450746894 1.2631062645471203e-12
  endloop
 endfacet
 facet normal -0.17364828032882706 0.98480773491014029 0
  outer loop
   vertex -4.8843621698324569e-06 0.00025582834496162832 9.9999997473787516e-05
   vertex 9.3596419901587069e-05 0.00027319317450746894 9.9999997473787516e-05
   vertex 9.3596419901587069e-05 0.00027319317450746894 1.2631062645471203e-12
  endloop
 endfacet
 facet normal 0.17364813919762626 -0.9848077597953836 0
  outer loop
   vertex 1.2480452824092936e-05 0.00015734756016172469 1.2631062645471203e-12
   vertex 0.00011096123489551246 0.00017471237515565008 1.2631062645471203e-12
   vertex 1.2480452824092936e-05 0.00015734756016172469 9.9999997473787516e-05
  endloop
 endfacet
 facet normal 0.17364813919762626 -0.9848077597953836 0
  outer loop
   vertex 0.00011096123489551246 0.00017471237515565008 1.2631062645471203e-12
   vertex 0.00011096123489551246 0.00017471237515565008 9.9999997473787516e-05
   vertex 1.2480452824092936e-05 0.00015734756016172469 9.9999997473787516e-05
  endloop
 endfacet
 facet normal 0 0 1
  outer loop
   vertex 0.00017471237515565008 0.00038903875974938273 9.9999997473787516e-05
   vertex 0.00027319317450746894 0.0004064035601913929 9.9999997473787516e-05
   vertex 0.00015734756016172469 0.00048751954454928637 9.9999997473787516e-05
  endloop
 endfacet
 facet normal 0 0 1
  outer loop
   vertex 0.00027319317450746894 0.0004064035601913929 9.9999997473787516e-05
   vertex 0.00025582834496162832 0.00050488434499129653 9.9999997473787516e-05
   vertex 0.00015734756016172469 0.00048751954454928637 9.9999997473787516e-05
  endloop
 endfacet
 facet normal 0 0 -1
  outer loop
   vertex 0.00017471237515565008 0.00038903875974938273 1.2631062645471203e-12
   vertex 0.00015734756016172469 0.00048751954454928637 1.2631062645471203e-12
   vertex 0.00027319317450746894 0.0004064035601913929 1.2631062645471203e-12
  endloop
 endfacet
 facet normal 0 -0 -1
  outer loop
   vertex 0.00015734756016172469 0.00048751954454928637 1.2631062645471203e-12
   vertex 0.00025582834496162832 0.00050488434499129653 1.2631062645471203e-12
   vertex 0.00027319317450746894 0.0004064035601913929 1.2631062645471203e-12
  endloop
 endfacet
 facet normal -0.9848077606181217 -0.17364813453164504 -0
  outer loop
   vertex 0.00017471237515565008 0.00038903875974938273 1.2631062645471203e-12
   vertex 0.00017471237515565008 0.00038903875974938273 9.9999997473787516e-05
   vertex 0.00015734756016172469 0.00048751954454928637 1.2631062645471203e-12
  endloop
 endfacet
 facet normal -0.9848077606181217 -0.17364813453164504 -0
  outer loop
   vertex 0.00017471237515565008 0.00038903875974938273 9.9999997473787516e-05
   vertex 0.00015734756016172469 0.00048751954454928637 9.9999997473787516e-05
   vertex 0.00015734756016172469 0.00048751954454928637 1.2631062645471203e-12
  endloop
 endfacet
 facet normal -0.1736479934004371 0.98480778550334469 0
  outer loop
   vertex 0.00015734756016172469 0.00048751954454928637 1.2631062645471203e-12
   vertex 0.00015734756016172469 0.00048751954454928637 9.9999997473787516e-05
   vertex 0.00025582834496162832 0.00050488434499129653 1.2631062645471203e-12
  endloop
 endfacet
 facet normal -0.1736479934004371 0.98480778550334469 0
  outer loop
   vertex 0.00015734756016172469 0.00048751954454928637 9.9999997473787516e-05
   vertex 0.00025582834496162832 0.00050488434499129653 9.9999997473787516e-05
   vertex 0.00025582834496162832 0.00050488434499129653 1.2631062645471203e-12
  endloop
 endfacet
 facet normal 0.98480773573287983 0.1736482756628423 0
  outer loop
   vertex 0.00027319317450746894 0.0004064035601913929 1.2631062645471203e-12
   vertex 0.00025582834496162832 0.00050488434499129653 1.2631062645471203e-12
   vertex 0.00027319317450746894 0.0004064035601913929 9.9999997473787516e-05
  endloop
 endfacet
 facet normal 0.98480773573287983 0.1736482756628423 0
  outer loop
   vertex 0.00025582834496162832 0.00050488434499129653 1.2631062645471203e-12
   vertex 0.00025582834496162832 0.00050488434499129653 9.9999997473787516e-05
   vertex 0.00027319317450746894 0.0004064035601913929 9.9999997473787516e-05
  endloop
 endfacet
 facet normal 0 0 1
  outer loop
   vertex 0.0004064035601913929 0.00022680683468934149 9.9999997473787516e-05
   vertex 0.00050488434499129653 0.00024417164968326688 9.9999997473787516e-05
   vertex 0.00038903875974938273 0.00032528763404116035 9.9999997473787516e-05
  endloop
 endfacet
 facet normal 0 0 1
  outer loop
   vertex 0.00050488434499129653 0.00024417164968326688 9.9999997473787516e-05
   vertex 0.00048751954454928637 0.00034265243448317051 9.9999997473787516e-05
   vertex 0.00038903875974938273 0.00032528763404116035 9.9999997473787516e-05
  endloop
 endfacet
 facet normal 0 0 -1
  outer loop
   vertex 0.0004064035601913929 0.00022680683468934149 1.2631062645471203e-12
   vertex 0.00038903875974938273 0.00032528763404116035 1.2631062645471203e-12
   vertex 0.00050488434499129653 0.00024417164968326688 1.2631062645471203e-12
  endloop
 endfacet
 facet normal 0 -0 -1
  outer loop
   vertex 0.00038903875974938273 0.00032528763404116035 1.2631062645471203e-12
   vertex 0.00048751954454928637 0.00034265243448317051 1.2631062645471203e-12
   vertex 0.00050488434499129653 0.00024417164968326688 1.2631062645471203e-12
  endloop
 endfacet
 facet normal -0.1736479934004371 0.98480778550334469 0
  outer loop
   vertex 0.00038903875974938273 0.00032528763404116035 1.2631062645471203e-12
   vertex 0.00038903875974938273 0.00032528763404116035 9.9999997473787516e-05
   vertex 0.00048751954454928637 0.00034265243448317051 1.2631062645471203e-12
  endloop
 endfacet
 facet normal -0.1736479934004371 0.98480778550334469 0
  outer loop
   vertex 0.00038903875974938273 0.00032528763404116035 9.9999997473787516e-05
   vertex 0.00048751954454928637 0.00034265243448317051 9.9999997473787516e-05
   vertex 0.00048751954454928637 0.00034265243448317051 1.2631062645471203e-12
  endloop
 endfacet
 facet normal 0.98480778550334469 0.1736479934004371 0
  outer loop
   vertex 0.00050488434499129653 0.00024417164968326688 1.2631062645471203e-12
   vertex 0.00048751954454928637 0.00034265243448317051 1.2631062645471203e-12
   vertex 0.00050488434499129653 0.00024417164968326688 9.9999997473787516e-05
  endloop
 endfacet
 facet normal 0.98480778550334469 0.1736479934004371 0
  outer loop
   vertex 0.00048751954454928637 0.00034265243448317051 1.2631062645471203e-12
   vertex 0.00048751954454928637 0.00034265243448317051 9.9999997473787516e-05
   vertex 0.00050488434499129653 0.00024417164968326688 9.9999997473787516e-05
  endloop
 endfacet
 facet normal 0.17364813453164504 -0.9848077606181217 0
  outer loop
   vertex 0.0004064035601913929 0.00022680683468934149 1.2631062645471203e-12
   vertex 0.00050488434499129653 0.00024417164968326688 1.2631062645471203e-12
   vertex 0.0004064035601913929 0.00022680683468934149 9.9999997473787516e-05
  endloop
 endfacet
 facet normal 0.17364813453164504 -0.9848077606181217 0
  outer loop
   vertex 0.00050488434499129653 0.00024417164968326688 1.2631062645471203e-12
   vertex 0.00050488434499129653 0.00024417164968326688 9.9999997473787516e-05
   vertex 0.0004064035601913929 0.00022680683468934149 9.9999997473787516e-05
  endloop
 endfacet
 facet normal 0 0 1
  outer loop
   vertex 0.00024417164968326688 -4.8843621698324569e-06 9.9999997473787516e-05
   vertex 0.00034265243448317051 1.2480467376008164e-05 9.9999997473787516e-05
   vertex 0.00022680683468934149 9.3596419901587069e-05 9.9999997473787516e-05
  endloop
 endfacet
 facet normal 0 0 1
  outer loop
   vertex 0.00034265243448317051 1.2480467376008164e-05 9.9999997473787516e-05
   vertex 0.00032528763404116035 0.00011096123489551246 9.9999997473787516e-05
   vertex 0.00022680683468934149 9.3596419901587069e-05 9.9999997473787516e-05
  endloop
 endfacet
 facet normal 0 0 -1
  outer loop
   vertex 0.00024417164968326688 -4.8843621698324569e-06 1.2631062645471203e-12
   vertex 0.00022680683468934149 9.3596419901587069e-05 1.2631062645471203e-12
   vertex 0.00034265243448317051 1.2480467376008164e-05 1.2631062645471203e-12
  endloop
 endfacet
 facet normal 0 -0 -1
  outer loop
   vertex 0.00022680683468934149 9.3596419901587069e-05 1.2631062645471203e-12
   vertex 0.00032528763404116035 0.00011096123489551246 1.2631062645471203e-12
   vertex 0.00034265243448317051 1.2480467376008164e-05 1.2631062645471203e-12
  endloop
 endfacet
 facet normal -0.9848077597953836 -0.17364813919762626 -0
  outer loop
   vertex 0.00024417164968326688 -4.8843621698324569e-06 1.2631062645471203e-12
   vertex 0.00024417164968326688 -4.8843621698324569e-06 9.9999997473787516e-05
   vertex 0.00022680683468934149 9.3596419901587069e-05 1.2631062645471203e-12
  endloop
 endfacet
 facet normal -0.9848077597953836 -0.17364813919762626 -0
  outer loop
   vertex 0.00024417164968326688 -4.8843621698324569e-06 9.9999997473787516e-05
   vertex 0.00022680683468934149 9.3596419901587069e-05 9.9999997473787516e-05
   vertex 0.00022680683468934149 9.3596419901587069e-05 1.2631062645471203e-12
  endloop
 endfacet
 facet normal 0.98480778029267679 0.17364802295163306 0
  outer loop
   vertex 0.00034265243448317051 1.2480467376008164e-05 1.2631062645471203e-12
   vertex 0.00032528763404116035 0.00011096123489551246 1.2631062645471203e-12
   vertex 0.00034265243448317051 1.2480467376008164e-05 9.9999997473787516e-05
  endloop
 endfacet
 facet normal 0.98480778029267679 0.17364802295163306 0
  outer loop
   vertex 0.00032528763404116035 0.00011096123489551246 1.2631062645471203e-12
   vertex 0.00032528763404116035 0.00011096123489551246 9.9999997473787516e-05
   vertex 0.00034265243448317051 1.2480467376008164e-05 9.9999997473787516e-05
  endloop
 endfacet
 facet normal 0.1736482756628423 -0.98480773573287983 0
  outer loop
   vertex 0.00024417164968326688 -4.8843621698324569e-06 1.2631062645471203e-12
   vertex 0.00034265243448317051 1.2480467376008164e-05 1.2631062645471203e-12
   vertex 0.00024417164968326688 -4.8843621698324569e-06 9.9999997473787516e-05
  endloop
 endfacet
 facet normal 0.1736482756628423 -0.98480773573287983 0
  outer loop
   vertex 0.00034265243448317051 1.2480467376008164e-05 1.2631062645471203e-12
   vertex 0.00034265243448317051 1.2480467376008164e-05 9.9999997473787516e-05
   vertex 0.00024417164968326688 -4.8843621698324569e-06 9.9999997473787516e-05
  endloop
 endfacet
 facet normal 0 0 1
  outer loop
   vertex 0.00011096123489551246 0.00017471237515565008 9.9999997473787516e-05
   vertex 0.00020944201969541609 0.00019207719014957547 9.9999997473787516e-05
   vertex 9.3596419901587069e-05 0.00027319317450746894 9.9999997473787516e-05
  endloop
 endfacet
 facet normal 0 0 1
  outer loop
   vertex 0.00020944201969541609 0.00019207719014957547 9.9999997473787516e-05
   vertex 0.00019207719014957547 0.00029055800405330956 9.9999997473787516e-05
   vertex 9.3596419901587069e-05 0.00027319317450746894 9.9999997473787516e-05
  endloop
 endfacet
 facet normal 0 0 -1
  outer loop
   vertex 0.00011096123489551246 0.00017471237515565008 1.2631062645471203e-12
   vertex 9.3596419901587069e-05 0.00027319317450746894 1.2631062645471203e-12
   vertex 0.00020944201969541609 0.00019207719014957547 1.2631062645471203e-12
  endloop
 endfacet
 facet normal 0 -0 -1
  outer loop
   vertex 9.3596419901587069e-05 0.00027319317450746894 1.2631062645471203e-12
   vertex 0.00019207719014957547 0.00029055800405330956 1.2631062645471203e-12
   vertex 0.00020944201969541609 0.00019207719014957547 1.2631062645471203e-12
  endloop
 endfacet
 facet normal -0.17364830054809724 0.98480773134493504 0
  outer loop
   vertex 9.3596419901587069e-05 0.00027319317450746894 1.2631062645471203e-12
   vertex 9.3596419901587069e-05 0.00027319317450746894 9.9999997473787516e-05
   vertex 0.00019207719014957547 0.00029055800405330956 1.2631062645471203e-12
  endloop
 endfacet
 facet normal -0.17364830054809724 0.98480773134493504 0
  outer loop
   vertex 9.3596419901587069e-05 0.00027319317450746894 9.9999997473787516e-05
   vertex 0.00019207719014957547 0.00029055800405330956 9.9999997473787516e-05
   vertex 0.00019207719014957547 0.00029055800405330956 1.2631062645471203e-12
  endloop
 endfacet
 facet normal 0.17364813453164504 -0.9848077606181217 0
  outer loop
   vertex 0.00011096123489551246 0.00017471237515565008 1.2631062645471203e-12
   vertex 0.00020944201969541609 0.00019207719014957547 1.2631062645471203e-12
   vertex 0.00011096123489551246 0.00017471237515565008 9.9999997473787516e-05
  endloop
 endfacet
 facet normal 0.17364813453164504 -0.9848077606181217 0
  outer loop
   vertex 0.00020944201969541609 0.00019207719014957547 1.2631062645471203e-12
   vertex 0.00020944201969541609 0.00019207719014957547 9.9999997473787516e-05
   vertex 0.00011096123489551246 0.00017471237515565008 9.9999997473787516e-05
  endloop
 endfacet
 facet normal 0 0 1
  outer loop
   vertex 0.00019207719014957547 0.00029055800405330956 9.9999997473787516e-05
   vertex 0.0002905579749494791 0.00030792280449531972 9.9999997473787516e-05
   vertex 0.00017471237515565008 0.00038903875974938273 9.9999997473787516e-05
  endloop
 endfacet
 facet normal 0 0 1
  outer loop
   vertex 0.0002905579749494791 0.00030792280449531972 9.9999997473787516e-05
   vertex 0.00027319317450746894 0.0004064035601913929 9.9999997473787516e-05
   vertex 0.00017471237515565008 0.00038903875974938273 9.9999997473787516e-05
  endloop
 endfacet
 facet normal 0 0 -1
  outer loop
   vertex 0.00019207719014957547 0.00029055800405330956 1.2631062645471203e-12
   vertex 0.00017471237515565008 0.00038903875974938273 1.2631062645471203e-12
   vertex 0.0002905579749494791 0.00030792280449531972 1.2631062645471203e-12
  endloop
 endfacet
 facet normal 0 -0 -1
  outer loop
   vertex 0.00017471237515565008 0.00038903875974938273 1.2631062645471203e-12
   vertex 0.00027319317450746894 0.0004064035601913929 1.2631062645471203e-12
   vertex 0.0002905579749494791 0.00030792280449531972 1.2631062645471203e-12
  endloop
 endfacet
 facet normal -0.98480775184224434 -0.17364818430212398 -0
  outer loop
   vertex 0.00019207719014957547 0.00029055800405330956 1.2631062645471203e-12
   vertex 0.00019207719014957547 0.00029055800405330956 9.9999997473787516e-05
   vertex 0.00017471237515565008 0.00038903875974938273 1.2631062645471203e-12
  endloop
 endfacet
 facet normal -0.98480775184224434 -0.17364818430212398 -0
  outer loop
   vertex 0.00019207719014957547 0.00029055800405330956 9.9999997473787516e-05
   vertex 0.00017471237515565008 0.00038903875974938273 9.9999997473787516e-05
   vertex 0.00017471237515565008 0.00038903875974938273 1.2631062645471203e-12
  endloop
 endfacet
 facet normal 0.98480777672748143 0.17364804317087812 0
  outer loop
   vertex 0.0002905579749494791 0.00030792280449531972 1.2631062645471203e-12
   vertex 0.00027319317450746894 0.0004064035601913929 1.2631062645471203e-12
   vertex 0.0002905579749494791 0.00030792280449531972 9.9999997473787516e-05
  endloop
 endfacet
 facet normal 0.98480777672748143 0.17364804317087812 0
  outer loop
   vertex 0.00027319317450746894 0.0004064035601913929 1.2631062645471203e-12
   vertex 0.00027319317450746894 0.0004064035601913929 9.9999997473787516e-05
   vertex 0.0002905579749494791 0.00030792280449531972 9.9999997473787516e-05
  endloop
 endfacet
 facet normal 0 0 1
  outer loop
   vertex 0.00030792280449531972 0.00020944201969541609 9.9999997473787516e-05
   vertex 0.0004064035601913929 0.00022680683468934149 9.9999997473787516e-05
   vertex 0.0002905579749494791 0.00030792280449531972 9.9999997473787516e-05
  endloop
 endfacet
 facet normal 0 0 1
  outer loop
   vertex 0.0004064035601913929 0.00022680683468934149 9.9999997473787516e-05
   vertex 0.00038903875974938273 0.00032528763404116035 9.9999997473787516e-05
   vertex 0.0002905579749494791 0.00030792280449531972 9.9999997473787516e-05
  endloop
 endfacet
 facet normal 0 0 -1
  outer loop
   vertex 0.00030792280449531972 0.00020944201969541609 1.2631062645471203e-12
   vertex 0.0002905579749494791 0.00030792280449531972 1.2631062645471203e-12
   vertex 0.0004064035601913929 0.00022680683468934149 1.2631062645471203e-12
  endloop
 endfacet
 facet normal 0 -0 -1
  outer loop
   vertex 0.0002905579749494791 0.00030792280449531972 1.2631062645471203e-12
   vertex 0.00038903875974938273 0.00032528763404116035 1.2631062645471203e-12
   vertex 0.0004064035601913929 0.00022680683468934149 1.2631062645471203e-12
  endloop
 endfacet
 facet normal -0.1736482756628423 0.98480773573287983 0
  outer loop
   vertex 0.0002905579749494791 0.00030792280449531972 1.2631062645471203e-12
   vertex 0.0002905579749494791 0.00030792280449531972 9.9999997473787516e-05
   vertex 0.00038903875974938273 0.00032528763404116035 1.2631062645471203e-12
  endloop
 endfacet
 facet normal -0.1736482756628423 0.98480773573287983 0
  outer loop
   vertex 0.0002905579749494791 0.00030792280449531972 9.9999997473787516e-05
   vertex 0.00038903875974938273 0.00032528763404116035 9.9999997473787516e-05
   vertex 0.00038903875974938273 0.00032528763404116035 1.2631062645471203e-12
  endloop
 endfacet
 facet normal 0.17364818430212398 -0.98480775184224434 0
  outer loop
   vertex 0.00030792280449531972 0.00020944201969541609 1.2631062645471203e-12
   vertex 0.0004064035601913929 0.00022680683468934149 1.2631062645471203e-12
   vertex 0.00030792280449531972 0.00020944201969541609 9.9999997473787516e-05
  endloop
 endfacet
 facet normal 0.17364818430212398 -0.98480775184224434 0
  outer loop
   vertex 0.0004064035601913929 0.00022680683468934149 1.2631062645471203e-12
   vertex 0.0004064035601913929 0.00022680683468934149 9.9999997473787516e-05
   vertex 0.00030792280449531972 0.00020944201969541609 9.9999997473787516e-05
  endloop
 endfacet
 facet normal 0 0 1
  outer loop
   vertex 0.00022680683468934149 9.3596419901587069e-05 9.9999997473787516e-05
   vertex 0.00032528763404116035 0.00011096123489551246 9.9999997473787516e-05
   vertex 0.00020944201969541609 0.00019207719014957547 9.9999997473787516e-05
  endloop
 endfacet
 facet normal 0 0 1
  outer loop
   vertex 0.00032528763404116035 0.00011096123489551246 9.9999997473787516e-05
   vertex 0.00030792280449531972 0.00020944201969541609 9.9999997473787516e-05
   vertex 0.00020944201969541609 0.00019207719014957547 9.9999997473787516e-05
  endloop
 endfacet
 facet normal 0 0 -1
  outer loop
   vertex 0.00022680683468934149 9.3596419901587069e-05 1.2631062645471203e-12
   vertex 0.00020944201969541609 0.00019207719014957547 1.2631062645471203e-12
   vertex 0.00032528763404116035 0.00011096123489551246 1.2631062645471203e-12
  endloop
 endfacet
 facet normal 0 -0 -1
  outer loop
   vertex 0.00020944201969541609 0.00019207719014957547 1.2631062645471203e-12
   vertex 0.00030792280449531972 0.00020944201969541609 1.2631062645471203e-12
   vertex 0.00032528763404116035 0.00011096123489551246 1.2631062645471203e-12
  endloop
 endfacet
 facet normal -0.98480775623018402 -0.17364815941688103 -0
  outer loop
   vertex 0.00022680683468934149 9.3596419901587069e-05 1.2631062645471203e-12
   vertex 0.00022680683468934149 9.3596419901587069e-05 9.9999997473787516e-05
   vertex 0.00020944201969541609 0.00019207719014957547 1.2631062645471203e-12
  endloop
 endfacet
 facet normal -0.98480775623018402 -0.17364815941688103 -0
  outer loop
   vertex 0.00022680683468934149 9.3596419901587069e-05 9.9999997473787516e-05
   vertex 0.00020944201969541609 0.00019207719014957547 9.9999997473787516e-05
   vertex 0.00020944201969541609 0.00019207719014957547 1.2631062645471203e-12
  endloop
 endfacet
 facet normal 0.98480773573287983 0.1736482756628423 0
  outer loop
   vertex 0.00032528763404116035 0.00011096123489551246 1.2631062645471203e-12
   vertex 0.00030792280449531972 0.00020944201969541609 1.2631062645471203e-12
   vertex 0.00032528763404116035 0.00011096123489551246 9.9999997473787516e-05
  endloop
 endfacet
 facet normal 0.98480773573287983 0.1736482756628423 0
  outer loop
   vertex 0.00030792280449531972 0.00020944201969541609 1.2631062645471203e-12
   vertex 0.00030792280449531972 0.00020944201969541609 9.9999997473787516e-05
   vertex 0.00032528763404116035 0.00011096123489551246 9.9999997473787516e-05
  endloop
 endfacet
endsolid
