solid Visualization Toolkit generated SLA File
 facet normal 0 -1 0
  outer loop
   vertex -5.0000006012851372e-05 -5.0000006012851372e-05 -5.0000002374872565e-05
   vertex 4.9999998736893758e-05 -5.0000006012851372e-05 -5.0000002374872565e-05
   vertex -5.0000006012851372e-05 -5.0000006012851372e-05 5.0000006012851372e-05
  endloop
 endfacet
 facet normal -0 -1 -0
  outer loop
   vertex 4.9999998736893758e-05 -5.0000006012851372e-05 -5.0000002374872565e-05
   vertex 4.9999998736893758e-05 -5.0000006012851372e-05 5.0000006012851372e-05
   vertex -5.0000006012851372e-05 -5.0000006012851372e-05 5.0000006012851372e-05
  endloop
 endfacet
 facet normal 0 1 0
  outer loop
   vertex -5.0000006012851372e-05 4.9999998736893758e-05 -5.0000002374872565e-05
   vertex -5.0000006012851372e-05 4.9999998736893758e-05 5.0000006012851372e-05
   vertex 4.9999998736893758e-05 4.9999998736893758e-05 -5.0000002374872565e-05
  endloop
 endfacet
 facet normal 0 1 0
  outer loop
   vertex -5.0000006012851372e-05 4.9999998736893758e-05 5.0000006012851372e-05
   vertex 4.9999998736893758e-05 4.9999998736893758e-05 5.0000006012851372e-05
   vertex 4.9999998736893758e-05 4.9999998736893758e-05 -5.0000002374872565e-05
  endloop
 endfacet
 facet normal -1 0 0
  outer loop
   vertex -5.0000006012851372e-05 -5.0000006012851372e-05 -5.0000002374872565e-05
   vertex -5.0000006012851372e-05 -5.0000006012851372e-05 5.0000006012851372e-05
   vertex -5.0000006012851372e-05 4.9999998736893758e-05 -5.0000002374872565e-05
  endloop
 endfacet
 facet normal -1 -0 -0
  outer loop
   vertex -5.0000006012851372e-05 -5.0000006012851372e-05 5.0000006012851372e-05
   vertex -5.0000006012851372e-05 4.9999998736893758e-05 5.0000006012851372e-05
   vertex -5.0000006012851372e-05 4.9999998736893758e-05 -5.0000002374872565e-05
  endloop
 endfacet
 facet normal 1 0 0
  outer loop
   vertex 4.9999998736893758e-05 -5.0000006012851372e-05 -5.0000002374872565e-05
   vertex 4.9999998736893758e-05 4.9999998736893758e-05 -5.0000002374872565e-05
   vertex 4.9999998736893758e-05 -5.0000006012851372e-05 5.0000006012851372e-05
  endloop
 endfacet
 facet normal 1 0 0
  outer loop
   vertex 4.9999998736893758e-05 4.9999998736893758e-05 -5.0000002374872565e-05
   vertex 4.9999998736893758e-05 4.9999998736893758e-05 5.0000006012851372e-05
   vertex 4.9999998736893758e-05 -5.0000006012851372e-05 5.0000006012851372e-05
  endloop
 endfacet
 facet normal 0 0 1
  outer loop
   vertex -5.0000006012851372e-05 -5.0000006012851372e-05 5.0000006012851372e-05
   vertex 4.9999998736893758e-05 -5.0000006012851372e-05 5.0000006012851372e-05
   vertex -5.0000006012851372e-05 4.9999998736893758e-05 5.0000006012851372e-05
  endloop
 endfacet
 facet normal 0 0 1
  outer loop
   vertex 4.9999998736893758e-05 -5.0000006012851372e-05 5.0000006012851372e-05
   vertex 4.9999998736893758e-05 4.9999998736893758e-05 5.0000006012851372e-05
   vertex -5.0000006012851372e-05 4.9999998736893758e-05 5.0000006012851372e-05
  endloop
 endfacet
 facet normal 0 -0 -1
  outer loop
   vertex -5.0000006012851372e-05 -5.0000006012851372e-05 -5.0000002374872565e-05
   vertex 2.3748725208605492e-11 2.3748725208605492e-11 -5.0000002374872565e-05
   vertex 4.9999998736893758e-05 -5.0000006012851372e-05 -5.0000002374872565e-05
  endloop
 endfacet
 facet normal -0 0 -1
  outer loop
   vertex -5.0000006012851372e-05 4.9999998736893758e-05 -5.0000002374872565e-05
   vertex 2.3748725208605492e-11 2.3748725208605492e-11 -5.0000002374872565e-05
   vertex -5.0000006012851372e-05 -5.0000006012851372e-05 -5.0000002374872565e-05
  endloop
 endfacet
 facet normal 0 0 -1
  outer loop
   vertex 4.9999998736893758e-05 4.9999998736893758e-05 -5.0000002374872565e-05
   vertex 2.3748725208605492e-11 2.3748725208605492e-11 -5.0000002374872565e-05
   vertex -5.0000006012851372e-05 4.9999998736893758e-05 -5.0000002374872565e-05
  endloop
 endfacet
 facet normal 0 0 -1
  outer loop
   vertex 4.9999998736893758e-05 -5.0000006012851372e-05 -5.0000002374872565e-05
   vertex 2.3748725208605492e-11 2.3748725208605492e-11 -5.0000002374872565e-05
   vertex 4.9999998736893758e-05 4.9999998736893758e-05 -5.0000002374872565e-05
  endloop
 endfacet
endsolid
