solid Visualization Toolkit generated SLA File
 facet normal 0.17364817603575486 -0.98480775329982828 0
  outer loop
   vertex -4.0557984902989119e-05 -5.7922803534893319e-05 -5.0000002374872565e-05
   vertex 5.7922796258935705e-05 -4.0557984902989119e-05 -5.0000002374872565e-05
   vertex -4.0557984902989119e-05 -5.7922803534893319e-05 5.0000006012851372e-05
  endloop
 endfacet
 facet normal 0.17364817603575486 -0.98480775329982828 0
  outer loop
   vertex 5.7922796258935705e-05 -4.0557984902989119e-05 -5.0000002374872565e-05
   vertex 5.7922796258935705e-05 -4.0557984902989119e-05 5.0000006012851372e-05
   vertex -4.0557984902989119e-05 -5.7922803534893319e-05 5.0000006012851372e-05
  endloop
 endfacet
 facet normal -0.17364817603575486 0.98480775329982828 0
  outer loop
   vertex -5.7922803534893319e-05 4.0557977627031505e-05 -5.0000002374872565e-05
   vertex -5.7922803534893319e-05 4.0557977627031505e-05 5.0000006012851372e-05
   vertex 4.0557977627031505e-05 5.7922796258935705e-05 -5.0000002374872565e-05
  endloop
 endfacet
 facet normal -0.17364817603575486 0.98480775329982828 0
  outer loop
   vertex -5.7922803534893319e-05 4.0557977627031505e-05 5.0000006012851372e-05
   vertex 4.0557977627031505e-05 5.7922796258935705e-05 5.0000006012851372e-05
   vertex 4.0557977627031505e-05 5.7922796258935705e-05 -5.0000002374872565e-05
  endloop
 endfacet
 facet normal -0.98480775329982828 -0.17364817603575486 -0
  outer loop
   vertex -4.0557984902989119e-05 -5.7922803534893319e-05 -5.0000002374872565e-05
   vertex -4.0557984902989119e-05 -5.7922803534893319e-05 5.0000006012851372e-05
   vertex -5.7922803534893319e-05 4.0557977627031505e-05 -5.0000002374872565e-05
  endloop
 endfacet
 facet normal -0.98480775329982828 -0.17364817603575486 -0
  outer loop
   vertex -4.0557984902989119e-05 -5.7922803534893319e-05 5.0000006012851372e-05
   vertex -5.7922803534893319e-05 4.0557977627031505e-05 5.0000006012851372e-05
   vertex -5.7922803534893319e-05 4.0557977627031505e-05 -5.0000002374872565e-05
  endloop
 endfacet
 facet normal 0.98480775329982828 0.17364817603575486 0
  outer loop
   vertex 5.7922796258935705e-05 -4.0557984902989119e-05 -5.0000002374872565e-05
   vertex 4.0557977627031505e-05 5.7922796258935705e-05 -5.0000002374872565e-05
   vertex 5.7922796258935705e-05 -4.0557984902989119e-05 5.0000006012851372e-05
  endloop
 endfacet
 facet normal 0.98480775329982828 0.17364817603575486 0
  outer loop
   vertex 4.0557977627031505e-05 5.7922796258935705e-05 -5.0000002374872565e-05
   vertex 4.0557977627031505e-05 5.7922796258935705e-05 5.0000006012851372e-05
   vertex 5.7922796258935705e-05 -4.0557984902989119e-05 5.0000006012851372e-05
  endloop
 endfacet
 facet normal 0 0 1
  outer loop
   vertex -4.0557984902989119e-05 -5.7922803534893319e-05 5.0000006012851372e-05
   vertex 5.7922796258935705e-05 -4.0557984902989119e-05 5.0000006012851372e-05
   vertex -5.7922803534893319e-05 4.0557977627031505e-05 5.0000006012851372e-05
  endloop
 endfacet
 facet normal 0 0 1
  outer loop
   vertex 5.7922796258935705e-05 -4.0557984902989119e-05 5.0000006012851372e-05
   vertex 4.0557977627031505e-05 5.7922796258935705e-05 5.0000006012851372e-05
   vertex -5.7922803534893319e-05 4.0557977627031505e-05 5.0000006012851372e-05
  endloop
 endfacet
 facet normal 0 -0 -1
  outer loop
   vertex -4.0557984902989119e-05 -5.7922803534893319e-05 -5.0000002374872565e-05
   vertex 1.9264005321484312e-11 2.75118521714246e-11 -5.0000002374872565e-05
   vertex 5.7922796258935705e-05 -4.0557984902989119e-05 -5.0000002374872565e-05
  endloop
 endfacet
 facet normal -0 0 -1
  outer loop
   vertex -5.7922803534893319e-05 4.0557977627031505e-05 -5.0000002374872565e-05
   vertex 1.9264005321484312e-11 2.75118521714246e-11 -5.0000002374872565e-05
   vertex -4.0557984902989119e-05 -5.7922803534893319e-05 -5.0000002374872565e-05
  endloop
 endfacet
 facet normal 0 0 -1
  outer loop
   vertex 4.0557977627031505e-05 5.7922796258935705e-05 -5.0000002374872565e-05
   vertex 1.9264005321484312e-11 2.75118521714246e-11 -5.0000002374872565e-05
   vertex -5.7922803534893319e-05 4.0557977627031505e-05 -5.0000002374872565e-05
  endloop
 endfacet
 facet normal 0 0 -1
  outer loop
   vertex 5.7922796258935705e-05 -4.0557984902989119e-05 -5.0000002374872565e-05
   vertex 1.9264005321484312e-11 2.75118521714246e-11 -5.0000002374872565e-05
   vertex 4.0557977627031505e-05 5.7922796258935705e-05 -5.0000002374872565e-05
  endloop
 endfacet
endsolid
