solid Visualization Toolkit generated SLA File
 facet normal 0.49999999684811453 -0.86602540560418051 0
  outer loop
   vertex -1.8301272575627081e-05 -6.830127676948905e-05 -5.0000002374872565e-05
   vertex 6.8301269493531436e-05 -1.8301276213605888e-05 -5.0000002374872565e-05
   vertex -1.8301272575627081e-05 -6.830127676948905e-05 5.0000006012851372e-05
  endloop
 endfacet
 facet normal 0.49999999684811453 -0.86602540560418051 0
  outer loop
   vertex 6.8301269493531436e-05 -1.8301276213605888e-05 -5.0000002374872565e-05
   vertex 6.8301269493531436e-05 -1.8301276213605888e-05 5.0000006012851372e-05
   vertex -1.8301272575627081e-05 -6.830127676948905e-05 5.0000006012851372e-05
  endloop
 endfacet
 facet normal -0.50000000838004466 0.86602539894621755 0
  outer loop
   vertex -6.830127676948905e-05 1.8301265299669467e-05 -5.0000002374872565e-05
   vertex -6.830127676948905e-05 1.8301265299669467e-05 5.0000006012851372e-05
   vertex 1.8301268937648274e-05 6.8301269493531436e-05 -5.0000002374872565e-05
  endloop
 endfacet
 facet normal -0.50000000838004466 0.86602539894621755 0
  outer loop
   vertex -6.830127676948905e-05 1.8301265299669467e-05 5.0000006012851372e-05
   vertex 1.8301268937648274e-05 6.8301269493531436e-05 5.0000006012851372e-05
   vertex 1.8301268937648274e-05 6.8301269493531436e-05 -5.0000002374872565e-05
  endloop
 endfacet
 facet normal -0.86602538985127042 -0.50000002413295452 -0
  outer loop
   vertex -1.8301272575627081e-05 -6.830127676948905e-05 -5.0000002374872565e-05
   vertex -1.8301272575627081e-05 -6.830127676948905e-05 5.0000006012851372e-05
   vertex -6.830127676948905e-05 1.8301265299669467e-05 -5.0000002374872565e-05
  endloop
 endfacet
 facet normal -0.86602538985127042 -0.50000002413295452 -0
  outer loop
   vertex -1.8301272575627081e-05 -6.830127676948905e-05 5.0000006012851372e-05
   vertex -6.830127676948905e-05 1.8301265299669467e-05 5.0000006012851372e-05
   vertex -6.830127676948905e-05 1.8301265299669467e-05 -5.0000002374872565e-05
  endloop
 endfacet
 facet normal 0.86602541469912686 0.49999998109520505 0
  outer loop
   vertex 6.8301269493531436e-05 -1.8301276213605888e-05 -5.0000002374872565e-05
   vertex 1.8301268937648274e-05 6.8301269493531436e-05 -5.0000002374872565e-05
   vertex 6.8301269493531436e-05 -1.8301276213605888e-05 5.0000006012851372e-05
  endloop
 endfacet
 facet normal 0.86602541469912686 0.49999998109520505 0
  outer loop
   vertex 1.8301268937648274e-05 6.8301269493531436e-05 -5.0000002374872565e-05
   vertex 1.8301268937648274e-05 6.8301269493531436e-05 5.0000006012851372e-05
   vertex 6.8301269493531436e-05 -1.8301276213605888e-05 5.0000006012851372e-05
  endloop
 endfacet
 facet normal 0 0 1
  outer loop
   vertex -1.8301272575627081e-05 -6.830127676948905e-05 5.0000006012851372e-05
   vertex 6.8301269493531436e-05 -1.8301276213605888e-05 5.0000006012851372e-05
   vertex -6.830127676948905e-05 1.8301265299669467e-05 5.0000006012851372e-05
  endloop
 endfacet
 facet normal 0 0 1
  outer loop
   vertex 6.8301269493531436e-05 -1.8301276213605888e-05 5.0000006012851372e-05
   vertex 1.8301268937648274e-05 6.8301269493531436e-05 5.0000006012851372e-05
   vertex -6.830127676948905e-05 1.8301265299669467e-05 5.0000006012851372e-05
  endloop
 endfacet
 facet normal 0 -0 -1
  outer loop
   vertex -1.8301272575627081e-05 -6.830127676948905e-05 -5.0000002374872565e-05
   vertex 8.6926368880746452e-12 3.2441362096680137e-11 -5.0000002374872565e-05
   vertex 6.8301269493531436e-05 -1.8301276213605888e-05 -5.0000002374872565e-05
  endloop
 endfacet
 facet normal -0 0 -1
  outer loop
   vertex -6.830127676948905e-05 1.8301265299669467e-05 -5.0000002374872565e-05
   vertex 8.6926368880746452e-12 3.2441362096680137e-11 -5.0000002374872565e-05
   vertex -1.8301272575627081e-05 -6.830127676948905e-05 -5.0000002374872565e-05
  endloop
 endfacet
 facet normal 0 0 -1
  outer loop
   vertex 1.8301268937648274e-05 6.8301269493531436e-05 -5.0000002374872565e-05
   vertex 8.6926368880746452e-12 3.2441362096680137e-11 -5.0000002374872565e-05
   vertex -6.830127676948905e-05 1.8301265299669467e-05 -5.0000002374872565e-05
  endloop
 endfacet
 facet normal 0 0 -1
  outer loop
   vertex 6.8301269493531436e-05 -1.8301276213605888e-05 -5.0000002374872565e-05
   vertex 8.6926368880746452e-12 3.2441362096680137e-11 -5.0000002374872565e-05
   vertex 1.8301268937648274e-05 6.8301269493531436e-05 -5.0000002374872565e-05
  endloop
 endfacet
endsolid
