solid Visualization Toolkit generated SLA File
 facet normal 0.3420201449683834 -0.93969262018800914 0
  outer loop
   vertex -2.9883627576055005e-05 -6.4085645135492086e-05 -5.0000002374872565e-05
   vertex 6.4085637859534472e-05 -2.9883629395044409e-05 -5.0000002374872565e-05
   vertex -2.9883627576055005e-05 -6.4085645135492086e-05 5.0000006012851372e-05
  endloop
 endfacet
 facet normal 0.3420201449683834 -0.93969262018800914 0
  outer loop
   vertex 6.4085637859534472e-05 -2.9883629395044409e-05 -5.0000002374872565e-05
   vertex 6.4085637859534472e-05 -2.9883629395044409e-05 5.0000006012851372e-05
   vertex -2.9883627576055005e-05 -6.4085645135492086e-05 5.0000006012851372e-05
  endloop
 endfacet
 facet normal -0.34202014933822511 0.93969261859751674 0
  outer loop
   vertex -6.4085645135492086e-05 2.9883620300097391e-05 -5.0000002374872565e-05
   vertex -6.4085645135492086e-05 2.9883620300097391e-05 5.0000006012851372e-05
   vertex 2.9883623938076198e-05 6.4085637859534472e-05 -5.0000002374872565e-05
  endloop
 endfacet
 facet normal -0.34202014933822511 0.93969261859751674 0
  outer loop
   vertex -6.4085645135492086e-05 2.9883620300097391e-05 5.0000006012851372e-05
   vertex 2.9883623938076198e-05 6.4085637859534472e-05 5.0000006012851372e-05
   vertex 2.9883623938076198e-05 6.4085637859534472e-05 -5.0000002374872565e-05
  endloop
 endfacet
 facet normal -0.93969261434189 -0.34202016103046323 -0
  outer loop
   vertex -2.9883627576055005e-05 -6.4085645135492086e-05 -5.0000002374872565e-05
   vertex -2.9883627576055005e-05 -6.4085645135492086e-05 5.0000006012851372e-05
   vertex -6.4085645135492086e-05 2.9883620300097391e-05 -5.0000002374872565e-05
  endloop
 endfacet
 facet normal -0.93969261434189 -0.34202016103046323 -0
  outer loop
   vertex -2.9883627576055005e-05 -6.4085645135492086e-05 5.0000006012851372e-05
   vertex -6.4085645135492086e-05 2.9883620300097391e-05 5.0000006012851372e-05
   vertex -6.4085645135492086e-05 2.9883620300097391e-05 -5.0000002374872565e-05
  endloop
 endfacet
 facet normal 0.93969262816194121 0.34202012306018442 0
  outer loop
   vertex 6.4085637859534472e-05 -2.9883629395044409e-05 -5.0000002374872565e-05
   vertex 2.9883623938076198e-05 6.4085637859534472e-05 -5.0000002374872565e-05
   vertex 6.4085637859534472e-05 -2.9883629395044409e-05 5.0000006012851372e-05
  endloop
 endfacet
 facet normal 0.93969262816194121 0.34202012306018442 0
  outer loop
   vertex 2.9883623938076198e-05 6.4085637859534472e-05 -5.0000002374872565e-05
   vertex 2.9883623938076198e-05 6.4085637859534472e-05 5.0000006012851372e-05
   vertex 6.4085637859534472e-05 -2.9883629395044409e-05 5.0000006012851372e-05
  endloop
 endfacet
 facet normal 0 0 1
  outer loop
   vertex -2.9883627576055005e-05 -6.4085645135492086e-05 5.0000006012851372e-05
   vertex 6.4085637859534472e-05 -2.9883629395044409e-05 5.0000006012851372e-05
   vertex -6.4085645135492086e-05 2.9883620300097391e-05 5.0000006012851372e-05
  endloop
 endfacet
 facet normal 0 0 1
  outer loop
   vertex 6.4085637859534472e-05 -2.9883629395044409e-05 5.0000006012851372e-05
   vertex 2.9883623938076198e-05 6.4085637859534472e-05 5.0000006012851372e-05
   vertex -6.4085645135492086e-05 2.9883620300097391e-05 5.0000006012851372e-05
  endloop
 endfacet
 facet normal 0 -0 -1
  outer loop
   vertex -2.9883627576055005e-05 -6.4085645135492086e-05 -5.0000002374872565e-05
   vertex 1.4193959375907728e-11 3.04390436467461e-11 -5.0000002374872565e-05
   vertex 6.4085637859534472e-05 -2.9883629395044409e-05 -5.0000002374872565e-05
  endloop
 endfacet
 facet normal -0 0 -1
  outer loop
   vertex -6.4085645135492086e-05 2.9883620300097391e-05 -5.0000002374872565e-05
   vertex 1.4193959375907728e-11 3.04390436467461e-11 -5.0000002374872565e-05
   vertex -2.9883627576055005e-05 -6.4085645135492086e-05 -5.0000002374872565e-05
  endloop
 endfacet
 facet normal 0 0 -1
  outer loop
   vertex 2.9883623938076198e-05 6.4085637859534472e-05 -5.0000002374872565e-05
   vertex 1.4193959375907728e-11 3.04390436467461e-11 -5.0000002374872565e-05
   vertex -6.4085645135492086e-05 2.9883620300097391e-05 -5.0000002374872565e-05
  endloop
 endfacet
 facet normal 0 0 -1
  outer loop
   vertex 6.4085637859534472e-05 -2.9883629395044409e-05 -5.0000002374872565e-05
   vertex 1.4193959375907728e-11 3.04390436467461e-11 -5.0000002374872565e-05
   vertex 2.9883623938076198e-05 6.4085637859534472e-05 -5.0000002374872565e-05
  endloop
 endfacet
endsolid
