solid Visualization Toolkit generated SLA File
 facet normal 0.70710679184194059 -0.70710677053115445 0
  outer loop
   vertex 6.7762635780344027e-21 -7.0710688305553049e-05 -5.0000002374872565e-05
   vertex 7.0710681029595435e-05 -5.144878880564141e-12 -5.0000002374872565e-05
   vertex 6.7762635780344027e-21 -7.0710688305553049e-05 5.0000006012851372e-05
  endloop
 endfacet
 facet normal 0.70710679184194059 -0.70710677053115445 0
  outer loop
   vertex 7.0710681029595435e-05 -5.144878880564141e-12 -5.0000002374872565e-05
   vertex 7.0710681029595435e-05 -5.144878880564141e-12 5.0000006012851372e-05
   vertex 6.7762635780344027e-21 -7.0710688305553049e-05 5.0000006012851372e-05
  endloop
 endfacet
 facet normal -0.70710677053115412 0.70710679184194081 0
  outer loop
   vertex -7.0710681029595435e-05 -5.144878880564141e-12 -5.0000002374872565e-05
   vertex -7.0710681029595435e-05 -5.144878880564141e-12 5.0000006012851372e-05
   vertex -6.7762635780344027e-21 7.071067375363782e-05 -5.0000002374872565e-05
  endloop
 endfacet
 facet normal -0.70710677053115412 0.70710679184194081 0
  outer loop
   vertex -7.0710681029595435e-05 -5.144878880564141e-12 5.0000006012851372e-05
   vertex -6.7762635780344027e-21 7.071067375363782e-05 5.0000006012851372e-05
   vertex -6.7762635780344027e-21 7.071067375363782e-05 -5.0000002374872565e-05
  endloop
 endfacet
 facet normal -0.70710679184194059 -0.70710677053115445 -0
  outer loop
   vertex 6.7762635780344027e-21 -7.0710688305553049e-05 -5.0000002374872565e-05
   vertex 6.7762635780344027e-21 -7.0710688305553049e-05 5.0000006012851372e-05
   vertex -7.0710681029595435e-05 -5.144878880564141e-12 -5.0000002374872565e-05
  endloop
 endfacet
 facet normal -0.70710679184194059 -0.70710677053115445 -0
  outer loop
   vertex 6.7762635780344027e-21 -7.0710688305553049e-05 5.0000006012851372e-05
   vertex -7.0710681029595435e-05 -5.144878880564141e-12 5.0000006012851372e-05
   vertex -7.0710681029595435e-05 -5.144878880564141e-12 -5.0000002374872565e-05
  endloop
 endfacet
 facet normal 0.70710677053115412 0.70710679184194081 0
  outer loop
   vertex 7.0710681029595435e-05 -5.144878880564141e-12 -5.0000002374872565e-05
   vertex -6.7762635780344027e-21 7.071067375363782e-05 -5.0000002374872565e-05
   vertex 7.0710681029595435e-05 -5.144878880564141e-12 5.0000006012851372e-05
  endloop
 endfacet
 facet normal 0.70710677053115412 0.70710679184194081 0
  outer loop
   vertex -6.7762635780344027e-21 7.071067375363782e-05 -5.0000002374872565e-05
   vertex -6.7762635780344027e-21 7.071067375363782e-05 5.0000006012851372e-05
   vertex 7.0710681029595435e-05 -5.144878880564141e-12 5.0000006012851372e-05
  endloop
 endfacet
 facet normal 0 0 1
  outer loop
   vertex 6.7762635780344027e-21 -7.0710688305553049e-05 5.0000006012851372e-05
   vertex 7.0710681029595435e-05 -5.144878880564141e-12 5.0000006012851372e-05
   vertex -7.0710681029595435e-05 -5.144878880564141e-12 5.0000006012851372e-05
  endloop
 endfacet
 facet normal 0 0 1
  outer loop
   vertex 7.0710681029595435e-05 -5.144878880564141e-12 5.0000006012851372e-05
   vertex -6.7762635780344027e-21 7.071067375363782e-05 5.0000006012851372e-05
   vertex -7.0710681029595435e-05 -5.144878880564141e-12 5.0000006012851372e-05
  endloop
 endfacet
 facet normal 0 0 -1
  outer loop
   vertex 6.7762635780344027e-21 -7.0710688305553049e-05 -5.0000002374872565e-05
   vertex -3.2311742677852644e-27 3.3585769582122893e-11 -5.0000002374872565e-05
   vertex 7.0710681029595435e-05 -5.144878880564141e-12 -5.0000002374872565e-05
  endloop
 endfacet
 facet normal 0 -0 -1
  outer loop
   vertex -7.0710681029595435e-05 -5.144878880564141e-12 -5.0000002374872565e-05
   vertex -3.2311742677852644e-27 3.3585769582122893e-11 -5.0000002374872565e-05
   vertex 6.7762635780344027e-21 -7.0710688305553049e-05 -5.0000002374872565e-05
  endloop
 endfacet
 facet normal -0 0 -1
  outer loop
   vertex -6.7762635780344027e-21 7.071067375363782e-05 -5.0000002374872565e-05
   vertex -3.2311742677852644e-27 3.3585769582122893e-11 -5.0000002374872565e-05
   vertex -7.0710681029595435e-05 -5.144878880564141e-12 -5.0000002374872565e-05
  endloop
 endfacet
 facet normal 0 0 -1
  outer loop
   vertex 7.0710681029595435e-05 -5.144878880564141e-12 -5.0000002374872565e-05
   vertex -3.2311742677852644e-27 3.3585769582122893e-11 -5.0000002374872565e-05
   vertex -6.7762635780344027e-21 7.071067375363782e-05 -5.0000002374872565e-05
  endloop
 endfacet
endsolid
