solid
facet normal 0.000000e+00 0.000000e+00 1.000000e+00
    outer loop
    vertex 0.000000e+00 3.000000e-03 1.000000e-04
    vertex 1.000000e-04 3.000000e-03 1.000000e-04
    vertex 0.000000e+00 3.100000e-03 1.000000e-04
    endloop
endfacet
facet normal 0.000000e+00 0.000000e+00 1.000000e+00
    outer loop
    vertex 1.000000e-04 3.000000e-03 1.000000e-04
    vertex 1.000000e-04 3.100000e-03 1.000000e-04
    vertex 0.000000e+00 3.100000e-03 1.000000e-04
    endloop
endfacet
facet normal 0.000000e+00 0.000000e+00 -1.000000e+00
    outer loop
    vertex 0.000000e+00 3.000000e-03 0.000000e+00
    vertex 0.000000e+00 3.100000e-03 0.000000e+00
    vertex 1.000000e-04 3.000000e-03 0.000000e+00
    endloop
endfacet
facet normal 0.000000e+00 0.000000e+00 -1.000000e+00
    outer loop
    vertex 0.000000e+00 3.100000e-03 0.000000e+00
    vertex 1.000000e-04 3.100000e-03 0.000000e+00
    vertex 1.000000e-04 3.000000e-03 0.000000e+00
    endloop
endfacet
facet normal -1.000000e+00 0.000000e+00 0.000000e+00
    outer loop
    vertex 0.000000e+00 3.000000e-03 0.000000e+00
    vertex 0.000000e+00 3.000000e-03 1.000000e-04
    vertex 0.000000e+00 3.100000e-03 0.000000e+00
    endloop
endfacet
facet normal -1.000000e+00 0.000000e+00 0.000000e+00
    outer loop
    vertex 0.000000e+00 3.000000e-03 1.000000e-04
    vertex 0.000000e+00 3.100000e-03 1.000000e-04
    vertex 0.000000e+00 3.100000e-03 0.000000e+00
    endloop
endfacet
facet normal 0.000000e+00 1.000000e+00 0.000000e+00
    outer loop
    vertex 0.000000e+00 3.100000e-03 0.000000e+00
    vertex 0.000000e+00 3.100000e-03 1.000000e-04
    vertex 1.000000e-04 3.100000e-03 0.000000e+00
    endloop
endfacet
facet normal 0.000000e+00 1.000000e+00 0.000000e+00
    outer loop
    vertex 0.000000e+00 3.100000e-03 1.000000e-04
    vertex 1.000000e-04 3.100000e-03 1.000000e-04
    vertex 1.000000e-04 3.100000e-03 0.000000e+00
    endloop
endfacet
facet normal 0.000000e+00 -1.000000e+00 0.000000e+00
    outer loop
    vertex 0.000000e+00 3.000000e-03 0.000000e+00
    vertex 1.000000e-04 3.000000e-03 0.000000e+00
    vertex 0.000000e+00 3.000000e-03 1.000000e-04
    endloop
endfacet
facet normal 0.000000e+00 -1.000000e+00 0.000000e+00
    outer loop
    vertex 1.000000e-04 3.000000e-03 0.000000e+00
    vertex 1.000000e-04 3.000000e-03 1.000000e-04
    vertex 0.000000e+00 3.000000e-03 1.000000e-04
    endloop
endfacet
facet normal 0.000000e+00 0.000000e+00 1.000000e+00
    outer loop
    vertex 2.950000e-03 6.000000e-03 1.000000e-04
    vertex 3.050000e-03 6.000000e-03 1.000000e-04
    vertex 2.950000e-03 6.100000e-03 1.000000e-04
    endloop
endfacet
facet normal 0.000000e+00 0.000000e+00 1.000000e+00
    outer loop
    vertex 3.050000e-03 6.000000e-03 1.000000e-04
    vertex 3.050000e-03 6.100000e-03 1.000000e-04
    vertex 2.950000e-03 6.100000e-03 1.000000e-04
    endloop
endfacet
facet normal 0.000000e+00 0.000000e+00 -1.000000e+00
    outer loop
    vertex 2.950000e-03 6.000000e-03 0.000000e+00
    vertex 2.950000e-03 6.100000e-03 0.000000e+00
    vertex 3.050000e-03 6.000000e-03 0.000000e+00
    endloop
endfacet
facet normal 0.000000e+00 0.000000e+00 -1.000000e+00
    outer loop
    vertex 2.950000e-03 6.100000e-03 0.000000e+00
    vertex 3.050000e-03 6.100000e-03 0.000000e+00
    vertex 3.050000e-03 6.000000e-03 0.000000e+00
    endloop
endfacet
facet normal -1.000000e+00 0.000000e+00 0.000000e+00
    outer loop
    vertex 2.950000e-03 6.000000e-03 0.000000e+00
    vertex 2.950000e-03 6.000000e-03 1.000000e-04
    vertex 2.950000e-03 6.100000e-03 0.000000e+00
    endloop
endfacet
facet normal -1.000000e+00 0.000000e+00 0.000000e+00
    outer loop
    vertex 2.950000e-03 6.000000e-03 1.000000e-04
    vertex 2.950000e-03 6.100000e-03 1.000000e-04
    vertex 2.950000e-03 6.100000e-03 0.000000e+00
    endloop
endfacet
facet normal 0.000000e+00 1.000000e+00 0.000000e+00
    outer loop
    vertex 2.950000e-03 6.100000e-03 0.000000e+00
    vertex 2.950000e-03 6.100000e-03 1.000000e-04
    vertex 3.050000e-03 6.100000e-03 0.000000e+00
    endloop
endfacet
facet normal 0.000000e+00 1.000000e+00 0.000000e+00
    outer loop
    vertex 2.950000e-03 6.100000e-03 1.000000e-04
    vertex 3.050000e-03 6.100000e-03 1.000000e-04
    vertex 3.050000e-03 6.100000e-03 0.000000e+00
    endloop
endfacet
facet normal 0.000000e+00 0.000000e+00 1.000000e+00
    outer loop
    vertex 2.950000e-03 3.000000e-03 1.000000e-04
    vertex 3.050000e-03 3.000000e-03 1.000000e-04
    vertex 2.950000e-03 3.100000e-03 1.000000e-04
    endloop
endfacet
facet normal 0.000000e+00 0.000000e+00 1.000000e+00
    outer loop
    vertex 3.050000e-03 3.000000e-03 1.000000e-04
    vertex 3.050000e-03 3.100000e-03 1.000000e-04
    vertex 2.950000e-03 3.100000e-03 1.000000e-04
    endloop
endfacet
facet normal 0.000000e+00 0.000000e+00 -1.000000e+00
    outer loop
    vertex 2.950000e-03 3.000000e-03 0.000000e+00
    vertex 2.950000e-03 3.100000e-03 0.000000e+00
    vertex 3.050000e-03 3.000000e-03 0.000000e+00
    endloop
endfacet
facet normal 0.000000e+00 0.000000e+00 -1.000000e+00
    outer loop
    vertex 2.950000e-03 3.100000e-03 0.000000e+00
    vertex 3.050000e-03 3.100000e-03 0.000000e+00
    vertex 3.050000e-03 3.000000e-03 0.000000e+00
    endloop
endfacet
facet normal 0.000000e+00 -1.000000e+00 0.000000e+00
    outer loop
    vertex 2.950000e-03 3.000000e-03 0.000000e+00
    vertex 3.050000e-03 3.000000e-03 0.000000e+00
    vertex 2.950000e-03 3.000000e-03 1.000000e-04
    endloop
endfacet
facet normal 0.000000e+00 -1.000000e+00 0.000000e+00
    outer loop
    vertex 3.050000e-03 3.000000e-03 0.000000e+00
    vertex 3.050000e-03 3.000000e-03 1.000000e-04
    vertex 2.950000e-03 3.000000e-03 1.000000e-04
    endloop
endfacet
facet normal 0.000000e+00 0.000000e+00 1.000000e+00
    outer loop
    vertex 5.950000e-03 6.000000e-03 1.000000e-04
    vertex 6.050000e-03 6.000000e-03 1.000000e-04
    vertex 5.950000e-03 6.100000e-03 1.000000e-04
    endloop
endfacet
facet normal 0.000000e+00 0.000000e+00 1.000000e+00
    outer loop
    vertex 6.050000e-03 6.000000e-03 1.000000e-04
    vertex 6.050000e-03 6.100000e-03 1.000000e-04
    vertex 5.950000e-03 6.100000e-03 1.000000e-04
    endloop
endfacet
facet normal 0.000000e+00 0.000000e+00 -1.000000e+00
    outer loop
    vertex 5.950000e-03 6.000000e-03 0.000000e+00
    vertex 5.950000e-03 6.100000e-03 0.000000e+00
    vertex 6.050000e-03 6.000000e-03 0.000000e+00
    endloop
endfacet
facet normal 0.000000e+00 0.000000e+00 -1.000000e+00
    outer loop
    vertex 5.950000e-03 6.100000e-03 0.000000e+00
    vertex 6.050000e-03 6.100000e-03 0.000000e+00
    vertex 6.050000e-03 6.000000e-03 0.000000e+00
    endloop
endfacet
facet normal 0.000000e+00 1.000000e+00 0.000000e+00
    outer loop
    vertex 5.950000e-03 6.100000e-03 0.000000e+00
    vertex 5.950000e-03 6.100000e-03 1.000000e-04
    vertex 6.050000e-03 6.100000e-03 0.000000e+00
    endloop
endfacet
facet normal 0.000000e+00 1.000000e+00 0.000000e+00
    outer loop
    vertex 5.950000e-03 6.100000e-03 1.000000e-04
    vertex 6.050000e-03 6.100000e-03 1.000000e-04
    vertex 6.050000e-03 6.100000e-03 0.000000e+00
    endloop
endfacet
facet normal 1.000000e+00 0.000000e+00 0.000000e+00
    outer loop
    vertex 6.050000e-03 6.000000e-03 0.000000e+00
    vertex 6.050000e-03 6.100000e-03 0.000000e+00
    vertex 6.050000e-03 6.000000e-03 1.000000e-04
    endloop
endfacet
facet normal 1.000000e+00 0.000000e+00 0.000000e+00
    outer loop
    vertex 6.050000e-03 6.100000e-03 0.000000e+00
    vertex 6.050000e-03 6.100000e-03 1.000000e-04
    vertex 6.050000e-03 6.000000e-03 1.000000e-04
    endloop
endfacet
facet normal 0.000000e+00 0.000000e+00 1.000000e+00
    outer loop
    vertex 5.950000e-03 3.000000e-03 1.000000e-04
    vertex 6.050000e-03 3.000000e-03 1.000000e-04
    vertex 5.950000e-03 3.100000e-03 1.000000e-04
    endloop
endfacet
facet normal 0.000000e+00 0.000000e+00 1.000000e+00
    outer loop
    vertex 6.050000e-03 3.000000e-03 1.000000e-04
    vertex 6.050000e-03 3.100000e-03 1.000000e-04
    vertex 5.950000e-03 3.100000e-03 1.000000e-04
    endloop
endfacet
facet normal 0.000000e+00 0.000000e+00 -1.000000e+00
    outer loop
    vertex 5.950000e-03 3.000000e-03 0.000000e+00
    vertex 5.950000e-03 3.100000e-03 0.000000e+00
    vertex 6.050000e-03 3.000000e-03 0.000000e+00
    endloop
endfacet
facet normal 0.000000e+00 0.000000e+00 -1.000000e+00
    outer loop
    vertex 5.950000e-03 3.100000e-03 0.000000e+00
    vertex 6.050000e-03 3.100000e-03 0.000000e+00
    vertex 6.050000e-03 3.000000e-03 0.000000e+00
    endloop
endfacet
facet normal 0.000000e+00 0.000000e+00 1.000000e+00
    outer loop
    vertex 5.950000e-03 0.000000e+00 1.000000e-04
    vertex 6.050000e-03 0.000000e+00 1.000000e-04
    vertex 5.950000e-03 1.000000e-04 1.000000e-04
    endloop
endfacet
facet normal 0.000000e+00 0.000000e+00 1.000000e+00
    outer loop
    vertex 6.050000e-03 0.000000e+00 1.000000e-04
    vertex 6.050000e-03 1.000000e-04 1.000000e-04
    vertex 5.950000e-03 1.000000e-04 1.000000e-04
    endloop
endfacet
facet normal 0.000000e+00 0.000000e+00 -1.000000e+00
    outer loop
    vertex 5.950000e-03 0.000000e+00 0.000000e+00
    vertex 5.950000e-03 1.000000e-04 0.000000e+00
    vertex 6.050000e-03 0.000000e+00 0.000000e+00
    endloop
endfacet
facet normal 0.000000e+00 0.000000e+00 -1.000000e+00
    outer loop
    vertex 5.950000e-03 1.000000e-04 0.000000e+00
    vertex 6.050000e-03 1.000000e-04 0.000000e+00
    vertex 6.050000e-03 0.000000e+00 0.000000e+00
    endloop
endfacet
facet normal -1.000000e+00 0.000000e+00 0.000000e+00
    outer loop
    vertex 5.950000e-03 0.000000e+00 0.000000e+00
    vertex 5.950000e-03 0.000000e+00 1.000000e-04
    vertex 5.950000e-03 1.000000e-04 0.000000e+00
    endloop
endfacet
facet normal -1.000000e+00 0.000000e+00 0.000000e+00
    outer loop
    vertex 5.950000e-03 0.000000e+00 1.000000e-04
    vertex 5.950000e-03 1.000000e-04 1.000000e-04
    vertex 5.950000e-03 1.000000e-04 0.000000e+00
    endloop
endfacet
facet normal 0.000000e+00 -1.000000e+00 0.000000e+00
    outer loop
    vertex 5.950000e-03 0.000000e+00 0.000000e+00
    vertex 6.050000e-03 0.000000e+00 0.000000e+00
    vertex 5.950000e-03 0.000000e+00 1.000000e-04
    endloop
endfacet
facet normal 0.000000e+00 -1.000000e+00 0.000000e+00
    outer loop
    vertex 6.050000e-03 0.000000e+00 0.000000e+00
    vertex 6.050000e-03 0.000000e+00 1.000000e-04
    vertex 5.950000e-03 0.000000e+00 1.000000e-04
    endloop
endfacet
facet normal 0.000000e+00 0.000000e+00 1.000000e+00
    outer loop
    vertex 8.950000e-03 3.000000e-03 1.000000e-04
    vertex 9.050000e-03 3.000000e-03 1.000000e-04
    vertex 8.950000e-03 3.100000e-03 1.000000e-04
    endloop
endfacet
facet normal 0.000000e+00 0.000000e+00 1.000000e+00
    outer loop
    vertex 9.050000e-03 3.000000e-03 1.000000e-04
    vertex 9.050000e-03 3.100000e-03 1.000000e-04
    vertex 8.950000e-03 3.100000e-03 1.000000e-04
    endloop
endfacet
facet normal 0.000000e+00 0.000000e+00 -1.000000e+00
    outer loop
    vertex 8.950000e-03 3.000000e-03 0.000000e+00
    vertex 8.950000e-03 3.100000e-03 0.000000e+00
    vertex 9.050000e-03 3.000000e-03 0.000000e+00
    endloop
endfacet
facet normal 0.000000e+00 0.000000e+00 -1.000000e+00
    outer loop
    vertex 8.950000e-03 3.100000e-03 0.000000e+00
    vertex 9.050000e-03 3.100000e-03 0.000000e+00
    vertex 9.050000e-03 3.000000e-03 0.000000e+00
    endloop
endfacet
facet normal 0.000000e+00 1.000000e+00 0.000000e+00
    outer loop
    vertex 8.950000e-03 3.100000e-03 0.000000e+00
    vertex 8.950000e-03 3.100000e-03 1.000000e-04
    vertex 9.050000e-03 3.100000e-03 0.000000e+00
    endloop
endfacet
facet normal 0.000000e+00 1.000000e+00 0.000000e+00
    outer loop
    vertex 8.950000e-03 3.100000e-03 1.000000e-04
    vertex 9.050000e-03 3.100000e-03 1.000000e-04
    vertex 9.050000e-03 3.100000e-03 0.000000e+00
    endloop
endfacet
facet normal 1.000000e+00 0.000000e+00 0.000000e+00
    outer loop
    vertex 9.050000e-03 3.000000e-03 0.000000e+00
    vertex 9.050000e-03 3.100000e-03 0.000000e+00
    vertex 9.050000e-03 3.000000e-03 1.000000e-04
    endloop
endfacet
facet normal 1.000000e+00 0.000000e+00 0.000000e+00
    outer loop
    vertex 9.050000e-03 3.100000e-03 0.000000e+00
    vertex 9.050000e-03 3.100000e-03 1.000000e-04
    vertex 9.050000e-03 3.000000e-03 1.000000e-04
    endloop
endfacet
facet normal 0.000000e+00 0.000000e+00 1.000000e+00
    outer loop
    vertex 8.950000e-03 0.000000e+00 1.000000e-04
    vertex 9.050000e-03 0.000000e+00 1.000000e-04
    vertex 8.950000e-03 1.000000e-04 1.000000e-04
    endloop
endfacet
facet normal 0.000000e+00 0.000000e+00 1.000000e+00
    outer loop
    vertex 9.050000e-03 0.000000e+00 1.000000e-04
    vertex 9.050000e-03 1.000000e-04 1.000000e-04
    vertex 8.950000e-03 1.000000e-04 1.000000e-04
    endloop
endfacet
facet normal 0.000000e+00 0.000000e+00 -1.000000e+00
    outer loop
    vertex 8.950000e-03 0.000000e+00 0.000000e+00
    vertex 8.950000e-03 1.000000e-04 0.000000e+00
    vertex 9.050000e-03 0.000000e+00 0.000000e+00
    endloop
endfacet
facet normal 0.000000e+00 0.000000e+00 -1.000000e+00
    outer loop
    vertex 8.950000e-03 1.000000e-04 0.000000e+00
    vertex 9.050000e-03 1.000000e-04 0.000000e+00
    vertex 9.050000e-03 0.000000e+00 0.000000e+00
    endloop
endfacet
facet normal 0.000000e+00 -1.000000e+00 0.000000e+00
    outer loop
    vertex 8.950000e-03 0.000000e+00 0.000000e+00
    vertex 9.050000e-03 0.000000e+00 0.000000e+00
    vertex 8.950000e-03 0.000000e+00 1.000000e-04
    endloop
endfacet
facet normal 0.000000e+00 -1.000000e+00 0.000000e+00
    outer loop
    vertex 9.050000e-03 0.000000e+00 0.000000e+00
    vertex 9.050000e-03 0.000000e+00 1.000000e-04
    vertex 8.950000e-03 0.000000e+00 1.000000e-04
    endloop
endfacet
facet normal 0.000000e+00 0.000000e+00 1.000000e+00
    outer loop
    vertex 1.190000e-02 0.000000e+00 1.000000e-04
    vertex 1.200000e-02 0.000000e+00 1.000000e-04
    vertex 1.190000e-02 1.000000e-04 1.000000e-04
    endloop
endfacet
facet normal 0.000000e+00 0.000000e+00 1.000000e+00
    outer loop
    vertex 1.200000e-02 0.000000e+00 1.000000e-04
    vertex 1.200000e-02 1.000000e-04 1.000000e-04
    vertex 1.190000e-02 1.000000e-04 1.000000e-04
    endloop
endfacet
facet normal 0.000000e+00 0.000000e+00 -1.000000e+00
    outer loop
    vertex 1.190000e-02 0.000000e+00 0.000000e+00
    vertex 1.190000e-02 1.000000e-04 0.000000e+00
    vertex 1.200000e-02 0.000000e+00 0.000000e+00
    endloop
endfacet
facet normal 0.000000e+00 0.000000e+00 -1.000000e+00
    outer loop
    vertex 1.190000e-02 1.000000e-04 0.000000e+00
    vertex 1.200000e-02 1.000000e-04 0.000000e+00
    vertex 1.200000e-02 0.000000e+00 0.000000e+00
    endloop
endfacet
facet normal 0.000000e+00 1.000000e+00 0.000000e+00
    outer loop
    vertex 1.190000e-02 1.000000e-04 0.000000e+00
    vertex 1.190000e-02 1.000000e-04 1.000000e-04
    vertex 1.200000e-02 1.000000e-04 0.000000e+00
    endloop
endfacet
facet normal 0.000000e+00 1.000000e+00 0.000000e+00
    outer loop
    vertex 1.190000e-02 1.000000e-04 1.000000e-04
    vertex 1.200000e-02 1.000000e-04 1.000000e-04
    vertex 1.200000e-02 1.000000e-04 0.000000e+00
    endloop
endfacet
facet normal 1.000000e+00 0.000000e+00 0.000000e+00
    outer loop
    vertex 1.200000e-02 0.000000e+00 0.000000e+00
    vertex 1.200000e-02 1.000000e-04 0.000000e+00
    vertex 1.200000e-02 0.000000e+00 1.000000e-04
    endloop
endfacet
facet normal 1.000000e+00 0.000000e+00 0.000000e+00
    outer loop
    vertex 1.200000e-02 1.000000e-04 0.000000e+00
    vertex 1.200000e-02 1.000000e-04 1.000000e-04
    vertex 1.200000e-02 0.000000e+00 1.000000e-04
    endloop
endfacet
facet normal 0.000000e+00 -1.000000e+00 0.000000e+00
    outer loop
    vertex 1.190000e-02 0.000000e+00 0.000000e+00
    vertex 1.200000e-02 0.000000e+00 0.000000e+00
    vertex 1.190000e-02 0.000000e+00 1.000000e-04
    endloop
endfacet
facet normal 0.000000e+00 -1.000000e+00 0.000000e+00
    outer loop
    vertex 1.200000e-02 0.000000e+00 0.000000e+00
    vertex 1.200000e-02 0.000000e+00 1.000000e-04
    vertex 1.190000e-02 0.000000e+00 1.000000e-04
    endloop
endfacet
facet normal 0.000000e+00 0.000000e+00 1.000000e+00
    outer loop
    vertex 1.000000e-04 3.000000e-03 1.000000e-04
    vertex 2.950000e-03 3.000000e-03 1.000000e-04
    vertex 1.000000e-04 3.100000e-03 1.000000e-04
    endloop
endfacet
facet normal 0.000000e+00 0.000000e+00 1.000000e+00
    outer loop
    vertex 2.950000e-03 3.000000e-03 1.000000e-04
    vertex 2.950000e-03 3.100000e-03 1.000000e-04
    vertex 1.000000e-04 3.100000e-03 1.000000e-04
    endloop
endfacet
facet normal 0.000000e+00 0.000000e+00 -1.000000e+00
    outer loop
    vertex 1.000000e-04 3.000000e-03 0.000000e+00
    vertex 1.000000e-04 3.100000e-03 0.000000e+00
    vertex 2.950000e-03 3.000000e-03 0.000000e+00
    endloop
endfacet
facet normal 0.000000e+00 0.000000e+00 -1.000000e+00
    outer loop
    vertex 1.000000e-04 3.100000e-03 0.000000e+00
    vertex 2.950000e-03 3.100000e-03 0.000000e+00
    vertex 2.950000e-03 3.000000e-03 0.000000e+00
    endloop
endfacet
facet normal 0.000000e+00 1.000000e+00 0.000000e+00
    outer loop
    vertex 1.000000e-04 3.100000e-03 0.000000e+00
    vertex 1.000000e-04 3.100000e-03 1.000000e-04
    vertex 2.950000e-03 3.100000e-03 0.000000e+00
    endloop
endfacet
facet normal 0.000000e+00 1.000000e+00 0.000000e+00
    outer loop
    vertex 1.000000e-04 3.100000e-03 1.000000e-04
    vertex 2.950000e-03 3.100000e-03 1.000000e-04
    vertex 2.950000e-03 3.100000e-03 0.000000e+00
    endloop
endfacet
facet normal 0.000000e+00 -1.000000e+00 0.000000e+00
    outer loop
    vertex 1.000000e-04 3.000000e-03 0.000000e+00
    vertex 2.950000e-03 3.000000e-03 0.000000e+00
    vertex 1.000000e-04 3.000000e-03 1.000000e-04
    endloop
endfacet
facet normal 0.000000e+00 -1.000000e+00 0.000000e+00
    outer loop
    vertex 2.950000e-03 3.000000e-03 0.000000e+00
    vertex 2.950000e-03 3.000000e-03 1.000000e-04
    vertex 1.000000e-04 3.000000e-03 1.000000e-04
    endloop
endfacet
facet normal 0.000000e+00 0.000000e+00 1.000000e+00
    outer loop
    vertex 2.950000e-03 3.100000e-03 1.000000e-04
    vertex 3.050000e-03 3.100000e-03 1.000000e-04
    vertex 2.950000e-03 6.000000e-03 1.000000e-04
    endloop
endfacet
facet normal 0.000000e+00 0.000000e+00 1.000000e+00
    outer loop
    vertex 3.050000e-03 3.100000e-03 1.000000e-04
    vertex 3.050000e-03 6.000000e-03 1.000000e-04
    vertex 2.950000e-03 6.000000e-03 1.000000e-04
    endloop
endfacet
facet normal 0.000000e+00 0.000000e+00 -1.000000e+00
    outer loop
    vertex 2.950000e-03 3.100000e-03 0.000000e+00
    vertex 2.950000e-03 6.000000e-03 0.000000e+00
    vertex 3.050000e-03 3.100000e-03 0.000000e+00
    endloop
endfacet
facet normal 0.000000e+00 0.000000e+00 -1.000000e+00
    outer loop
    vertex 2.950000e-03 6.000000e-03 0.000000e+00
    vertex 3.050000e-03 6.000000e-03 0.000000e+00
    vertex 3.050000e-03 3.100000e-03 0.000000e+00
    endloop
endfacet
facet normal -1.000000e+00 0.000000e+00 0.000000e+00
    outer loop
    vertex 2.950000e-03 3.100000e-03 0.000000e+00
    vertex 2.950000e-03 3.100000e-03 1.000000e-04
    vertex 2.950000e-03 6.000000e-03 0.000000e+00
    endloop
endfacet
facet normal -1.000000e+00 0.000000e+00 0.000000e+00
    outer loop
    vertex 2.950000e-03 3.100000e-03 1.000000e-04
    vertex 2.950000e-03 6.000000e-03 1.000000e-04
    vertex 2.950000e-03 6.000000e-03 0.000000e+00
    endloop
endfacet
facet normal 1.000000e+00 0.000000e+00 0.000000e+00
    outer loop
    vertex 3.050000e-03 3.100000e-03 0.000000e+00
    vertex 3.050000e-03 6.000000e-03 0.000000e+00
    vertex 3.050000e-03 3.100000e-03 1.000000e-04
    endloop
endfacet
facet normal 1.000000e+00 0.000000e+00 0.000000e+00
    outer loop
    vertex 3.050000e-03 6.000000e-03 0.000000e+00
    vertex 3.050000e-03 6.000000e-03 1.000000e-04
    vertex 3.050000e-03 3.100000e-03 1.000000e-04
    endloop
endfacet
facet normal 0.000000e+00 0.000000e+00 1.000000e+00
    outer loop
    vertex 3.050000e-03 6.000000e-03 1.000000e-04
    vertex 5.950000e-03 6.000000e-03 1.000000e-04
    vertex 3.050000e-03 6.100000e-03 1.000000e-04
    endloop
endfacet
facet normal 0.000000e+00 0.000000e+00 1.000000e+00
    outer loop
    vertex 5.950000e-03 6.000000e-03 1.000000e-04
    vertex 5.950000e-03 6.100000e-03 1.000000e-04
    vertex 3.050000e-03 6.100000e-03 1.000000e-04
    endloop
endfacet
facet normal 0.000000e+00 0.000000e+00 -1.000000e+00
    outer loop
    vertex 3.050000e-03 6.000000e-03 0.000000e+00
    vertex 3.050000e-03 6.100000e-03 0.000000e+00
    vertex 5.950000e-03 6.000000e-03 0.000000e+00
    endloop
endfacet
facet normal 0.000000e+00 0.000000e+00 -1.000000e+00
    outer loop
    vertex 3.050000e-03 6.100000e-03 0.000000e+00
    vertex 5.950000e-03 6.100000e-03 0.000000e+00
    vertex 5.950000e-03 6.000000e-03 0.000000e+00
    endloop
endfacet
facet normal 0.000000e+00 1.000000e+00 0.000000e+00
    outer loop
    vertex 3.050000e-03 6.100000e-03 0.000000e+00
    vertex 3.050000e-03 6.100000e-03 1.000000e-04
    vertex 5.950000e-03 6.100000e-03 0.000000e+00
    endloop
endfacet
facet normal 0.000000e+00 1.000000e+00 0.000000e+00
    outer loop
    vertex 3.050000e-03 6.100000e-03 1.000000e-04
    vertex 5.950000e-03 6.100000e-03 1.000000e-04
    vertex 5.950000e-03 6.100000e-03 0.000000e+00
    endloop
endfacet
facet normal 0.000000e+00 -1.000000e+00 0.000000e+00
    outer loop
    vertex 3.050000e-03 6.000000e-03 0.000000e+00
    vertex 5.950000e-03 6.000000e-03 0.000000e+00
    vertex 3.050000e-03 6.000000e-03 1.000000e-04
    endloop
endfacet
facet normal 0.000000e+00 -1.000000e+00 0.000000e+00
    outer loop
    vertex 5.950000e-03 6.000000e-03 0.000000e+00
    vertex 5.950000e-03 6.000000e-03 1.000000e-04
    vertex 3.050000e-03 6.000000e-03 1.000000e-04
    endloop
endfacet
facet normal 0.000000e+00 0.000000e+00 1.000000e+00
    outer loop
    vertex 3.050000e-03 3.000000e-03 1.000000e-04
    vertex 5.950000e-03 3.000000e-03 1.000000e-04
    vertex 3.050000e-03 3.100000e-03 1.000000e-04
    endloop
endfacet
facet normal 0.000000e+00 0.000000e+00 1.000000e+00
    outer loop
    vertex 5.950000e-03 3.000000e-03 1.000000e-04
    vertex 5.950000e-03 3.100000e-03 1.000000e-04
    vertex 3.050000e-03 3.100000e-03 1.000000e-04
    endloop
endfacet
facet normal 0.000000e+00 0.000000e+00 -1.000000e+00
    outer loop
    vertex 3.050000e-03 3.000000e-03 0.000000e+00
    vertex 3.050000e-03 3.100000e-03 0.000000e+00
    vertex 5.950000e-03 3.000000e-03 0.000000e+00
    endloop
endfacet
facet normal 0.000000e+00 0.000000e+00 -1.000000e+00
    outer loop
    vertex 3.050000e-03 3.100000e-03 0.000000e+00
    vertex 5.950000e-03 3.100000e-03 0.000000e+00
    vertex 5.950000e-03 3.000000e-03 0.000000e+00
    endloop
endfacet
facet normal 0.000000e+00 1.000000e+00 0.000000e+00
    outer loop
    vertex 3.050000e-03 3.100000e-03 0.000000e+00
    vertex 3.050000e-03 3.100000e-03 1.000000e-04
    vertex 5.950000e-03 3.100000e-03 0.000000e+00
    endloop
endfacet
facet normal 0.000000e+00 1.000000e+00 0.000000e+00
    outer loop
    vertex 3.050000e-03 3.100000e-03 1.000000e-04
    vertex 5.950000e-03 3.100000e-03 1.000000e-04
    vertex 5.950000e-03 3.100000e-03 0.000000e+00
    endloop
endfacet
facet normal 0.000000e+00 -1.000000e+00 0.000000e+00
    outer loop
    vertex 3.050000e-03 3.000000e-03 0.000000e+00
    vertex 5.950000e-03 3.000000e-03 0.000000e+00
    vertex 3.050000e-03 3.000000e-03 1.000000e-04
    endloop
endfacet
facet normal 0.000000e+00 -1.000000e+00 0.000000e+00
    outer loop
    vertex 5.950000e-03 3.000000e-03 0.000000e+00
    vertex 5.950000e-03 3.000000e-03 1.000000e-04
    vertex 3.050000e-03 3.000000e-03 1.000000e-04
    endloop
endfacet
facet normal 0.000000e+00 0.000000e+00 1.000000e+00
    outer loop
    vertex 5.950000e-03 3.100000e-03 1.000000e-04
    vertex 6.050000e-03 3.100000e-03 1.000000e-04
    vertex 5.950000e-03 6.000000e-03 1.000000e-04
    endloop
endfacet
facet normal 0.000000e+00 0.000000e+00 1.000000e+00
    outer loop
    vertex 6.050000e-03 3.100000e-03 1.000000e-04
    vertex 6.050000e-03 6.000000e-03 1.000000e-04
    vertex 5.950000e-03 6.000000e-03 1.000000e-04
    endloop
endfacet
facet normal 0.000000e+00 0.000000e+00 -1.000000e+00
    outer loop
    vertex 5.950000e-03 3.100000e-03 0.000000e+00
    vertex 5.950000e-03 6.000000e-03 0.000000e+00
    vertex 6.050000e-03 3.100000e-03 0.000000e+00
    endloop
endfacet
facet normal 0.000000e+00 0.000000e+00 -1.000000e+00
    outer loop
    vertex 5.950000e-03 6.000000e-03 0.000000e+00
    vertex 6.050000e-03 6.000000e-03 0.000000e+00
    vertex 6.050000e-03 3.100000e-03 0.000000e+00
    endloop
endfacet
facet normal -1.000000e+00 0.000000e+00 0.000000e+00
    outer loop
    vertex 5.950000e-03 3.100000e-03 0.000000e+00
    vertex 5.950000e-03 3.100000e-03 1.000000e-04
    vertex 5.950000e-03 6.000000e-03 0.000000e+00
    endloop
endfacet
facet normal -1.000000e+00 0.000000e+00 0.000000e+00
    outer loop
    vertex 5.950000e-03 3.100000e-03 1.000000e-04
    vertex 5.950000e-03 6.000000e-03 1.000000e-04
    vertex 5.950000e-03 6.000000e-03 0.000000e+00
    endloop
endfacet
facet normal 1.000000e+00 0.000000e+00 0.000000e+00
    outer loop
    vertex 6.050000e-03 3.100000e-03 0.000000e+00
    vertex 6.050000e-03 6.000000e-03 0.000000e+00
    vertex 6.050000e-03 3.100000e-03 1.000000e-04
    endloop
endfacet
facet normal 1.000000e+00 0.000000e+00 0.000000e+00
    outer loop
    vertex 6.050000e-03 6.000000e-03 0.000000e+00
    vertex 6.050000e-03 6.000000e-03 1.000000e-04
    vertex 6.050000e-03 3.100000e-03 1.000000e-04
    endloop
endfacet
facet normal 0.000000e+00 0.000000e+00 1.000000e+00
    outer loop
    vertex 5.950000e-03 1.000000e-04 1.000000e-04
    vertex 6.050000e-03 1.000000e-04 1.000000e-04
    vertex 5.950000e-03 3.000000e-03 1.000000e-04
    endloop
endfacet
facet normal 0.000000e+00 0.000000e+00 1.000000e+00
    outer loop
    vertex 6.050000e-03 1.000000e-04 1.000000e-04
    vertex 6.050000e-03 3.000000e-03 1.000000e-04
    vertex 5.950000e-03 3.000000e-03 1.000000e-04
    endloop
endfacet
facet normal 0.000000e+00 0.000000e+00 -1.000000e+00
    outer loop
    vertex 5.950000e-03 1.000000e-04 0.000000e+00
    vertex 5.950000e-03 3.000000e-03 0.000000e+00
    vertex 6.050000e-03 1.000000e-04 0.000000e+00
    endloop
endfacet
facet normal 0.000000e+00 0.000000e+00 -1.000000e+00
    outer loop
    vertex 5.950000e-03 3.000000e-03 0.000000e+00
    vertex 6.050000e-03 3.000000e-03 0.000000e+00
    vertex 6.050000e-03 1.000000e-04 0.000000e+00
    endloop
endfacet
facet normal -1.000000e+00 0.000000e+00 0.000000e+00
    outer loop
    vertex 5.950000e-03 1.000000e-04 0.000000e+00
    vertex 5.950000e-03 1.000000e-04 1.000000e-04
    vertex 5.950000e-03 3.000000e-03 0.000000e+00
    endloop
endfacet
facet normal -1.000000e+00 0.000000e+00 0.000000e+00
    outer loop
    vertex 5.950000e-03 1.000000e-04 1.000000e-04
    vertex 5.950000e-03 3.000000e-03 1.000000e-04
    vertex 5.950000e-03 3.000000e-03 0.000000e+00
    endloop
endfacet
facet normal 1.000000e+00 0.000000e+00 0.000000e+00
    outer loop
    vertex 6.050000e-03 1.000000e-04 0.000000e+00
    vertex 6.050000e-03 3.000000e-03 0.000000e+00
    vertex 6.050000e-03 1.000000e-04 1.000000e-04
    endloop
endfacet
facet normal 1.000000e+00 0.000000e+00 0.000000e+00
    outer loop
    vertex 6.050000e-03 3.000000e-03 0.000000e+00
    vertex 6.050000e-03 3.000000e-03 1.000000e-04
    vertex 6.050000e-03 1.000000e-04 1.000000e-04
    endloop
endfacet
facet normal 0.000000e+00 0.000000e+00 1.000000e+00
    outer loop
    vertex 6.050000e-03 3.000000e-03 1.000000e-04
    vertex 8.950000e-03 3.000000e-03 1.000000e-04
    vertex 6.050000e-03 3.100000e-03 1.000000e-04
    endloop
endfacet
facet normal 0.000000e+00 0.000000e+00 1.000000e+00
    outer loop
    vertex 8.950000e-03 3.000000e-03 1.000000e-04
    vertex 8.950000e-03 3.100000e-03 1.000000e-04
    vertex 6.050000e-03 3.100000e-03 1.000000e-04
    endloop
endfacet
facet normal 0.000000e+00 0.000000e+00 -1.000000e+00
    outer loop
    vertex 6.050000e-03 3.000000e-03 0.000000e+00
    vertex 6.050000e-03 3.100000e-03 0.000000e+00
    vertex 8.950000e-03 3.000000e-03 0.000000e+00
    endloop
endfacet
facet normal 0.000000e+00 0.000000e+00 -1.000000e+00
    outer loop
    vertex 6.050000e-03 3.100000e-03 0.000000e+00
    vertex 8.950000e-03 3.100000e-03 0.000000e+00
    vertex 8.950000e-03 3.000000e-03 0.000000e+00
    endloop
endfacet
facet normal 0.000000e+00 1.000000e+00 0.000000e+00
    outer loop
    vertex 6.050000e-03 3.100000e-03 0.000000e+00
    vertex 6.050000e-03 3.100000e-03 1.000000e-04
    vertex 8.950000e-03 3.100000e-03 0.000000e+00
    endloop
endfacet
facet normal 0.000000e+00 1.000000e+00 0.000000e+00
    outer loop
    vertex 6.050000e-03 3.100000e-03 1.000000e-04
    vertex 8.950000e-03 3.100000e-03 1.000000e-04
    vertex 8.950000e-03 3.100000e-03 0.000000e+00
    endloop
endfacet
facet normal 0.000000e+00 -1.000000e+00 0.000000e+00
    outer loop
    vertex 6.050000e-03 3.000000e-03 0.000000e+00
    vertex 8.950000e-03 3.000000e-03 0.000000e+00
    vertex 6.050000e-03 3.000000e-03 1.000000e-04
    endloop
endfacet
facet normal 0.000000e+00 -1.000000e+00 0.000000e+00
    outer loop
    vertex 8.950000e-03 3.000000e-03 0.000000e+00
    vertex 8.950000e-03 3.000000e-03 1.000000e-04
    vertex 6.050000e-03 3.000000e-03 1.000000e-04
    endloop
endfacet
facet normal 0.000000e+00 0.000000e+00 1.000000e+00
    outer loop
    vertex 6.050000e-03 0.000000e+00 1.000000e-04
    vertex 8.950000e-03 0.000000e+00 1.000000e-04
    vertex 6.050000e-03 1.000000e-04 1.000000e-04
    endloop
endfacet
facet normal 0.000000e+00 0.000000e+00 1.000000e+00
    outer loop
    vertex 8.950000e-03 0.000000e+00 1.000000e-04
    vertex 8.950000e-03 1.000000e-04 1.000000e-04
    vertex 6.050000e-03 1.000000e-04 1.000000e-04
    endloop
endfacet
facet normal 0.000000e+00 0.000000e+00 -1.000000e+00
    outer loop
    vertex 6.050000e-03 0.000000e+00 0.000000e+00
    vertex 6.050000e-03 1.000000e-04 0.000000e+00
    vertex 8.950000e-03 0.000000e+00 0.000000e+00
    endloop
endfacet
facet normal 0.000000e+00 0.000000e+00 -1.000000e+00
    outer loop
    vertex 6.050000e-03 1.000000e-04 0.000000e+00
    vertex 8.950000e-03 1.000000e-04 0.000000e+00
    vertex 8.950000e-03 0.000000e+00 0.000000e+00
    endloop
endfacet
facet normal 0.000000e+00 1.000000e+00 0.000000e+00
    outer loop
    vertex 6.050000e-03 1.000000e-04 0.000000e+00
    vertex 6.050000e-03 1.000000e-04 1.000000e-04
    vertex 8.950000e-03 1.000000e-04 0.000000e+00
    endloop
endfacet
facet normal 0.000000e+00 1.000000e+00 0.000000e+00
    outer loop
    vertex 6.050000e-03 1.000000e-04 1.000000e-04
    vertex 8.950000e-03 1.000000e-04 1.000000e-04
    vertex 8.950000e-03 1.000000e-04 0.000000e+00
    endloop
endfacet
facet normal 0.000000e+00 -1.000000e+00 0.000000e+00
    outer loop
    vertex 6.050000e-03 0.000000e+00 0.000000e+00
    vertex 8.950000e-03 0.000000e+00 0.000000e+00
    vertex 6.050000e-03 0.000000e+00 1.000000e-04
    endloop
endfacet
facet normal 0.000000e+00 -1.000000e+00 0.000000e+00
    outer loop
    vertex 8.950000e-03 0.000000e+00 0.000000e+00
    vertex 8.950000e-03 0.000000e+00 1.000000e-04
    vertex 6.050000e-03 0.000000e+00 1.000000e-04
    endloop
endfacet
facet normal 0.000000e+00 0.000000e+00 1.000000e+00
    outer loop
    vertex 8.950000e-03 1.000000e-04 1.000000e-04
    vertex 9.050000e-03 1.000000e-04 1.000000e-04
    vertex 8.950000e-03 3.000000e-03 1.000000e-04
    endloop
endfacet
facet normal 0.000000e+00 0.000000e+00 1.000000e+00
    outer loop
    vertex 9.050000e-03 1.000000e-04 1.000000e-04
    vertex 9.050000e-03 3.000000e-03 1.000000e-04
    vertex 8.950000e-03 3.000000e-03 1.000000e-04
    endloop
endfacet
facet normal 0.000000e+00 0.000000e+00 -1.000000e+00
    outer loop
    vertex 8.950000e-03 1.000000e-04 0.000000e+00
    vertex 8.950000e-03 3.000000e-03 0.000000e+00
    vertex 9.050000e-03 1.000000e-04 0.000000e+00
    endloop
endfacet
facet normal 0.000000e+00 0.000000e+00 -1.000000e+00
    outer loop
    vertex 8.950000e-03 3.000000e-03 0.000000e+00
    vertex 9.050000e-03 3.000000e-03 0.000000e+00
    vertex 9.050000e-03 1.000000e-04 0.000000e+00
    endloop
endfacet
facet normal -1.000000e+00 0.000000e+00 0.000000e+00
    outer loop
    vertex 8.950000e-03 1.000000e-04 0.000000e+00
    vertex 8.950000e-03 1.000000e-04 1.000000e-04
    vertex 8.950000e-03 3.000000e-03 0.000000e+00
    endloop
endfacet
facet normal -1.000000e+00 0.000000e+00 0.000000e+00
    outer loop
    vertex 8.950000e-03 1.000000e-04 1.000000e-04
    vertex 8.950000e-03 3.000000e-03 1.000000e-04
    vertex 8.950000e-03 3.000000e-03 0.000000e+00
    endloop
endfacet
facet normal 1.000000e+00 0.000000e+00 0.000000e+00
    outer loop
    vertex 9.050000e-03 1.000000e-04 0.000000e+00
    vertex 9.050000e-03 3.000000e-03 0.000000e+00
    vertex 9.050000e-03 1.000000e-04 1.000000e-04
    endloop
endfacet
facet normal 1.000000e+00 0.000000e+00 0.000000e+00
    outer loop
    vertex 9.050000e-03 3.000000e-03 0.000000e+00
    vertex 9.050000e-03 3.000000e-03 1.000000e-04
    vertex 9.050000e-03 1.000000e-04 1.000000e-04
    endloop
endfacet
facet normal 0.000000e+00 0.000000e+00 1.000000e+00
    outer loop
    vertex 9.050000e-03 0.000000e+00 1.000000e-04
    vertex 1.190000e-02 0.000000e+00 1.000000e-04
    vertex 9.050000e-03 1.000000e-04 1.000000e-04
    endloop
endfacet
facet normal 0.000000e+00 0.000000e+00 1.000000e+00
    outer loop
    vertex 1.190000e-02 0.000000e+00 1.000000e-04
    vertex 1.190000e-02 1.000000e-04 1.000000e-04
    vertex 9.050000e-03 1.000000e-04 1.000000e-04
    endloop
endfacet
facet normal 0.000000e+00 0.000000e+00 -1.000000e+00
    outer loop
    vertex 9.050000e-03 0.000000e+00 0.000000e+00
    vertex 9.050000e-03 1.000000e-04 0.000000e+00
    vertex 1.190000e-02 0.000000e+00 0.000000e+00
    endloop
endfacet
facet normal 0.000000e+00 0.000000e+00 -1.000000e+00
    outer loop
    vertex 9.050000e-03 1.000000e-04 0.000000e+00
    vertex 1.190000e-02 1.000000e-04 0.000000e+00
    vertex 1.190000e-02 0.000000e+00 0.000000e+00
    endloop
endfacet
facet normal 0.000000e+00 1.000000e+00 0.000000e+00
    outer loop
    vertex 9.050000e-03 1.000000e-04 0.000000e+00
    vertex 9.050000e-03 1.000000e-04 1.000000e-04
    vertex 1.190000e-02 1.000000e-04 0.000000e+00
    endloop
endfacet
facet normal 0.000000e+00 1.000000e+00 0.000000e+00
    outer loop
    vertex 9.050000e-03 1.000000e-04 1.000000e-04
    vertex 1.190000e-02 1.000000e-04 1.000000e-04
    vertex 1.190000e-02 1.000000e-04 0.000000e+00
    endloop
endfacet
facet normal 0.000000e+00 -1.000000e+00 0.000000e+00
    outer loop
    vertex 9.050000e-03 0.000000e+00 0.000000e+00
    vertex 1.190000e-02 0.000000e+00 0.000000e+00
    vertex 9.050000e-03 0.000000e+00 1.000000e-04
    endloop
endfacet
facet normal 0.000000e+00 -1.000000e+00 0.000000e+00
    outer loop
    vertex 1.190000e-02 0.000000e+00 0.000000e+00
    vertex 1.190000e-02 0.000000e+00 1.000000e-04
    vertex 9.050000e-03 0.000000e+00 1.000000e-04
    endloop
endfacet
endsolid