solid
facet normal 0.000000e+00 0.000000e+00 1.000000e+00
    outer loop
    vertex 0.000000e+00 2.000000e-03 1.000000e-04
    vertex 1.000000e-04 2.000000e-03 1.000000e-04
    vertex 0.000000e+00 2.100000e-03 1.000000e-04
    endloop
endfacet
facet normal 0.000000e+00 0.000000e+00 1.000000e+00
    outer loop
    vertex 1.000000e-04 2.000000e-03 1.000000e-04
    vertex 1.000000e-04 2.100000e-03 1.000000e-04
    vertex 0.000000e+00 2.100000e-03 1.000000e-04
    endloop
endfacet
facet normal 0.000000e+00 0.000000e+00 -1.000000e+00
    outer loop
    vertex 0.000000e+00 2.000000e-03 0.000000e+00
    vertex 0.000000e+00 2.100000e-03 0.000000e+00
    vertex 1.000000e-04 2.000000e-03 0.000000e+00
    endloop
endfacet
facet normal 0.000000e+00 0.000000e+00 -1.000000e+00
    outer loop
    vertex 0.000000e+00 2.100000e-03 0.000000e+00
    vertex 1.000000e-04 2.100000e-03 0.000000e+00
    vertex 1.000000e-04 2.000000e-03 0.000000e+00
    endloop
endfacet
facet normal -1.000000e+00 0.000000e+00 0.000000e+00
    outer loop
    vertex 0.000000e+00 2.000000e-03 0.000000e+00
    vertex 0.000000e+00 2.000000e-03 1.000000e-04
    vertex 0.000000e+00 2.100000e-03 0.000000e+00
    endloop
endfacet
facet normal -1.000000e+00 0.000000e+00 0.000000e+00
    outer loop
    vertex 0.000000e+00 2.000000e-03 1.000000e-04
    vertex 0.000000e+00 2.100000e-03 1.000000e-04
    vertex 0.000000e+00 2.100000e-03 0.000000e+00
    endloop
endfacet
facet normal 0.000000e+00 1.000000e+00 0.000000e+00
    outer loop
    vertex 0.000000e+00 2.100000e-03 0.000000e+00
    vertex 0.000000e+00 2.100000e-03 1.000000e-04
    vertex 1.000000e-04 2.100000e-03 0.000000e+00
    endloop
endfacet
facet normal 0.000000e+00 1.000000e+00 0.000000e+00
    outer loop
    vertex 0.000000e+00 2.100000e-03 1.000000e-04
    vertex 1.000000e-04 2.100000e-03 1.000000e-04
    vertex 1.000000e-04 2.100000e-03 0.000000e+00
    endloop
endfacet
facet normal 0.000000e+00 -1.000000e+00 0.000000e+00
    outer loop
    vertex 0.000000e+00 2.000000e-03 0.000000e+00
    vertex 1.000000e-04 2.000000e-03 0.000000e+00
    vertex 0.000000e+00 2.000000e-03 1.000000e-04
    endloop
endfacet
facet normal 0.000000e+00 -1.000000e+00 0.000000e+00
    outer loop
    vertex 1.000000e-04 2.000000e-03 0.000000e+00
    vertex 1.000000e-04 2.000000e-03 1.000000e-04
    vertex 0.000000e+00 2.000000e-03 1.000000e-04
    endloop
endfacet
facet normal 0.000000e+00 0.000000e+00 1.000000e+00
    outer loop
    vertex 0.000000e+00 1.000000e-03 1.000000e-04
    vertex 1.000000e-04 1.000000e-03 1.000000e-04
    vertex 0.000000e+00 1.100000e-03 1.000000e-04
    endloop
endfacet
facet normal 0.000000e+00 0.000000e+00 1.000000e+00
    outer loop
    vertex 1.000000e-04 1.000000e-03 1.000000e-04
    vertex 1.000000e-04 1.100000e-03 1.000000e-04
    vertex 0.000000e+00 1.100000e-03 1.000000e-04
    endloop
endfacet
facet normal 0.000000e+00 0.000000e+00 -1.000000e+00
    outer loop
    vertex 0.000000e+00 1.000000e-03 0.000000e+00
    vertex 0.000000e+00 1.100000e-03 0.000000e+00
    vertex 1.000000e-04 1.000000e-03 0.000000e+00
    endloop
endfacet
facet normal 0.000000e+00 0.000000e+00 -1.000000e+00
    outer loop
    vertex 0.000000e+00 1.100000e-03 0.000000e+00
    vertex 1.000000e-04 1.100000e-03 0.000000e+00
    vertex 1.000000e-04 1.000000e-03 0.000000e+00
    endloop
endfacet
facet normal -1.000000e+00 0.000000e+00 0.000000e+00
    outer loop
    vertex 0.000000e+00 1.000000e-03 0.000000e+00
    vertex 0.000000e+00 1.000000e-03 1.000000e-04
    vertex 0.000000e+00 1.100000e-03 0.000000e+00
    endloop
endfacet
facet normal -1.000000e+00 0.000000e+00 0.000000e+00
    outer loop
    vertex 0.000000e+00 1.000000e-03 1.000000e-04
    vertex 0.000000e+00 1.100000e-03 1.000000e-04
    vertex 0.000000e+00 1.100000e-03 0.000000e+00
    endloop
endfacet
facet normal 0.000000e+00 1.000000e+00 0.000000e+00
    outer loop
    vertex 0.000000e+00 1.100000e-03 0.000000e+00
    vertex 0.000000e+00 1.100000e-03 1.000000e-04
    vertex 1.000000e-04 1.100000e-03 0.000000e+00
    endloop
endfacet
facet normal 0.000000e+00 1.000000e+00 0.000000e+00
    outer loop
    vertex 0.000000e+00 1.100000e-03 1.000000e-04
    vertex 1.000000e-04 1.100000e-03 1.000000e-04
    vertex 1.000000e-04 1.100000e-03 0.000000e+00
    endloop
endfacet
facet normal 0.000000e+00 -1.000000e+00 0.000000e+00
    outer loop
    vertex 0.000000e+00 1.000000e-03 0.000000e+00
    vertex 1.000000e-04 1.000000e-03 0.000000e+00
    vertex 0.000000e+00 1.000000e-03 1.000000e-04
    endloop
endfacet
facet normal 0.000000e+00 -1.000000e+00 0.000000e+00
    outer loop
    vertex 1.000000e-04 1.000000e-03 0.000000e+00
    vertex 1.000000e-04 1.000000e-03 1.000000e-04
    vertex 0.000000e+00 1.000000e-03 1.000000e-04
    endloop
endfacet
facet normal 0.000000e+00 0.000000e+00 1.000000e+00
    outer loop
    vertex 0.000000e+00 0.000000e+00 1.000000e-04
    vertex 1.000000e-04 0.000000e+00 1.000000e-04
    vertex 0.000000e+00 1.000000e-04 1.000000e-04
    endloop
endfacet
facet normal 0.000000e+00 0.000000e+00 1.000000e+00
    outer loop
    vertex 1.000000e-04 0.000000e+00 1.000000e-04
    vertex 1.000000e-04 1.000000e-04 1.000000e-04
    vertex 0.000000e+00 1.000000e-04 1.000000e-04
    endloop
endfacet
facet normal 0.000000e+00 0.000000e+00 -1.000000e+00
    outer loop
    vertex 0.000000e+00 0.000000e+00 0.000000e+00
    vertex 0.000000e+00 1.000000e-04 0.000000e+00
    vertex 1.000000e-04 0.000000e+00 0.000000e+00
    endloop
endfacet
facet normal 0.000000e+00 0.000000e+00 -1.000000e+00
    outer loop
    vertex 0.000000e+00 1.000000e-04 0.000000e+00
    vertex 1.000000e-04 1.000000e-04 0.000000e+00
    vertex 1.000000e-04 0.000000e+00 0.000000e+00
    endloop
endfacet
facet normal -1.000000e+00 0.000000e+00 0.000000e+00
    outer loop
    vertex 0.000000e+00 0.000000e+00 0.000000e+00
    vertex 0.000000e+00 0.000000e+00 1.000000e-04
    vertex 0.000000e+00 1.000000e-04 0.000000e+00
    endloop
endfacet
facet normal -1.000000e+00 0.000000e+00 0.000000e+00
    outer loop
    vertex 0.000000e+00 0.000000e+00 1.000000e-04
    vertex 0.000000e+00 1.000000e-04 1.000000e-04
    vertex 0.000000e+00 1.000000e-04 0.000000e+00
    endloop
endfacet
facet normal 0.000000e+00 1.000000e+00 0.000000e+00
    outer loop
    vertex 0.000000e+00 1.000000e-04 0.000000e+00
    vertex 0.000000e+00 1.000000e-04 1.000000e-04
    vertex 1.000000e-04 1.000000e-04 0.000000e+00
    endloop
endfacet
facet normal 0.000000e+00 1.000000e+00 0.000000e+00
    outer loop
    vertex 0.000000e+00 1.000000e-04 1.000000e-04
    vertex 1.000000e-04 1.000000e-04 1.000000e-04
    vertex 1.000000e-04 1.000000e-04 0.000000e+00
    endloop
endfacet
facet normal 0.000000e+00 -1.000000e+00 0.000000e+00
    outer loop
    vertex 0.000000e+00 0.000000e+00 0.000000e+00
    vertex 1.000000e-04 0.000000e+00 0.000000e+00
    vertex 0.000000e+00 0.000000e+00 1.000000e-04
    endloop
endfacet
facet normal 0.000000e+00 -1.000000e+00 0.000000e+00
    outer loop
    vertex 1.000000e-04 0.000000e+00 0.000000e+00
    vertex 1.000000e-04 0.000000e+00 1.000000e-04
    vertex 0.000000e+00 0.000000e+00 1.000000e-04
    endloop
endfacet
facet normal 0.000000e+00 0.000000e+00 1.000000e+00
    outer loop
    vertex 9.500000e-04 2.000000e-03 1.000000e-04
    vertex 1.050000e-03 2.000000e-03 1.000000e-04
    vertex 9.500000e-04 2.100000e-03 1.000000e-04
    endloop
endfacet
facet normal 0.000000e+00 0.000000e+00 1.000000e+00
    outer loop
    vertex 1.050000e-03 2.000000e-03 1.000000e-04
    vertex 1.050000e-03 2.100000e-03 1.000000e-04
    vertex 9.500000e-04 2.100000e-03 1.000000e-04
    endloop
endfacet
facet normal 0.000000e+00 0.000000e+00 -1.000000e+00
    outer loop
    vertex 9.500000e-04 2.000000e-03 0.000000e+00
    vertex 9.500000e-04 2.100000e-03 0.000000e+00
    vertex 1.050000e-03 2.000000e-03 0.000000e+00
    endloop
endfacet
facet normal 0.000000e+00 0.000000e+00 -1.000000e+00
    outer loop
    vertex 9.500000e-04 2.100000e-03 0.000000e+00
    vertex 1.050000e-03 2.100000e-03 0.000000e+00
    vertex 1.050000e-03 2.000000e-03 0.000000e+00
    endloop
endfacet
facet normal 0.000000e+00 1.000000e+00 0.000000e+00
    outer loop
    vertex 9.500000e-04 2.100000e-03 0.000000e+00
    vertex 9.500000e-04 2.100000e-03 1.000000e-04
    vertex 1.050000e-03 2.100000e-03 0.000000e+00
    endloop
endfacet
facet normal 0.000000e+00 1.000000e+00 0.000000e+00
    outer loop
    vertex 9.500000e-04 2.100000e-03 1.000000e-04
    vertex 1.050000e-03 2.100000e-03 1.000000e-04
    vertex 1.050000e-03 2.100000e-03 0.000000e+00
    endloop
endfacet
facet normal 1.000000e+00 0.000000e+00 0.000000e+00
    outer loop
    vertex 1.050000e-03 2.000000e-03 0.000000e+00
    vertex 1.050000e-03 2.100000e-03 0.000000e+00
    vertex 1.050000e-03 2.000000e-03 1.000000e-04
    endloop
endfacet
facet normal 1.000000e+00 0.000000e+00 0.000000e+00
    outer loop
    vertex 1.050000e-03 2.100000e-03 0.000000e+00
    vertex 1.050000e-03 2.100000e-03 1.000000e-04
    vertex 1.050000e-03 2.000000e-03 1.000000e-04
    endloop
endfacet
facet normal 0.000000e+00 0.000000e+00 1.000000e+00
    outer loop
    vertex 9.500000e-04 1.000000e-03 1.000000e-04
    vertex 1.050000e-03 1.000000e-03 1.000000e-04
    vertex 9.500000e-04 1.100000e-03 1.000000e-04
    endloop
endfacet
facet normal 0.000000e+00 0.000000e+00 1.000000e+00
    outer loop
    vertex 1.050000e-03 1.000000e-03 1.000000e-04
    vertex 1.050000e-03 1.100000e-03 1.000000e-04
    vertex 9.500000e-04 1.100000e-03 1.000000e-04
    endloop
endfacet
facet normal 0.000000e+00 0.000000e+00 -1.000000e+00
    outer loop
    vertex 9.500000e-04 1.000000e-03 0.000000e+00
    vertex 9.500000e-04 1.100000e-03 0.000000e+00
    vertex 1.050000e-03 1.000000e-03 0.000000e+00
    endloop
endfacet
facet normal 0.000000e+00 0.000000e+00 -1.000000e+00
    outer loop
    vertex 9.500000e-04 1.100000e-03 0.000000e+00
    vertex 1.050000e-03 1.100000e-03 0.000000e+00
    vertex 1.050000e-03 1.000000e-03 0.000000e+00
    endloop
endfacet
facet normal 0.000000e+00 0.000000e+00 1.000000e+00
    outer loop
    vertex 9.500000e-04 0.000000e+00 1.000000e-04
    vertex 1.050000e-03 0.000000e+00 1.000000e-04
    vertex 9.500000e-04 1.000000e-04 1.000000e-04
    endloop
endfacet
facet normal 0.000000e+00 0.000000e+00 1.000000e+00
    outer loop
    vertex 1.050000e-03 0.000000e+00 1.000000e-04
    vertex 1.050000e-03 1.000000e-04 1.000000e-04
    vertex 9.500000e-04 1.000000e-04 1.000000e-04
    endloop
endfacet
facet normal 0.000000e+00 0.000000e+00 -1.000000e+00
    outer loop
    vertex 9.500000e-04 0.000000e+00 0.000000e+00
    vertex 9.500000e-04 1.000000e-04 0.000000e+00
    vertex 1.050000e-03 0.000000e+00 0.000000e+00
    endloop
endfacet
facet normal 0.000000e+00 0.000000e+00 -1.000000e+00
    outer loop
    vertex 9.500000e-04 1.000000e-04 0.000000e+00
    vertex 1.050000e-03 1.000000e-04 0.000000e+00
    vertex 1.050000e-03 0.000000e+00 0.000000e+00
    endloop
endfacet
facet normal 1.000000e+00 0.000000e+00 0.000000e+00
    outer loop
    vertex 1.050000e-03 0.000000e+00 0.000000e+00
    vertex 1.050000e-03 1.000000e-04 0.000000e+00
    vertex 1.050000e-03 0.000000e+00 1.000000e-04
    endloop
endfacet
facet normal 1.000000e+00 0.000000e+00 0.000000e+00
    outer loop
    vertex 1.050000e-03 1.000000e-04 0.000000e+00
    vertex 1.050000e-03 1.000000e-04 1.000000e-04
    vertex 1.050000e-03 0.000000e+00 1.000000e-04
    endloop
endfacet
facet normal 0.000000e+00 -1.000000e+00 0.000000e+00
    outer loop
    vertex 9.500000e-04 0.000000e+00 0.000000e+00
    vertex 1.050000e-03 0.000000e+00 0.000000e+00
    vertex 9.500000e-04 0.000000e+00 1.000000e-04
    endloop
endfacet
facet normal 0.000000e+00 -1.000000e+00 0.000000e+00
    outer loop
    vertex 1.050000e-03 0.000000e+00 0.000000e+00
    vertex 1.050000e-03 0.000000e+00 1.000000e-04
    vertex 9.500000e-04 0.000000e+00 1.000000e-04
    endloop
endfacet
facet normal 0.000000e+00 0.000000e+00 1.000000e+00
    outer loop
    vertex 1.900000e-03 1.000000e-03 1.000000e-04
    vertex 2.000000e-03 1.000000e-03 1.000000e-04
    vertex 1.900000e-03 1.100000e-03 1.000000e-04
    endloop
endfacet
facet normal 0.000000e+00 0.000000e+00 1.000000e+00
    outer loop
    vertex 2.000000e-03 1.000000e-03 1.000000e-04
    vertex 2.000000e-03 1.100000e-03 1.000000e-04
    vertex 1.900000e-03 1.100000e-03 1.000000e-04
    endloop
endfacet
facet normal 0.000000e+00 0.000000e+00 -1.000000e+00
    outer loop
    vertex 1.900000e-03 1.000000e-03 0.000000e+00
    vertex 1.900000e-03 1.100000e-03 0.000000e+00
    vertex 2.000000e-03 1.000000e-03 0.000000e+00
    endloop
endfacet
facet normal 0.000000e+00 0.000000e+00 -1.000000e+00
    outer loop
    vertex 1.900000e-03 1.100000e-03 0.000000e+00
    vertex 2.000000e-03 1.100000e-03 0.000000e+00
    vertex 2.000000e-03 1.000000e-03 0.000000e+00
    endloop
endfacet
facet normal 0.000000e+00 1.000000e+00 0.000000e+00
    outer loop
    vertex 1.900000e-03 1.100000e-03 0.000000e+00
    vertex 1.900000e-03 1.100000e-03 1.000000e-04
    vertex 2.000000e-03 1.100000e-03 0.000000e+00
    endloop
endfacet
facet normal 0.000000e+00 1.000000e+00 0.000000e+00
    outer loop
    vertex 1.900000e-03 1.100000e-03 1.000000e-04
    vertex 2.000000e-03 1.100000e-03 1.000000e-04
    vertex 2.000000e-03 1.100000e-03 0.000000e+00
    endloop
endfacet
facet normal 1.000000e+00 0.000000e+00 0.000000e+00
    outer loop
    vertex 2.000000e-03 1.000000e-03 0.000000e+00
    vertex 2.000000e-03 1.100000e-03 0.000000e+00
    vertex 2.000000e-03 1.000000e-03 1.000000e-04
    endloop
endfacet
facet normal 1.000000e+00 0.000000e+00 0.000000e+00
    outer loop
    vertex 2.000000e-03 1.100000e-03 0.000000e+00
    vertex 2.000000e-03 1.100000e-03 1.000000e-04
    vertex 2.000000e-03 1.000000e-03 1.000000e-04
    endloop
endfacet
facet normal 0.000000e+00 -1.000000e+00 0.000000e+00
    outer loop
    vertex 1.900000e-03 1.000000e-03 0.000000e+00
    vertex 2.000000e-03 1.000000e-03 0.000000e+00
    vertex 1.900000e-03 1.000000e-03 1.000000e-04
    endloop
endfacet
facet normal 0.000000e+00 -1.000000e+00 0.000000e+00
    outer loop
    vertex 2.000000e-03 1.000000e-03 0.000000e+00
    vertex 2.000000e-03 1.000000e-03 1.000000e-04
    vertex 1.900000e-03 1.000000e-03 1.000000e-04
    endloop
endfacet
facet normal 0.000000e+00 0.000000e+00 1.000000e+00
    outer loop
    vertex 1.000000e-04 2.000000e-03 1.000000e-04
    vertex 9.500000e-04 2.000000e-03 1.000000e-04
    vertex 1.000000e-04 2.100000e-03 1.000000e-04
    endloop
endfacet
facet normal 0.000000e+00 0.000000e+00 1.000000e+00
    outer loop
    vertex 9.500000e-04 2.000000e-03 1.000000e-04
    vertex 9.500000e-04 2.100000e-03 1.000000e-04
    vertex 1.000000e-04 2.100000e-03 1.000000e-04
    endloop
endfacet
facet normal 0.000000e+00 0.000000e+00 -1.000000e+00
    outer loop
    vertex 1.000000e-04 2.000000e-03 0.000000e+00
    vertex 1.000000e-04 2.100000e-03 0.000000e+00
    vertex 9.500000e-04 2.000000e-03 0.000000e+00
    endloop
endfacet
facet normal 0.000000e+00 0.000000e+00 -1.000000e+00
    outer loop
    vertex 1.000000e-04 2.100000e-03 0.000000e+00
    vertex 9.500000e-04 2.100000e-03 0.000000e+00
    vertex 9.500000e-04 2.000000e-03 0.000000e+00
    endloop
endfacet
facet normal 0.000000e+00 1.000000e+00 0.000000e+00
    outer loop
    vertex 1.000000e-04 2.100000e-03 0.000000e+00
    vertex 1.000000e-04 2.100000e-03 1.000000e-04
    vertex 9.500000e-04 2.100000e-03 0.000000e+00
    endloop
endfacet
facet normal 0.000000e+00 1.000000e+00 0.000000e+00
    outer loop
    vertex 1.000000e-04 2.100000e-03 1.000000e-04
    vertex 9.500000e-04 2.100000e-03 1.000000e-04
    vertex 9.500000e-04 2.100000e-03 0.000000e+00
    endloop
endfacet
facet normal 0.000000e+00 -1.000000e+00 0.000000e+00
    outer loop
    vertex 1.000000e-04 2.000000e-03 0.000000e+00
    vertex 9.500000e-04 2.000000e-03 0.000000e+00
    vertex 1.000000e-04 2.000000e-03 1.000000e-04
    endloop
endfacet
facet normal 0.000000e+00 -1.000000e+00 0.000000e+00
    outer loop
    vertex 9.500000e-04 2.000000e-03 0.000000e+00
    vertex 9.500000e-04 2.000000e-03 1.000000e-04
    vertex 1.000000e-04 2.000000e-03 1.000000e-04
    endloop
endfacet
facet normal 0.000000e+00 0.000000e+00 1.000000e+00
    outer loop
    vertex 1.000000e-04 1.000000e-03 1.000000e-04
    vertex 9.500000e-04 1.000000e-03 1.000000e-04
    vertex 1.000000e-04 1.100000e-03 1.000000e-04
    endloop
endfacet
facet normal 0.000000e+00 0.000000e+00 1.000000e+00
    outer loop
    vertex 9.500000e-04 1.000000e-03 1.000000e-04
    vertex 9.500000e-04 1.100000e-03 1.000000e-04
    vertex 1.000000e-04 1.100000e-03 1.000000e-04
    endloop
endfacet
facet normal 0.000000e+00 0.000000e+00 -1.000000e+00
    outer loop
    vertex 1.000000e-04 1.000000e-03 0.000000e+00
    vertex 1.000000e-04 1.100000e-03 0.000000e+00
    vertex 9.500000e-04 1.000000e-03 0.000000e+00
    endloop
endfacet
facet normal 0.000000e+00 0.000000e+00 -1.000000e+00
    outer loop
    vertex 1.000000e-04 1.100000e-03 0.000000e+00
    vertex 9.500000e-04 1.100000e-03 0.000000e+00
    vertex 9.500000e-04 1.000000e-03 0.000000e+00
    endloop
endfacet
facet normal 0.000000e+00 1.000000e+00 0.000000e+00
    outer loop
    vertex 1.000000e-04 1.100000e-03 0.000000e+00
    vertex 1.000000e-04 1.100000e-03 1.000000e-04
    vertex 9.500000e-04 1.100000e-03 0.000000e+00
    endloop
endfacet
facet normal 0.000000e+00 1.000000e+00 0.000000e+00
    outer loop
    vertex 1.000000e-04 1.100000e-03 1.000000e-04
    vertex 9.500000e-04 1.100000e-03 1.000000e-04
    vertex 9.500000e-04 1.100000e-03 0.000000e+00
    endloop
endfacet
facet normal 0.000000e+00 -1.000000e+00 0.000000e+00
    outer loop
    vertex 1.000000e-04 1.000000e-03 0.000000e+00
    vertex 9.500000e-04 1.000000e-03 0.000000e+00
    vertex 1.000000e-04 1.000000e-03 1.000000e-04
    endloop
endfacet
facet normal 0.000000e+00 -1.000000e+00 0.000000e+00
    outer loop
    vertex 9.500000e-04 1.000000e-03 0.000000e+00
    vertex 9.500000e-04 1.000000e-03 1.000000e-04
    vertex 1.000000e-04 1.000000e-03 1.000000e-04
    endloop
endfacet
facet normal 0.000000e+00 0.000000e+00 1.000000e+00
    outer loop
    vertex 1.000000e-04 0.000000e+00 1.000000e-04
    vertex 9.500000e-04 0.000000e+00 1.000000e-04
    vertex 1.000000e-04 1.000000e-04 1.000000e-04
    endloop
endfacet
facet normal 0.000000e+00 0.000000e+00 1.000000e+00
    outer loop
    vertex 9.500000e-04 0.000000e+00 1.000000e-04
    vertex 9.500000e-04 1.000000e-04 1.000000e-04
    vertex 1.000000e-04 1.000000e-04 1.000000e-04
    endloop
endfacet
facet normal 0.000000e+00 0.000000e+00 -1.000000e+00
    outer loop
    vertex 1.000000e-04 0.000000e+00 0.000000e+00
    vertex 1.000000e-04 1.000000e-04 0.000000e+00
    vertex 9.500000e-04 0.000000e+00 0.000000e+00
    endloop
endfacet
facet normal 0.000000e+00 0.000000e+00 -1.000000e+00
    outer loop
    vertex 1.000000e-04 1.000000e-04 0.000000e+00
    vertex 9.500000e-04 1.000000e-04 0.000000e+00
    vertex 9.500000e-04 0.000000e+00 0.000000e+00
    endloop
endfacet
facet normal 0.000000e+00 1.000000e+00 0.000000e+00
    outer loop
    vertex 1.000000e-04 1.000000e-04 0.000000e+00
    vertex 1.000000e-04 1.000000e-04 1.000000e-04
    vertex 9.500000e-04 1.000000e-04 0.000000e+00
    endloop
endfacet
facet normal 0.000000e+00 1.000000e+00 0.000000e+00
    outer loop
    vertex 1.000000e-04 1.000000e-04 1.000000e-04
    vertex 9.500000e-04 1.000000e-04 1.000000e-04
    vertex 9.500000e-04 1.000000e-04 0.000000e+00
    endloop
endfacet
facet normal 0.000000e+00 -1.000000e+00 0.000000e+00
    outer loop
    vertex 1.000000e-04 0.000000e+00 0.000000e+00
    vertex 9.500000e-04 0.000000e+00 0.000000e+00
    vertex 1.000000e-04 0.000000e+00 1.000000e-04
    endloop
endfacet
facet normal 0.000000e+00 -1.000000e+00 0.000000e+00
    outer loop
    vertex 9.500000e-04 0.000000e+00 0.000000e+00
    vertex 9.500000e-04 0.000000e+00 1.000000e-04
    vertex 1.000000e-04 0.000000e+00 1.000000e-04
    endloop
endfacet
facet normal 0.000000e+00 0.000000e+00 1.000000e+00
    outer loop
    vertex 9.500000e-04 1.100000e-03 1.000000e-04
    vertex 1.050000e-03 1.100000e-03 1.000000e-04
    vertex 9.500000e-04 2.000000e-03 1.000000e-04
    endloop
endfacet
facet normal 0.000000e+00 0.000000e+00 1.000000e+00
    outer loop
    vertex 1.050000e-03 1.100000e-03 1.000000e-04
    vertex 1.050000e-03 2.000000e-03 1.000000e-04
    vertex 9.500000e-04 2.000000e-03 1.000000e-04
    endloop
endfacet
facet normal 0.000000e+00 0.000000e+00 -1.000000e+00
    outer loop
    vertex 9.500000e-04 1.100000e-03 0.000000e+00
    vertex 9.500000e-04 2.000000e-03 0.000000e+00
    vertex 1.050000e-03 1.100000e-03 0.000000e+00
    endloop
endfacet
facet normal 0.000000e+00 0.000000e+00 -1.000000e+00
    outer loop
    vertex 9.500000e-04 2.000000e-03 0.000000e+00
    vertex 1.050000e-03 2.000000e-03 0.000000e+00
    vertex 1.050000e-03 1.100000e-03 0.000000e+00
    endloop
endfacet
facet normal -1.000000e+00 0.000000e+00 0.000000e+00
    outer loop
    vertex 9.500000e-04 1.100000e-03 0.000000e+00
    vertex 9.500000e-04 1.100000e-03 1.000000e-04
    vertex 9.500000e-04 2.000000e-03 0.000000e+00
    endloop
endfacet
facet normal -1.000000e+00 0.000000e+00 0.000000e+00
    outer loop
    vertex 9.500000e-04 1.100000e-03 1.000000e-04
    vertex 9.500000e-04 2.000000e-03 1.000000e-04
    vertex 9.500000e-04 2.000000e-03 0.000000e+00
    endloop
endfacet
facet normal 1.000000e+00 0.000000e+00 0.000000e+00
    outer loop
    vertex 1.050000e-03 1.100000e-03 0.000000e+00
    vertex 1.050000e-03 2.000000e-03 0.000000e+00
    vertex 1.050000e-03 1.100000e-03 1.000000e-04
    endloop
endfacet
facet normal 1.000000e+00 0.000000e+00 0.000000e+00
    outer loop
    vertex 1.050000e-03 2.000000e-03 0.000000e+00
    vertex 1.050000e-03 2.000000e-03 1.000000e-04
    vertex 1.050000e-03 1.100000e-03 1.000000e-04
    endloop
endfacet
facet normal 0.000000e+00 0.000000e+00 1.000000e+00
    outer loop
    vertex 9.500000e-04 1.000000e-04 1.000000e-04
    vertex 1.050000e-03 1.000000e-04 1.000000e-04
    vertex 9.500000e-04 1.000000e-03 1.000000e-04
    endloop
endfacet
facet normal 0.000000e+00 0.000000e+00 1.000000e+00
    outer loop
    vertex 1.050000e-03 1.000000e-04 1.000000e-04
    vertex 1.050000e-03 1.000000e-03 1.000000e-04
    vertex 9.500000e-04 1.000000e-03 1.000000e-04
    endloop
endfacet
facet normal 0.000000e+00 0.000000e+00 -1.000000e+00
    outer loop
    vertex 9.500000e-04 1.000000e-04 0.000000e+00
    vertex 9.500000e-04 1.000000e-03 0.000000e+00
    vertex 1.050000e-03 1.000000e-04 0.000000e+00
    endloop
endfacet
facet normal 0.000000e+00 0.000000e+00 -1.000000e+00
    outer loop
    vertex 9.500000e-04 1.000000e-03 0.000000e+00
    vertex 1.050000e-03 1.000000e-03 0.000000e+00
    vertex 1.050000e-03 1.000000e-04 0.000000e+00
    endloop
endfacet
facet normal -1.000000e+00 0.000000e+00 0.000000e+00
    outer loop
    vertex 9.500000e-04 1.000000e-04 0.000000e+00
    vertex 9.500000e-04 1.000000e-04 1.000000e-04
    vertex 9.500000e-04 1.000000e-03 0.000000e+00
    endloop
endfacet
facet normal -1.000000e+00 0.000000e+00 0.000000e+00
    outer loop
    vertex 9.500000e-04 1.000000e-04 1.000000e-04
    vertex 9.500000e-04 1.000000e-03 1.000000e-04
    vertex 9.500000e-04 1.000000e-03 0.000000e+00
    endloop
endfacet
facet normal 1.000000e+00 0.000000e+00 0.000000e+00
    outer loop
    vertex 1.050000e-03 1.000000e-04 0.000000e+00
    vertex 1.050000e-03 1.000000e-03 0.000000e+00
    vertex 1.050000e-03 1.000000e-04 1.000000e-04
    endloop
endfacet
facet normal 1.000000e+00 0.000000e+00 0.000000e+00
    outer loop
    vertex 1.050000e-03 1.000000e-03 0.000000e+00
    vertex 1.050000e-03 1.000000e-03 1.000000e-04
    vertex 1.050000e-03 1.000000e-04 1.000000e-04
    endloop
endfacet
facet normal 0.000000e+00 0.000000e+00 1.000000e+00
    outer loop
    vertex 1.050000e-03 1.000000e-03 1.000000e-04
    vertex 1.900000e-03 1.000000e-03 1.000000e-04
    vertex 1.050000e-03 1.100000e-03 1.000000e-04
    endloop
endfacet
facet normal 0.000000e+00 0.000000e+00 1.000000e+00
    outer loop
    vertex 1.900000e-03 1.000000e-03 1.000000e-04
    vertex 1.900000e-03 1.100000e-03 1.000000e-04
    vertex 1.050000e-03 1.100000e-03 1.000000e-04
    endloop
endfacet
facet normal 0.000000e+00 0.000000e+00 -1.000000e+00
    outer loop
    vertex 1.050000e-03 1.000000e-03 0.000000e+00
    vertex 1.050000e-03 1.100000e-03 0.000000e+00
    vertex 1.900000e-03 1.000000e-03 0.000000e+00
    endloop
endfacet
facet normal 0.000000e+00 0.000000e+00 -1.000000e+00
    outer loop
    vertex 1.050000e-03 1.100000e-03 0.000000e+00
    vertex 1.900000e-03 1.100000e-03 0.000000e+00
    vertex 1.900000e-03 1.000000e-03 0.000000e+00
    endloop
endfacet
facet normal 0.000000e+00 1.000000e+00 0.000000e+00
    outer loop
    vertex 1.050000e-03 1.100000e-03 0.000000e+00
    vertex 1.050000e-03 1.100000e-03 1.000000e-04
    vertex 1.900000e-03 1.100000e-03 0.000000e+00
    endloop
endfacet
facet normal 0.000000e+00 1.000000e+00 0.000000e+00
    outer loop
    vertex 1.050000e-03 1.100000e-03 1.000000e-04
    vertex 1.900000e-03 1.100000e-03 1.000000e-04
    vertex 1.900000e-03 1.100000e-03 0.000000e+00
    endloop
endfacet
facet normal 0.000000e+00 -1.000000e+00 0.000000e+00
    outer loop
    vertex 1.050000e-03 1.000000e-03 0.000000e+00
    vertex 1.900000e-03 1.000000e-03 0.000000e+00
    vertex 1.050000e-03 1.000000e-03 1.000000e-04
    endloop
endfacet
facet normal 0.000000e+00 -1.000000e+00 0.000000e+00
    outer loop
    vertex 1.900000e-03 1.000000e-03 0.000000e+00
    vertex 1.900000e-03 1.000000e-03 1.000000e-04
    vertex 1.050000e-03 1.000000e-03 1.000000e-04
    endloop
endfacet
endsolid