solid
 facet normal 0 0 1
  outer loop
   vertex 0.00030000001424923539 0.00019999999494757503 9.9999997473787516e-05
   vertex 0.00030000001424923539 0.00030000001424923539 9.9999997473787516e-05
   vertex 0.00020000000949949026 0.00019999999494757503 9.9999997473787516e-05
  endloop
 endfacet
 facet normal -0 0 1
  outer loop
   vertex 0.00030000001424923539 0.00030000001424923539 9.9999997473787516e-05
   vertex 0.00020000000949949026 0.00030000001424923539 9.9999997473787516e-05
   vertex 0.00020000000949949026 0.00019999999494757503 9.9999997473787516e-05
  endloop
 endfacet
 facet normal 0 0 -1
  outer loop
   vertex 0.00030000001424923539 0.00019999999494757503 0
   vertex 0.00020000000949949026 0.00019999999494757503 0
   vertex 0.00030000001424923539 0.00030000001424923539 0
  endloop
 endfacet
 facet normal 0 0 -1
  outer loop
   vertex 0.00020000000949949026 0.00019999999494757503 0
   vertex 0.00020000000949949026 0.00030000001424923539 0
   vertex 0.00030000001424923539 0.00030000001424923539 0
  endloop
 endfacet
 facet normal 1 0 0
  outer loop
   vertex 0.00030000001424923539 0.00019999999494757503 0
   vertex 0.00030000001424923539 0.00030000001424923539 0
   vertex 0.00030000001424923539 0.00019999999494757503 9.9999997473787516e-05
  endloop
 endfacet
 facet normal 1 0 0
  outer loop
   vertex 0.00030000001424923539 0.00030000001424923539 0
   vertex 0.00030000001424923539 0.00030000001424923539 9.9999997473787516e-05
   vertex 0.00030000001424923539 0.00019999999494757503 9.9999997473787516e-05
  endloop
 endfacet
 facet normal 0 0 1
  outer loop
   vertex 0.00030000001424923539 0 9.9999997473787516e-05
   vertex 0.00030000001424923539 9.9999997473787516e-05 9.9999997473787516e-05
   vertex 0.00020000000949949026 2.2204459931571278e-20 9.9999997473787516e-05
  endloop
 endfacet
 facet normal -0 0 1
  outer loop
   vertex 0.00030000001424923539 9.9999997473787516e-05 9.9999997473787516e-05
   vertex 0.00020000000949949026 9.9999997473787516e-05 9.9999997473787516e-05
   vertex 0.00020000000949949026 2.2204459931571278e-20 9.9999997473787516e-05
  endloop
 endfacet
 facet normal 0 0 -1
  outer loop
   vertex 0.00030000001424923539 0 0
   vertex 0.00020000000949949026 2.2204459931571278e-20 0
   vertex 0.00030000001424923539 9.9999997473787516e-05 0
  endloop
 endfacet
 facet normal 0 0 -1
  outer loop
   vertex 0.00020000000949949026 2.2204459931571278e-20 0
   vertex 0.00020000000949949026 9.9999997473787516e-05 0
   vertex 0.00030000001424923539 9.9999997473787516e-05 0
  endloop
 endfacet
 facet normal -2.2204458876916073e-16 -1 -0
  outer loop
   vertex 0.00030000001424923539 0 0
   vertex 0.00030000001424923539 0 9.9999997473787516e-05
   vertex 0.00020000000949949026 2.2204459931571278e-20 0
  endloop
 endfacet
 facet normal -2.2204458876916073e-16 -1 -0
  outer loop
   vertex 0.00030000001424923539 0 9.9999997473787516e-05
   vertex 0.00020000000949949026 2.2204459931571278e-20 9.9999997473787516e-05
   vertex 0.00020000000949949026 2.2204459931571278e-20 0
  endloop
 endfacet
 facet normal -1 0 0
  outer loop
   vertex 0.00020000000949949026 2.2204459931571278e-20 0
   vertex 0.00020000000949949026 2.2204459931571278e-20 9.9999997473787516e-05
   vertex 0.00020000000949949026 9.9999997473787516e-05 0
  endloop
 endfacet
 facet normal -1 -0 -0
  outer loop
   vertex 0.00020000000949949026 2.2204459931571278e-20 9.9999997473787516e-05
   vertex 0.00020000000949949026 9.9999997473787516e-05 9.9999997473787516e-05
   vertex 0.00020000000949949026 9.9999997473787516e-05 0
  endloop
 endfacet
 facet normal 1 0 0
  outer loop
   vertex 0.00030000001424923539 0 0
   vertex 0.00030000001424923539 9.9999997473787516e-05 0
   vertex 0.00030000001424923539 0 9.9999997473787516e-05
  endloop
 endfacet
 facet normal 1 0 0
  outer loop
   vertex 0.00030000001424923539 9.9999997473787516e-05 0
   vertex 0.00030000001424923539 9.9999997473787516e-05 9.9999997473787516e-05
   vertex 0.00030000001424923539 0 9.9999997473787516e-05
  endloop
 endfacet
 facet normal 0 0 1
  outer loop
   vertex 0.00010000000474974513 0.00019999999494757503 9.9999997473787516e-05
   vertex 0.00010000000474974513 0.00030000001424923539 9.9999997473787516e-05
   vertex -1.4249235472107991e-11 0.00019999999494757503 9.9999997473787516e-05
  endloop
 endfacet
 facet normal -0 0 1
  outer loop
   vertex 0.00010000000474974513 0.00030000001424923539 9.9999997473787516e-05
   vertex -1.4249235472107991e-11 0.00030000001424923539 9.9999997473787516e-05
   vertex -1.4249235472107991e-11 0.00019999999494757503 9.9999997473787516e-05
  endloop
 endfacet
 facet normal 0 0 -1
  outer loop
   vertex 0.00010000000474974513 0.00019999999494757503 0
   vertex -1.4249235472107991e-11 0.00019999999494757503 0
   vertex 0.00010000000474974513 0.00030000001424923539 0
  endloop
 endfacet
 facet normal 0 0 -1
  outer loop
   vertex -1.4249235472107991e-11 0.00019999999494757503 0
   vertex -1.4249235472107991e-11 0.00030000001424923539 0
   vertex 0.00010000000474974513 0.00030000001424923539 0
  endloop
 endfacet
 facet normal 0 -1 -0
  outer loop
   vertex 0.00010000000474974513 0.00019999999494757503 0
   vertex 0.00010000000474974513 0.00019999999494757503 9.9999997473787516e-05
   vertex -1.4249235472107991e-11 0.00019999999494757503 0
  endloop
 endfacet
 facet normal 0 -1 0
  outer loop
   vertex 0.00010000000474974513 0.00019999999494757503 9.9999997473787516e-05
   vertex -1.4249235472107991e-11 0.00019999999494757503 9.9999997473787516e-05
   vertex -1.4249235472107991e-11 0.00019999999494757503 0
  endloop
 endfacet
 facet normal -1 0 0
  outer loop
   vertex -1.4249235472107991e-11 0.00019999999494757503 0
   vertex -1.4249235472107991e-11 0.00019999999494757503 9.9999997473787516e-05
   vertex -1.4249235472107991e-11 0.00030000001424923539 0
  endloop
 endfacet
 facet normal -1 -0 -0
  outer loop
   vertex -1.4249235472107991e-11 0.00019999999494757503 9.9999997473787516e-05
   vertex -1.4249235472107991e-11 0.00030000001424923539 9.9999997473787516e-05
   vertex -1.4249235472107991e-11 0.00030000001424923539 0
  endloop
 endfacet
 facet normal 0 1 0
  outer loop
   vertex 0.00010000000474974513 0.00030000001424923539 0
   vertex -1.4249235472107991e-11 0.00030000001424923539 0
   vertex 0.00010000000474974513 0.00030000001424923539 9.9999997473787516e-05
  endloop
 endfacet
 facet normal -0 1 0
  outer loop
   vertex -1.4249235472107991e-11 0.00030000001424923539 0
   vertex -1.4249235472107991e-11 0.00030000001424923539 9.9999997473787516e-05
   vertex 0.00010000000474974513 0.00030000001424923539 9.9999997473787516e-05
  endloop
 endfacet
 facet normal 0 0 1
  outer loop
   vertex 0.00030000001424923539 0.00039999998989515007 9.9999997473787516e-05
   vertex 0.00030000001424923539 0.00050000002374872565 9.9999997473787516e-05
   vertex 0.00020000000949949026 0.00039999998989515007 9.9999997473787516e-05
  endloop
 endfacet
 facet normal -0 0 1
  outer loop
   vertex 0.00030000001424923539 0.00050000002374872565 9.9999997473787516e-05
   vertex 0.00020000000949949026 0.00050000002374872565 9.9999997473787516e-05
   vertex 0.00020000000949949026 0.00039999998989515007 9.9999997473787516e-05
  endloop
 endfacet
 facet normal 0 0 -1
  outer loop
   vertex 0.00030000001424923539 0.00039999998989515007 0
   vertex 0.00020000000949949026 0.00039999998989515007 0
   vertex 0.00030000001424923539 0.00050000002374872565 0
  endloop
 endfacet
 facet normal 0 0 -1
  outer loop
   vertex 0.00020000000949949026 0.00039999998989515007 0
   vertex 0.00020000000949949026 0.00050000002374872565 0
   vertex 0.00030000001424923539 0.00050000002374872565 0
  endloop
 endfacet
 facet normal -1 0 0
  outer loop
   vertex 0.00020000000949949026 0.00039999998989515007 0
   vertex 0.00020000000949949026 0.00039999998989515007 9.9999997473787516e-05
   vertex 0.00020000000949949026 0.00050000002374872565 0
  endloop
 endfacet
 facet normal -1 -0 -0
  outer loop
   vertex 0.00020000000949949026 0.00039999998989515007 9.9999997473787516e-05
   vertex 0.00020000000949949026 0.00050000002374872565 9.9999997473787516e-05
   vertex 0.00020000000949949026 0.00050000002374872565 0
  endloop
 endfacet
 facet normal 0 1 0
  outer loop
   vertex 0.00030000001424923539 0.00050000002374872565 0
   vertex 0.00020000000949949026 0.00050000002374872565 0
   vertex 0.00030000001424923539 0.00050000002374872565 9.9999997473787516e-05
  endloop
 endfacet
 facet normal -0 1 0
  outer loop
   vertex 0.00020000000949949026 0.00050000002374872565 0
   vertex 0.00020000000949949026 0.00050000002374872565 9.9999997473787516e-05
   vertex 0.00030000001424923539 0.00050000002374872565 9.9999997473787516e-05
  endloop
 endfacet
 facet normal 1 0 0
  outer loop
   vertex 0.00030000001424923539 0.00039999998989515007 0
   vertex 0.00030000001424923539 0.00050000002374872565 0
   vertex 0.00030000001424923539 0.00039999998989515007 9.9999997473787516e-05
  endloop
 endfacet
 facet normal 1 0 0
  outer loop
   vertex 0.00030000001424923539 0.00050000002374872565 0
   vertex 0.00030000001424923539 0.00050000002374872565 9.9999997473787516e-05
   vertex 0.00030000001424923539 0.00039999998989515007 9.9999997473787516e-05
  endloop
 endfacet
 facet normal 0 0 1
  outer loop
   vertex 0.00030000001424923539 9.9999997473787516e-05 9.9999997473787516e-05
   vertex 0.00030000001424923539 0.00019999999494757503 9.9999997473787516e-05
   vertex 0.00020000000949949026 9.9999997473787516e-05 9.9999997473787516e-05
  endloop
 endfacet
 facet normal -0 0 1
  outer loop
   vertex 0.00030000001424923539 0.00019999999494757503 9.9999997473787516e-05
   vertex 0.00020000000949949026 0.00019999999494757503 9.9999997473787516e-05
   vertex 0.00020000000949949026 9.9999997473787516e-05 9.9999997473787516e-05
  endloop
 endfacet
 facet normal 0 0 -1
  outer loop
   vertex 0.00030000001424923539 9.9999997473787516e-05 0
   vertex 0.00020000000949949026 9.9999997473787516e-05 0
   vertex 0.00030000001424923539 0.00019999999494757503 0
  endloop
 endfacet
 facet normal 0 0 -1
  outer loop
   vertex 0.00020000000949949026 9.9999997473787516e-05 0
   vertex 0.00020000000949949026 0.00019999999494757503 0
   vertex 0.00030000001424923539 0.00019999999494757503 0
  endloop
 endfacet
 facet normal -1 0 0
  outer loop
   vertex 0.00020000000949949026 9.9999997473787516e-05 0
   vertex 0.00020000000949949026 9.9999997473787516e-05 9.9999997473787516e-05
   vertex 0.00020000000949949026 0.00019999999494757503 0
  endloop
 endfacet
 facet normal -1 -0 -0
  outer loop
   vertex 0.00020000000949949026 9.9999997473787516e-05 9.9999997473787516e-05
   vertex 0.00020000000949949026 0.00019999999494757503 9.9999997473787516e-05
   vertex 0.00020000000949949026 0.00019999999494757503 0
  endloop
 endfacet
 facet normal 1 0 0
  outer loop
   vertex 0.00030000001424923539 9.9999997473787516e-05 0
   vertex 0.00030000001424923539 0.00019999999494757503 0
   vertex 0.00030000001424923539 9.9999997473787516e-05 9.9999997473787516e-05
  endloop
 endfacet
 facet normal 1 0 0
  outer loop
   vertex 0.00030000001424923539 0.00019999999494757503 0
   vertex 0.00030000001424923539 0.00019999999494757503 9.9999997473787516e-05
   vertex 0.00030000001424923539 9.9999997473787516e-05 9.9999997473787516e-05
  endloop
 endfacet
 facet normal 0 0 1
  outer loop
   vertex 0.00020000000949949026 0.00019999999494757503 9.9999997473787516e-05
   vertex 0.00020000000949949026 0.00030000001424923539 9.9999997473787516e-05
   vertex 0.00010000000474974513 0.00019999999494757503 9.9999997473787516e-05
  endloop
 endfacet
 facet normal -0 0 1
  outer loop
   vertex 0.00020000000949949026 0.00030000001424923539 9.9999997473787516e-05
   vertex 0.00010000000474974513 0.00030000001424923539 9.9999997473787516e-05
   vertex 0.00010000000474974513 0.00019999999494757503 9.9999997473787516e-05
  endloop
 endfacet
 facet normal 0 0 -1
  outer loop
   vertex 0.00020000000949949026 0.00019999999494757503 0
   vertex 0.00010000000474974513 0.00019999999494757503 0
   vertex 0.00020000000949949026 0.00030000001424923539 0
  endloop
 endfacet
 facet normal 0 0 -1
  outer loop
   vertex 0.00010000000474974513 0.00019999999494757503 0
   vertex 0.00010000000474974513 0.00030000001424923539 0
   vertex 0.00020000000949949026 0.00030000001424923539 0
  endloop
 endfacet
 facet normal 0 -1 -0
  outer loop
   vertex 0.00020000000949949026 0.00019999999494757503 0
   vertex 0.00020000000949949026 0.00019999999494757503 9.9999997473787516e-05
   vertex 0.00010000000474974513 0.00019999999494757503 0
  endloop
 endfacet
 facet normal 0 -1 0
  outer loop
   vertex 0.00020000000949949026 0.00019999999494757503 9.9999997473787516e-05
   vertex 0.00010000000474974513 0.00019999999494757503 9.9999997473787516e-05
   vertex 0.00010000000474974513 0.00019999999494757503 0
  endloop
 endfacet
 facet normal 0 1 0
  outer loop
   vertex 0.00020000000949949026 0.00030000001424923539 0
   vertex 0.00010000000474974513 0.00030000001424923539 0
   vertex 0.00020000000949949026 0.00030000001424923539 9.9999997473787516e-05
  endloop
 endfacet
 facet normal -0 1 0
  outer loop
   vertex 0.00010000000474974513 0.00030000001424923539 0
   vertex 0.00010000000474974513 0.00030000001424923539 9.9999997473787516e-05
   vertex 0.00020000000949949026 0.00030000001424923539 9.9999997473787516e-05
  endloop
 endfacet
 facet normal 0 0 1
  outer loop
   vertex 0.00030000001424923539 0.00030000001424923539 9.9999997473787516e-05
   vertex 0.00030000001424923539 0.00039999998989515007 9.9999997473787516e-05
   vertex 0.00020000000949949026 0.00030000001424923539 9.9999997473787516e-05
  endloop
 endfacet
 facet normal -0 0 1
  outer loop
   vertex 0.00030000001424923539 0.00039999998989515007 9.9999997473787516e-05
   vertex 0.00020000000949949026 0.00039999998989515007 9.9999997473787516e-05
   vertex 0.00020000000949949026 0.00030000001424923539 9.9999997473787516e-05
  endloop
 endfacet
 facet normal 0 0 -1
  outer loop
   vertex 0.00030000001424923539 0.00030000001424923539 0
   vertex 0.00020000000949949026 0.00030000001424923539 0
   vertex 0.00030000001424923539 0.00039999998989515007 0
  endloop
 endfacet
 facet normal 0 0 -1
  outer loop
   vertex 0.00020000000949949026 0.00030000001424923539 0
   vertex 0.00020000000949949026 0.00039999998989515007 0
   vertex 0.00030000001424923539 0.00039999998989515007 0
  endloop
 endfacet
 facet normal -1 0 0
  outer loop
   vertex 0.00020000000949949026 0.00030000001424923539 0
   vertex 0.00020000000949949026 0.00030000001424923539 9.9999997473787516e-05
   vertex 0.00020000000949949026 0.00039999998989515007 0
  endloop
 endfacet
 facet normal -1 -0 -0
  outer loop
   vertex 0.00020000000949949026 0.00030000001424923539 9.9999997473787516e-05
   vertex 0.00020000000949949026 0.00039999998989515007 9.9999997473787516e-05
   vertex 0.00020000000949949026 0.00039999998989515007 0
  endloop
 endfacet
 facet normal 1 0 0
  outer loop
   vertex 0.00030000001424923539 0.00030000001424923539 0
   vertex 0.00030000001424923539 0.00039999998989515007 0
   vertex 0.00030000001424923539 0.00030000001424923539 9.9999997473787516e-05
  endloop
 endfacet
 facet normal 1 0 0
  outer loop
   vertex 0.00030000001424923539 0.00039999998989515007 0
   vertex 0.00030000001424923539 0.00039999998989515007 9.9999997473787516e-05
   vertex 0.00030000001424923539 0.00030000001424923539 9.9999997473787516e-05
  endloop
 endfacet
endsolid
