solid
 facet normal 0 0 1
  outer loop
   vertex -4.4408919863142556e-20 0.00030000001424923539 9.9999997473787516e-05
   vertex -6.6613384641475235e-20 0.0001999999803956598 9.9999997473787516e-05
   vertex 9.9999997473787516e-05 0.00030000001424923539 9.9999997473787516e-05
  endloop
 endfacet
 facet normal 0 -0 1
  outer loop
   vertex -6.6613384641475235e-20 0.0001999999803956598 9.9999997473787516e-05
   vertex 9.9999997473787516e-05 0.0001999999803956598 9.9999997473787516e-05
   vertex 9.9999997473787516e-05 0.00030000001424923539 9.9999997473787516e-05
  endloop
 endfacet
 facet normal -0 0 -1
  outer loop
   vertex -4.4408919863142556e-20 0.00030000001424923539 0
   vertex 9.9999997473787516e-05 0.00030000001424923539 0
   vertex -6.6613384641475235e-20 0.0001999999803956598 0
  endloop
 endfacet
 facet normal 0 0 -1
  outer loop
   vertex 9.9999997473787516e-05 0.00030000001424923539 0
   vertex 9.9999997473787516e-05 0.0001999999803956598 0
   vertex -6.6613384641475235e-20 0.0001999999803956598 0
  endloop
 endfacet
 facet normal -1 2.2204457261329958e-16 0
  outer loop
   vertex -4.4408919863142556e-20 0.00030000001424923539 0
   vertex -6.6613384641475235e-20 0.0001999999803956598 0
   vertex -4.4408919863142556e-20 0.00030000001424923539 9.9999997473787516e-05
  endloop
 endfacet
 facet normal -1 2.2204457261329958e-16 0
  outer loop
   vertex -6.6613384641475235e-20 0.0001999999803956598 0
   vertex -6.6613384641475235e-20 0.0001999999803956598 9.9999997473787516e-05
   vertex -4.4408919863142556e-20 0.00030000001424923539 9.9999997473787516e-05
  endloop
 endfacet
 facet normal 0 0 1
  outer loop
   vertex 0 0.00050000002374872565 9.9999997473787516e-05
   vertex -2.2204459931571278e-20 0.00039999998989515007 9.9999997473787516e-05
   vertex 9.9999997473787516e-05 0.00050000002374872565 9.9999997473787516e-05
  endloop
 endfacet
 facet normal 0 -0 1
  outer loop
   vertex -2.2204459931571278e-20 0.00039999998989515007 9.9999997473787516e-05
   vertex 9.9999997473787516e-05 0.00039999998989515007 9.9999997473787516e-05
   vertex 9.9999997473787516e-05 0.00050000002374872565 9.9999997473787516e-05
  endloop
 endfacet
 facet normal -0 0 -1
  outer loop
   vertex 0 0.00050000002374872565 0
   vertex 9.9999997473787516e-05 0.00050000002374872565 0
   vertex -2.2204459931571278e-20 0.00039999998989515007 0
  endloop
 endfacet
 facet normal 0 0 -1
  outer loop
   vertex 9.9999997473787516e-05 0.00050000002374872565 0
   vertex 9.9999997473787516e-05 0.00039999998989515007 0
   vertex -2.2204459931571278e-20 0.00039999998989515007 0
  endloop
 endfacet
 facet normal 0 1 0
  outer loop
   vertex 0 0.00050000002374872565 0
   vertex 0 0.00050000002374872565 9.9999997473787516e-05
   vertex 9.9999997473787516e-05 0.00050000002374872565 0
  endloop
 endfacet
 facet normal 0 1 0
  outer loop
   vertex 0 0.00050000002374872565 9.9999997473787516e-05
   vertex 9.9999997473787516e-05 0.00050000002374872565 9.9999997473787516e-05
   vertex 9.9999997473787516e-05 0.00050000002374872565 0
  endloop
 endfacet
 facet normal 1 0 0
  outer loop
   vertex 9.9999997473787516e-05 0.00050000002374872565 0
   vertex 9.9999997473787516e-05 0.00050000002374872565 9.9999997473787516e-05
   vertex 9.9999997473787516e-05 0.00039999998989515007 0
  endloop
 endfacet
 facet normal 1 -0 0
  outer loop
   vertex 9.9999997473787516e-05 0.00050000002374872565 9.9999997473787516e-05
   vertex 9.9999997473787516e-05 0.00039999998989515007 9.9999997473787516e-05
   vertex 9.9999997473787516e-05 0.00039999998989515007 0
  endloop
 endfacet
 facet normal -1 2.2204452414570195e-16 0
  outer loop
   vertex 0 0.00050000002374872565 0
   vertex -2.2204459931571278e-20 0.00039999998989515007 0
   vertex 0 0.00050000002374872565 9.9999997473787516e-05
  endloop
 endfacet
 facet normal -1 2.2204452414570195e-16 0
  outer loop
   vertex -2.2204459931571278e-20 0.00039999998989515007 0
   vertex -2.2204459931571278e-20 0.00039999998989515007 9.9999997473787516e-05
   vertex 0 0.00050000002374872565 9.9999997473787516e-05
  endloop
 endfacet
 facet normal 0 0 1
  outer loop
   vertex 0.00019999999494757503 0.00030000001424923539 9.9999997473787516e-05
   vertex 0.00019999999494757503 0.0001999999803956598 9.9999997473787516e-05
   vertex 0.00030000001424923539 0.00030000001424923539 9.9999997473787516e-05
  endloop
 endfacet
 facet normal 0 -0 1
  outer loop
   vertex 0.00019999999494757503 0.0001999999803956598 9.9999997473787516e-05
   vertex 0.00030000001424923539 0.0001999999803956598 9.9999997473787516e-05
   vertex 0.00030000001424923539 0.00030000001424923539 9.9999997473787516e-05
  endloop
 endfacet
 facet normal -0 0 -1
  outer loop
   vertex 0.00019999999494757503 0.00030000001424923539 0
   vertex 0.00030000001424923539 0.00030000001424923539 0
   vertex 0.00019999999494757503 0.0001999999803956598 0
  endloop
 endfacet
 facet normal 0 0 -1
  outer loop
   vertex 0.00030000001424923539 0.00030000001424923539 0
   vertex 0.00030000001424923539 0.0001999999803956598 0
   vertex 0.00019999999494757503 0.0001999999803956598 0
  endloop
 endfacet
 facet normal 0 1 0
  outer loop
   vertex 0.00019999999494757503 0.00030000001424923539 0
   vertex 0.00019999999494757503 0.00030000001424923539 9.9999997473787516e-05
   vertex 0.00030000001424923539 0.00030000001424923539 0
  endloop
 endfacet
 facet normal 0 1 0
  outer loop
   vertex 0.00019999999494757503 0.00030000001424923539 9.9999997473787516e-05
   vertex 0.00030000001424923539 0.00030000001424923539 9.9999997473787516e-05
   vertex 0.00030000001424923539 0.00030000001424923539 0
  endloop
 endfacet
 facet normal 1 0 0
  outer loop
   vertex 0.00030000001424923539 0.00030000001424923539 0
   vertex 0.00030000001424923539 0.00030000001424923539 9.9999997473787516e-05
   vertex 0.00030000001424923539 0.0001999999803956598 0
  endloop
 endfacet
 facet normal 1 -0 0
  outer loop
   vertex 0.00030000001424923539 0.00030000001424923539 9.9999997473787516e-05
   vertex 0.00030000001424923539 0.0001999999803956598 9.9999997473787516e-05
   vertex 0.00030000001424923539 0.0001999999803956598 0
  endloop
 endfacet
 facet normal 0 -1 0
  outer loop
   vertex 0.00019999999494757503 0.0001999999803956598 0
   vertex 0.00030000001424923539 0.0001999999803956598 0
   vertex 0.00019999999494757503 0.0001999999803956598 9.9999997473787516e-05
  endloop
 endfacet
 facet normal -0 -1 -0
  outer loop
   vertex 0.00030000001424923539 0.0001999999803956598 0
   vertex 0.00030000001424923539 0.0001999999803956598 9.9999997473787516e-05
   vertex 0.00019999999494757503 0.0001999999803956598 9.9999997473787516e-05
  endloop
 endfacet
 facet normal 0 0 1
  outer loop
   vertex -8.8817839726285112e-20 0.00010000001202570274 9.9999997473787516e-05
   vertex -1.1102230773579206e-19 -2.3748725208605492e-11 9.9999997473787516e-05
   vertex 9.9999997473787516e-05 0.00010000001202570274 9.9999997473787516e-05
  endloop
 endfacet
 facet normal 0 -0 1
  outer loop
   vertex -1.1102230773579206e-19 -2.3748725208605492e-11 9.9999997473787516e-05
   vertex 9.9999997473787516e-05 -2.3748725208605492e-11 9.9999997473787516e-05
   vertex 9.9999997473787516e-05 0.00010000001202570274 9.9999997473787516e-05
  endloop
 endfacet
 facet normal -0 0 -1
  outer loop
   vertex -8.8817839726285112e-20 0.00010000001202570274 0
   vertex 9.9999997473787516e-05 0.00010000001202570274 0
   vertex -1.1102230773579206e-19 -2.3748725208605492e-11 0
  endloop
 endfacet
 facet normal 0 0 -1
  outer loop
   vertex 9.9999997473787516e-05 0.00010000001202570274 0
   vertex 9.9999997473787516e-05 -2.3748725208605492e-11 0
   vertex -1.1102230773579206e-19 -2.3748725208605492e-11 0
  endloop
 endfacet
 facet normal 1 0 0
  outer loop
   vertex 9.9999997473787516e-05 0.00010000001202570274 0
   vertex 9.9999997473787516e-05 0.00010000001202570274 9.9999997473787516e-05
   vertex 9.9999997473787516e-05 -2.3748725208605492e-11 0
  endloop
 endfacet
 facet normal 1 -0 0
  outer loop
   vertex 9.9999997473787516e-05 0.00010000001202570274 9.9999997473787516e-05
   vertex 9.9999997473787516e-05 -2.3748725208605492e-11 9.9999997473787516e-05
   vertex 9.9999997473787516e-05 -2.3748725208605492e-11 0
  endloop
 endfacet
 facet normal 0 -1 0
  outer loop
   vertex -1.1102230773579206e-19 -2.3748725208605492e-11 0
   vertex 9.9999997473787516e-05 -2.3748725208605492e-11 0
   vertex -1.1102230773579206e-19 -2.3748725208605492e-11 9.9999997473787516e-05
  endloop
 endfacet
 facet normal -0 -1 -0
  outer loop
   vertex 9.9999997473787516e-05 -2.3748725208605492e-11 0
   vertex 9.9999997473787516e-05 -2.3748725208605492e-11 9.9999997473787516e-05
   vertex -1.1102230773579206e-19 -2.3748725208605492e-11 9.9999997473787516e-05
  endloop
 endfacet
 facet normal -1 2.2204460065988379e-16 0
  outer loop
   vertex -8.8817839726285112e-20 0.00010000001202570274 0
   vertex -1.1102230773579206e-19 -2.3748725208605492e-11 0
   vertex -8.8817839726285112e-20 0.00010000001202570274 9.9999997473787516e-05
  endloop
 endfacet
 facet normal -1 2.2204460065988379e-16 0
  outer loop
   vertex -1.1102230773579206e-19 -2.3748725208605492e-11 0
   vertex -1.1102230773579206e-19 -2.3748725208605492e-11 9.9999997473787516e-05
   vertex -8.8817839726285112e-20 0.00010000001202570274 9.9999997473787516e-05
  endloop
 endfacet
 facet normal 0 0 1
  outer loop
   vertex -2.2204459931571278e-20 0.00039999998989515007 9.9999997473787516e-05
   vertex -4.4408919863142556e-20 0.00030000001424923539 9.9999997473787516e-05
   vertex 9.9999997473787516e-05 0.00039999998989515007 9.9999997473787516e-05
  endloop
 endfacet
 facet normal 0 -0 1
  outer loop
   vertex -4.4408919863142556e-20 0.00030000001424923539 9.9999997473787516e-05
   vertex 9.9999997473787516e-05 0.00030000001424923539 9.9999997473787516e-05
   vertex 9.9999997473787516e-05 0.00039999998989515007 9.9999997473787516e-05
  endloop
 endfacet
 facet normal -0 0 -1
  outer loop
   vertex -2.2204459931571278e-20 0.00039999998989515007 0
   vertex 9.9999997473787516e-05 0.00039999998989515007 0
   vertex -4.4408919863142556e-20 0.00030000001424923539 0
  endloop
 endfacet
 facet normal 0 0 -1
  outer loop
   vertex 9.9999997473787516e-05 0.00039999998989515007 0
   vertex 9.9999997473787516e-05 0.00030000001424923539 0
   vertex -4.4408919863142556e-20 0.00030000001424923539 0
  endloop
 endfacet
 facet normal 1 0 0
  outer loop
   vertex 9.9999997473787516e-05 0.00039999998989515007 0
   vertex 9.9999997473787516e-05 0.00039999998989515007 9.9999997473787516e-05
   vertex 9.9999997473787516e-05 0.00030000001424923539 0
  endloop
 endfacet
 facet normal 1 -0 0
  outer loop
   vertex 9.9999997473787516e-05 0.00039999998989515007 9.9999997473787516e-05
   vertex 9.9999997473787516e-05 0.00030000001424923539 9.9999997473787516e-05
   vertex 9.9999997473787516e-05 0.00030000001424923539 0
  endloop
 endfacet
 facet normal -1 2.2204465339265711e-16 0
  outer loop
   vertex -2.2204459931571278e-20 0.00039999998989515007 0
   vertex -4.4408919863142556e-20 0.00030000001424923539 0
   vertex -2.2204459931571278e-20 0.00039999998989515007 9.9999997473787516e-05
  endloop
 endfacet
 facet normal -1 2.2204465339265711e-16 0
  outer loop
   vertex -4.4408919863142556e-20 0.00030000001424923539 0
   vertex -4.4408919863142556e-20 0.00030000001424923539 9.9999997473787516e-05
   vertex -2.2204459931571278e-20 0.00039999998989515007 9.9999997473787516e-05
  endloop
 endfacet
 facet normal 0 0 1
  outer loop
   vertex 9.9999997473787516e-05 0.00030000001424923539 9.9999997473787516e-05
   vertex 9.9999997473787516e-05 0.0001999999803956598 9.9999997473787516e-05
   vertex 0.00019999999494757503 0.00030000001424923539 9.9999997473787516e-05
  endloop
 endfacet
 facet normal 0 -0 1
  outer loop
   vertex 9.9999997473787516e-05 0.0001999999803956598 9.9999997473787516e-05
   vertex 0.00019999999494757503 0.0001999999803956598 9.9999997473787516e-05
   vertex 0.00019999999494757503 0.00030000001424923539 9.9999997473787516e-05
  endloop
 endfacet
 facet normal -0 0 -1
  outer loop
   vertex 9.9999997473787516e-05 0.00030000001424923539 0
   vertex 0.00019999999494757503 0.00030000001424923539 0
   vertex 9.9999997473787516e-05 0.0001999999803956598 0
  endloop
 endfacet
 facet normal 0 0 -1
  outer loop
   vertex 0.00019999999494757503 0.00030000001424923539 0
   vertex 0.00019999999494757503 0.0001999999803956598 0
   vertex 9.9999997473787516e-05 0.0001999999803956598 0
  endloop
 endfacet
 facet normal 0 1 0
  outer loop
   vertex 9.9999997473787516e-05 0.00030000001424923539 0
   vertex 9.9999997473787516e-05 0.00030000001424923539 9.9999997473787516e-05
   vertex 0.00019999999494757503 0.00030000001424923539 0
  endloop
 endfacet
 facet normal 0 1 0
  outer loop
   vertex 9.9999997473787516e-05 0.00030000001424923539 9.9999997473787516e-05
   vertex 0.00019999999494757503 0.00030000001424923539 9.9999997473787516e-05
   vertex 0.00019999999494757503 0.00030000001424923539 0
  endloop
 endfacet
 facet normal 0 -1 0
  outer loop
   vertex 9.9999997473787516e-05 0.0001999999803956598 0
   vertex 0.00019999999494757503 0.0001999999803956598 0
   vertex 9.9999997473787516e-05 0.0001999999803956598 9.9999997473787516e-05
  endloop
 endfacet
 facet normal -0 -1 -0
  outer loop
   vertex 0.00019999999494757503 0.0001999999803956598 0
   vertex 0.00019999999494757503 0.0001999999803956598 9.9999997473787516e-05
   vertex 9.9999997473787516e-05 0.0001999999803956598 9.9999997473787516e-05
  endloop
 endfacet
 facet normal 0 0 1
  outer loop
   vertex -6.6613384641475235e-20 0.0001999999803956598 9.9999997473787516e-05
   vertex -8.8817839726285112e-20 0.00010000001202570274 9.9999997473787516e-05
   vertex 9.9999997473787516e-05 0.0001999999803956598 9.9999997473787516e-05
  endloop
 endfacet
 facet normal 0 -0 1
  outer loop
   vertex -8.8817839726285112e-20 0.00010000001202570274 9.9999997473787516e-05
   vertex 9.9999997473787516e-05 0.00010000001202570274 9.9999997473787516e-05
   vertex 9.9999997473787516e-05 0.0001999999803956598 9.9999997473787516e-05
  endloop
 endfacet
 facet normal -0 0 -1
  outer loop
   vertex -6.6613384641475235e-20 0.0001999999803956598 0
   vertex 9.9999997473787516e-05 0.0001999999803956598 0
   vertex -8.8817839726285112e-20 0.00010000001202570274 0
  endloop
 endfacet
 facet normal 0 0 -1
  outer loop
   vertex 9.9999997473787516e-05 0.0001999999803956598 0
   vertex 9.9999997473787516e-05 0.00010000001202570274 0
   vertex -8.8817839726285112e-20 0.00010000001202570274 0
  endloop
 endfacet
 facet normal 1 0 0
  outer loop
   vertex 9.9999997473787516e-05 0.0001999999803956598 0
   vertex 9.9999997473787516e-05 0.0001999999803956598 9.9999997473787516e-05
   vertex 9.9999997473787516e-05 0.00010000001202570274 0
  endloop
 endfacet
 facet normal 1 -0 0
  outer loop
   vertex 9.9999997473787516e-05 0.0001999999803956598 9.9999997473787516e-05
   vertex 9.9999997473787516e-05 0.00010000001202570274 9.9999997473787516e-05
   vertex 9.9999997473787516e-05 0.00010000001202570274 0
  endloop
 endfacet
 facet normal -1 2.2204462108090777e-16 0
  outer loop
   vertex -6.6613384641475235e-20 0.0001999999803956598 0
   vertex -8.8817839726285112e-20 0.00010000001202570274 0
   vertex -6.6613384641475235e-20 0.0001999999803956598 9.9999997473787516e-05
  endloop
 endfacet
 facet normal -1 2.2204462108090777e-16 0
  outer loop
   vertex -8.8817839726285112e-20 0.00010000001202570274 0
   vertex -8.8817839726285112e-20 0.00010000001202570274 9.9999997473787516e-05
   vertex -6.6613384641475235e-20 0.0001999999803956598 9.9999997473787516e-05
  endloop
 endfacet
endsolid
